<svg width="156" height="123" viewBox="0 0 156 123" fill="none" xmlns="http://www.w3.org/2000/svg">
<g clip-path="url(#clip0)">
<path opacity="0.2" d="M78.9262 123C121.493 123 156 120.362 156 117.107C156 113.853 121.493 111.215 78.9262 111.215C36.3596 111.215 1.85254 113.853 1.85254 117.107C1.85254 120.362 36.3596 123 78.9262 123Z" fill="#65BFD4"/>
<path d="M120.557 34.9939C120.557 34.9939 121.039 41.3565 121.039 41.5921C121.039 41.8278 117.668 58.0876 117.668 58.0876C117.668 58.0876 112.852 67.0423 117.668 66.8066C122.484 66.571 121.039 58.3233 121.039 58.3233L126.095 44.6556L123.928 34.9939L120.557 34.9939Z" fill="#A0616A"/>
<path d="M122.768 51.2818H27.0811V117.063H122.768V51.2818Z" fill="#AEDEE9"/>
<path d="M59.1621 76.3802H35.1362V117.425H59.1621V76.3802Z" fill="#65BFD4"/>
<path d="M46.052 78.8425H39.5801V84.7467H46.052V78.8425Z" fill="#F2F2F2"/>
<path d="M54.718 78.8425H48.2461V84.7467H54.718V78.8425Z" fill="#F2F2F2"/>
<path d="M46.052 86.8938H39.5801V93.0127H46.052V86.8938Z" fill="#F2F2F2"/>
<path d="M54.718 86.8938H48.2461V93.0127H54.718V86.8938Z" fill="#F2F2F2"/>
<path d="M56.1068 101.161C56.9505 101.161 57.6344 100.492 57.6344 99.666C57.6344 98.8403 56.9505 98.171 56.1068 98.171C55.2631 98.171 54.5791 98.8403 54.5791 99.666C54.5791 100.492 55.2631 101.161 56.1068 101.161Z" fill="#FFAA81"/>
<path d="M114.713 72.4839H67.2168V111.49H114.713V72.4839Z" fill="#65BFD4"/>
<path d="M132.767 63.666H17.082L24.7953 47.8839L26.5215 44.3503L28.7798 39.7293L30.506 36.1956L32.5071 32.1021H123.653L124.834 36.1956L125.855 39.7293L127.19 44.3503L128.211 47.8839L132.767 63.666Z" fill="#65BFD4"/>
<path d="M70.5498 88.6573H68.8833V98.7147H70.5498V88.6573Z" fill="#FFAA81"/>
<path d="M70.5498 90.1523H68.8833V91.3755H70.5498V90.1523Z" fill="#F2F2F2"/>
<path d="M70.5498 95.9965H68.8833V97.2197H70.5498V95.9965Z" fill="#F2F2F2"/>
<path d="M75.4108 88.6573H71.3833V98.7147H75.4108V88.6573Z" fill="#FFAA81"/>
<path d="M75.4108 90.1523H71.3833V91.3755H75.4108V90.1523Z" fill="#F2F2F2"/>
<path d="M75.4108 95.9965H71.3833V97.2197H75.4108V95.9965Z" fill="#F2F2F2"/>
<path d="M78.0493 88.6573H76.3828V98.7147H78.0493V88.6573Z" fill="#FFAA81"/>
<path d="M78.0493 90.1523H76.3828V91.3755H78.0493V90.1523Z" fill="#F2F2F2"/>
<path d="M78.0493 95.9965H76.3828V97.2197H78.0493V95.9965Z" fill="#F2F2F2"/>
<path d="M80.5489 88.6573H78.8823V98.7147H80.5489V88.6573Z" fill="#FFAA81"/>
<path d="M80.5489 90.1523H78.8823V91.3755H80.5489V90.1523Z" fill="#F2F2F2"/>
<path d="M80.5489 95.9965H78.8823V97.2197H80.5489V95.9965Z" fill="#F2F2F2"/>
<path d="M82.1551 88.6929L80.5957 89.2681L84.2206 98.6791L85.7801 98.1038L82.1551 88.6929Z" fill="#FFAA81"/>
<path d="M82.6937 90.0918L81.1343 90.6671L81.5751 91.8116L83.1346 91.2364L82.6937 90.0918Z" fill="#F2F2F2"/>
<path d="M84.8002 95.5603L83.2407 96.1356L83.6816 97.2801L85.2411 96.7049L84.8002 95.5603Z" fill="#F2F2F2"/>
<path d="M113.185 88.6573H109.158V98.7147H113.185V88.6573Z" fill="#FFAA81"/>
<path d="M113.185 90.1523H109.158V91.3755H113.185V90.1523Z" fill="#F2F2F2"/>
<path d="M113.185 95.9965H109.158V97.2197H113.185V95.9965Z" fill="#F2F2F2"/>
<path d="M108.186 88.6573H106.519V98.7147H108.186V88.6573Z" fill="#FFAA81"/>
<path d="M108.186 90.1523H106.519V91.3755H108.186V90.1523Z" fill="#F2F2F2"/>
<path d="M108.186 95.9965H106.519V97.2197H108.186V95.9965Z" fill="#F2F2F2"/>
<path d="M105.686 88.6573H104.02V98.7147H105.686V88.6573Z" fill="#FFAA81"/>
<path d="M105.686 90.1523H104.02V91.3755H105.686V90.1523Z" fill="#F2F2F2"/>
<path d="M105.686 95.9965H104.02V97.2197H105.686V95.9965Z" fill="#F2F2F2"/>
<path d="M102.414 88.6928L98.7886 98.1038L100.348 98.6791L103.973 89.2681L102.414 88.6928Z" fill="#FFAA81"/>
<path d="M101.874 90.0917L101.434 91.2363L102.993 91.8116L103.434 90.667L101.874 90.0917Z" fill="#F2F2F2"/>
<path d="M99.7685 95.5603L99.3276 96.7049L100.887 97.2801L101.328 96.1356L99.7685 95.5603Z" fill="#F2F2F2"/>
<path d="M114.713 98.7147H67.2168V99.666H114.713V98.7147Z" fill="#F2F2F2"/>
<path d="M96.6589 88.6573H87.9097V98.7147H96.6589V88.6573Z" fill="#FFAA81"/>
<path d="M94.5061 90.8318H90.062V92.7346H94.5061V90.8318Z" fill="#F2F2F2"/>
<path d="M91.3816 72.4839H90.5483V81.1822H91.3816V72.4839Z" fill="#F2F2F2"/>
<path d="M90.9649 82.5413C91.7319 82.5413 92.3537 81.9328 92.3537 81.1822C92.3537 80.4316 91.7319 79.8231 90.9649 79.8231C90.1979 79.8231 89.5762 80.4316 89.5762 81.1822C89.5762 81.9328 90.1979 82.5413 90.9649 82.5413Z" fill="#F2F2F2"/>
<path d="M125.855 39.7293H28.7798L30.506 36.1956H124.834L125.855 39.7293Z" fill="#FFAA81"/>
<path d="M128.211 47.8839H24.7954L26.5216 44.3503H127.19L128.211 47.8839Z" fill="#FFAA81"/>
<path d="M123.163 25.14C123.163 25.14 124.024 29.3536 124.024 29.9857C124.024 30.6177 127.683 32.5138 127.683 32.5138L131.774 27.4575C131.774 27.4575 129.19 23.876 129.19 23.0333L123.163 25.14Z" fill="#F8BDC5"/>
<path d="M141.41 103.442L142.011 107.757L137.802 108.149L138.403 102.853L141.41 103.442Z" fill="#A0616A"/>
<path d="M128.182 103.442L127.581 107.757L131.79 108.149L131.188 102.853L128.182 103.442Z" fill="#A0616A"/>
<path d="M123.573 63.0389L122.57 64.4119C122.57 64.4119 121.969 70.2958 122.57 72.2571C123.172 74.2184 124.374 83.2404 124.374 83.8288C124.374 84.4172 124.575 84.8095 124.374 85.0056C124.174 85.2017 123.572 85.2018 123.973 85.594C124.374 85.9863 124.374 87.1631 124.374 87.1631V88.1437L126.98 102.657C126.98 102.657 125.376 104.423 126.579 104.423C127.781 104.423 132.19 104.423 131.99 102.461L131.589 102.265C131.589 102.265 130.988 89.3205 131.188 88.7321C131.389 88.1437 131.188 86.9669 131.188 86.9669C131.188 86.9669 130.787 86.3785 131.188 86.1824C131.589 85.9863 131.589 84.4172 131.589 84.4172L133.393 72.4532C133.393 72.4532 134.996 80.4946 135.998 81.2791C137 82.0637 136.8 84.025 136.8 84.025L137.601 101.285C137.601 101.285 136.8 103.246 137.601 103.638C138.403 104.03 141.81 105.403 142.01 103.442C142.211 101.481 143.213 84.4172 143.213 83.6327C143.213 82.8482 143.013 82.4559 143.213 81.8675C143.413 81.2791 143.013 81.2791 143.213 81.2791C143.413 81.2791 142.812 80.6907 142.812 80.2985V70.6881C142.812 70.6881 143.013 68.7267 143.213 68.3345C143.413 67.9422 143.013 67.55 143.213 66.9616C143.413 66.3732 142.812 64.4119 142.812 64.4119L133.794 62.0583L123.573 63.0389Z" fill="#2F2E41"/>
<path d="M130.587 106.972C130.587 106.972 131.589 105.992 130.186 105.992C129.285 106.01 128.398 106.21 127.581 106.58L126.579 110.11C126.579 110.11 122.47 113.347 127.08 112.954C131.689 112.562 130.988 112.856 130.988 112.856C130.988 112.856 132.391 112.464 132.591 112.072C132.791 111.679 132.19 105.992 132.19 105.992C132.19 105.992 131.589 107.561 130.587 106.972Z" fill="#2F2E41"/>
<path d="M139.205 106.972C139.205 106.972 138.203 105.992 139.606 105.992C140.507 106.01 141.394 106.21 142.211 106.58L143.213 110.11C143.213 110.11 147.322 113.347 142.712 112.954C138.103 112.562 138.203 112.856 138.203 112.856C138.203 112.856 136.8 112.464 136.6 112.072C136.399 111.679 137.602 105.992 137.602 105.992C137.602 105.992 138.203 107.561 139.205 106.972Z" fill="#2F2E41"/>
<path d="M126.178 28.716C129.056 28.716 131.389 26.4329 131.389 23.6166C131.389 20.8002 129.056 18.5172 126.178 18.5172C123.3 18.5172 120.967 20.8002 120.967 23.6166C120.967 26.4329 123.3 28.716 126.178 28.716Z" fill="#F8BDC5"/>
<path d="M127.381 32.4425C127.381 32.4425 125.634 31.9876 125.104 31.2344C125.104 31.2344 119.564 36.5613 119.564 37.542L123.974 45.1911C123.974 45.1911 123.974 47.9369 124.374 48.133C124.775 48.3292 124.374 48.133 124.374 48.9176C124.374 49.7021 123.172 54.8015 123.573 55.586C123.974 56.3705 124.374 55.7821 123.974 56.9589C123.573 58.1357 122.571 64.4119 122.571 64.4119C122.571 64.4119 126.178 63.2351 131.389 65.1964C136.6 67.1577 142.812 64.4119 142.812 64.4119C142.812 64.4119 141.209 60.8816 141.61 59.7048C142.011 58.528 140.608 56.3705 140.608 56.3705L139.606 38.3265C139.606 38.3265 141.009 30.2851 140.007 29.8928L138.002 29.1083L131.584 28.3364C131.584 28.3364 129.986 32.2464 127.381 32.4425Z" fill="#FFAA81"/>
<path d="M121.569 36.169L119.565 37.5419C119.565 37.5419 118.562 40.4839 119.565 41.8568C120.567 43.2297 120.967 45.191 120.967 45.191L124.976 44.7988L121.569 36.169Z" fill="#FFAA81"/>
<path d="M122.2 18.2274L121.296 17.8733C121.296 17.8733 123.186 15.8371 125.815 16.0141L125.076 15.2173C125.076 15.2173 126.883 14.5091 128.527 16.3682C129.391 17.3456 130.39 18.4943 131.013 19.7884H131.981L131.577 20.659L132.991 21.5295L131.54 21.3732C131.677 22.1247 131.63 22.8975 131.403 23.6278L131.441 24.3159C131.441 24.3159 129.759 21.7686 129.759 21.4145V22.2998C129.759 22.2998 128.855 21.503 128.855 20.9719L128.362 21.5916L128.116 20.6177L125.076 21.5916L125.569 20.7948L123.679 21.0604L124.418 20.0866C124.418 20.0866 122.282 21.2375 122.2 22.2113C122.117 23.1851 121.049 24.4246 121.049 24.4246L120.556 23.5393C120.556 23.5393 119.817 19.5554 122.2 18.2274Z" fill="#2F2E41"/>
<path d="M136.399 37.9341C136.399 37.9341 135.239 40.8547 135.481 43.7443C135.525 44.2616 135.703 44.7594 135.998 45.191L121.78 51.7969C121.78 51.7969 115.356 52.4478 116.959 55.1937C118.562 57.9395 124.374 53.8207 124.374 53.8207C124.374 53.8207 139.606 51.6633 140.808 49.5059C142.011 47.3484 142.812 38.3264 142.812 38.3264L136.399 37.9341Z" fill="#F8BDC5"/>
<path d="M137.001 29.8928H140.007C140.007 29.8928 142.211 30.2851 142.813 34.2077C143.414 38.1303 144.015 39.111 143.414 39.111C142.813 39.111 135.598 38.9148 135.598 38.7187C135.598 38.5226 137.001 29.8928 137.001 29.8928Z" fill="#FFAA81"/>
<path d="M18.5273 88.1875C28.7597 88.1875 37.0546 80.0697 37.0546 70.0559C37.0546 60.0422 28.7597 51.9244 18.5273 51.9244C8.29496 51.9244 0 60.0422 0 70.0559C0 80.0697 8.29496 88.1875 18.5273 88.1875Z" fill="#FFAA81"/>
<path opacity="0.1" d="M18.5272 85.6491C27.3271 85.6491 34.4607 78.6678 34.4607 70.056C34.4607 61.4441 27.3271 54.4628 18.5272 54.4628C9.72742 54.4628 2.59375 61.4441 2.59375 70.056C2.59375 78.6678 9.72742 85.6491 18.5272 85.6491Z" fill="black"/>
</g>
<defs>
<clipPath id="clip0">
<rect width="156" height="123" fill="white"/>
</clipPath>
</defs>
</svg>
