<svg width="143" height="106" viewBox="0 0 143 106" fill="none" xmlns="http://www.w3.org/2000/svg">
<g clip-path="url(#clip0)">
<path d="M26.8218 38.9568C26.8218 38.9568 22.1196 43.3778 17.073 43.5096C14.9538 43.5516 12.9054 44.2774 11.2355 45.578C10.4462 46.1996 9.71573 46.892 9.05322 47.6464" stroke="#65BFD4" stroke-width="2" stroke-miterlimit="10"/>
<path d="M5.87046 47.7549C6.5483 47.4117 9.13568 47.6396 9.13568 47.6396C9.13568 47.6396 7.79377 49.8562 7.11593 50.1994C6.95359 50.2952 6.77321 50.3569 6.58598 50.3804C6.39874 50.404 6.20865 50.3889 6.02748 50.3363C5.84632 50.2836 5.67794 50.1944 5.5328 50.0743C5.38766 49.9541 5.26885 49.8055 5.18373 49.6377C5.09861 49.4699 5.04901 49.2865 5.03799 49.0988C5.02698 48.9111 5.05479 48.7232 5.11969 48.5466C5.1846 48.3701 5.28522 48.2087 5.41531 48.0725C5.54541 47.9363 5.7022 47.8282 5.87597 47.7549H5.87046Z" fill="#2172A7"/>
<path d="M8.59414 43.8362C9.35051 43.9159 11.3978 45.508 11.3978 45.508C11.3978 45.508 9.05567 46.6417 8.30619 46.5635C7.95554 46.5107 7.63882 46.3253 7.42195 46.0457C7.20507 45.7662 7.10474 45.4141 7.14184 45.0628C7.17894 44.7114 7.3506 44.3878 7.62111 44.1594C7.89162 43.9309 8.24014 43.8152 8.59414 43.8362Z" fill="#2172A7"/>
<path d="M15.0529 40.678C15.6646 41.1268 16.6262 43.5315 16.6262 43.5315C16.6262 43.5315 14.0347 43.3353 13.423 42.8878C13.1473 42.6659 12.9681 42.3466 12.9225 41.9964C12.877 41.6462 12.9687 41.292 13.1786 41.0075C13.3885 40.7229 13.7004 40.5299 14.0495 40.4685C14.3985 40.4072 14.7579 40.4822 15.0529 40.678Z" fill="#2172A7"/>
<path d="M20.48 39.3864C21.1592 39.7254 22.5149 41.9339 22.5149 41.9339C22.5149 41.9339 19.9275 42.1768 19.2483 41.8378C19.0769 41.7632 18.9226 41.6547 18.7946 41.5188C18.6667 41.3829 18.5679 41.2225 18.5042 41.0473C18.4405 40.8722 18.4133 40.6859 18.4242 40.5C18.4351 40.314 18.4839 40.1322 18.5676 39.9656C18.6513 39.799 18.7682 39.6511 18.9111 39.531C19.054 39.4108 19.22 39.3209 19.3989 39.2667C19.5778 39.2125 19.7659 39.1952 19.9518 39.2158C20.1377 39.2364 20.3174 39.2944 20.48 39.3864Z" fill="#2172A7"/>
<path d="M12.8375 48.0074C13.0635 47.284 12.4021 44.7805 12.4021 44.7805C12.4021 44.7805 10.4347 46.4715 10.2088 47.1948C10.1451 47.3694 10.1177 47.555 10.1281 47.7405C10.1386 47.926 10.1867 48.1074 10.2696 48.2738C10.3525 48.4401 10.4685 48.588 10.6104 48.7085C10.7524 48.8289 10.9174 48.9194 11.0954 48.9744C11.2735 49.0295 11.4609 49.0479 11.6464 49.0287C11.8318 49.0095 12.0114 48.9529 12.1743 48.8625C12.3372 48.7721 12.4799 48.6497 12.5939 48.5027C12.7079 48.3557 12.7908 48.1872 12.8375 48.0074Z" fill="#2172A7"/>
<path d="M19.1658 46.4111C19.1658 45.6535 17.7812 43.4629 17.7812 43.4629C17.7812 43.4629 16.4117 45.659 16.4131 46.4193C16.4142 46.7834 16.5604 47.132 16.8195 47.3887C17.0787 47.6453 17.4296 47.7889 17.7949 47.7878C18.1603 47.7867 18.5103 47.641 18.7679 47.3828C19.0255 47.1247 19.1696 46.7751 19.1685 46.4111H19.1658Z" fill="#2172A7"/>
<path d="M25.1024 44.0284C25.2292 43.2817 24.2372 40.8893 24.2372 40.8893C24.2372 40.8893 22.5137 42.8274 22.3883 43.574C22.346 43.9243 22.4407 44.2774 22.6527 44.56C22.8648 44.8426 23.178 45.033 23.5272 45.0916C23.8764 45.1502 24.2349 45.0726 24.5282 44.8749C24.8216 44.6772 25.0272 44.3745 25.1024 44.0297V44.0284Z" fill="#2172A7"/>
<path d="M32.9321 27.249C32.9321 27.249 27.2683 24.1498 25.5847 19.4022C24.893 17.4058 23.5698 15.6869 21.8138 14.5036C20.9759 13.9481 20.0886 13.4703 19.1631 13.0762" stroke="#65BFD4" stroke-width="2" stroke-miterlimit="10"/>
<path d="M18.0884 10.0909C18.6243 10.6276 19.2016 13.1517 19.2016 13.1517C19.2016 13.1517 16.6721 12.5615 16.1361 12.0235C15.8995 11.7616 15.7729 11.4192 15.7828 11.0669C15.7926 10.7147 15.938 10.3798 16.1889 10.1314C16.4398 9.88305 16.7769 9.74033 17.1305 9.7328C17.4841 9.72526 17.8271 9.8535 18.0884 10.0909Z" fill="#2172A7"/>
<path d="M22.6691 11.4676C22.8261 12.2088 21.9347 14.6395 21.9347 14.6395C21.9347 14.6395 20.1341 12.7742 19.977 12.0317C19.9304 11.8521 19.9208 11.665 19.9488 11.4816C19.9768 11.2982 20.0418 11.1224 20.1399 10.9648C20.238 10.8071 20.3672 10.6709 20.5196 10.5644C20.672 10.4579 20.8445 10.3832 21.0267 10.345C21.2089 10.3067 21.397 10.3057 21.5796 10.3419C21.7622 10.378 21.9356 10.4507 22.0892 10.5555C22.2428 10.6603 22.3735 10.795 22.4734 10.9516C22.5733 11.1081 22.6404 11.2832 22.6705 11.4662L22.6691 11.4676Z" fill="#2172A7"/>
<path d="M27.6701 16.627C27.4304 17.3448 25.4285 18.996 25.4285 18.996C25.4285 18.996 24.8196 16.4801 25.0593 15.7609C25.1746 15.4151 25.4231 15.1291 25.75 14.9657C26.077 14.8024 26.4557 14.7752 26.8028 14.89C27.15 15.0049 27.4371 15.2524 27.601 15.5781C27.7649 15.9039 27.7923 16.2812 27.677 16.627H27.6701Z" fill="#2172A7"/>
<path d="M30.5746 21.3691C30.4603 22.1171 28.767 24.0812 28.767 24.0812C28.767 24.0812 27.7393 21.704 27.8536 20.9559C27.8727 20.7711 27.9292 20.592 28.0198 20.4295C28.1104 20.2671 28.2332 20.1246 28.3807 20.0109C28.5282 19.8971 28.6973 19.8143 28.8779 19.7676C29.0584 19.7209 29.2466 19.7112 29.431 19.7391C29.6155 19.767 29.7923 19.832 29.9508 19.93C30.1093 20.028 30.2461 20.1571 30.353 20.3093C30.46 20.4616 30.5347 20.6339 30.5728 20.8159C30.6109 20.9978 30.6115 21.1855 30.5746 21.3677V21.3691Z" fill="#2172A7"/>
<path d="M19.9879 16.7738C20.7484 16.7656 22.9362 15.3683 22.9362 15.3683C22.9362 15.3683 20.7167 14.0232 19.9562 14.0315C19.5908 14.0357 19.2421 14.1843 18.9867 14.4446C18.7313 14.705 18.5901 15.0558 18.5943 15.4198C18.5985 15.7838 18.7477 16.1313 19.0091 16.3857C19.2704 16.6401 19.6225 16.7807 19.9879 16.7766V16.7738Z" fill="#2172A7"/>
<path d="M23.4544 22.2832C24.1763 22.0485 25.8448 20.0638 25.8448 20.0638C25.8448 20.0638 23.3222 19.442 22.6002 19.6767C22.4221 19.7274 22.256 19.8133 22.112 19.9294C21.9679 20.0454 21.8488 20.1892 21.7619 20.3522C21.6749 20.5152 21.6218 20.6939 21.6058 20.8778C21.5897 21.0617 21.6111 21.2469 21.6686 21.4223C21.726 21.5978 21.8184 21.7599 21.9402 21.899C22.0621 22.0381 22.2108 22.1512 22.3775 22.2317C22.5442 22.3122 22.7255 22.3584 22.9105 22.3674C23.0956 22.3765 23.2806 22.3483 23.4544 22.2845V22.2832Z" fill="#2172A7"/>
<path d="M27.5599 27.1777C28.3122 27.0679 30.2933 25.3934 30.2933 25.3934C30.2933 25.3934 27.9126 24.3557 27.1618 24.4655C26.9768 24.4845 26.7977 24.5406 26.6351 24.6304C26.4725 24.7202 26.3298 24.8418 26.2157 24.988C26.1015 25.1342 26.0182 25.3018 25.9708 25.4809C25.9234 25.66 25.9129 25.8468 25.9399 26.03C25.9669 26.2133 26.0308 26.3892 26.1278 26.5472C26.2248 26.7052 26.353 26.8419 26.5044 26.9493C26.6559 27.0566 26.8277 27.1323 27.0093 27.1718C27.1909 27.2113 27.3787 27.2138 27.5613 27.1791L27.5599 27.1777Z" fill="#2172A7"/>
<path d="M71.9094 102.448C99.454 102.448 121.783 80.2027 121.783 52.7619C121.783 25.321 99.454 3.07587 71.9094 3.07587C44.3649 3.07587 22.0356 25.321 22.0356 52.7619C22.0356 80.2027 44.3649 102.448 71.9094 102.448Z" fill="url(#paint0_linear)"/>
<path d="M71.9095 101.624C98.9975 101.624 120.957 79.7478 120.957 52.7618C120.957 25.7758 98.9975 3.89935 71.9095 3.89935C44.8215 3.89935 22.8623 25.7758 22.8623 52.7618C22.8623 79.7478 44.8215 101.624 71.9095 101.624Z" fill="#65BFD4"/>
<path d="M71.9091 91.6048C93.4426 91.6048 110.899 74.2142 110.899 52.7619C110.899 31.3095 93.4426 13.9189 71.9091 13.9189C50.3757 13.9189 32.9194 31.3095 32.9194 52.7619C32.9194 74.2142 50.3757 91.6048 71.9091 91.6048Z" fill="#DDE1EC"/>
<path opacity="0.3" d="M73.0115 20.7816H70.8071V55.0951H73.0115V20.7816Z" fill="#FFAA81"/>
<g opacity="0.1">
<path opacity="0.1" d="M105.388 51.9384H74.2515V54.6835H105.388V51.9384Z" fill="black"/>
<path opacity="0.1" d="M52.2685 41.6682L50.9902 44.1L70.5817 54.321L71.86 51.8892L52.2685 41.6682Z" fill="black"/>
<path opacity="0.1" d="M71.9091 57.4286C74.1917 57.4286 76.0422 55.585 76.0422 53.3109C76.0422 51.0368 74.1917 49.1933 71.9091 49.1933C69.6264 49.1933 67.7759 51.0368 67.7759 53.3109C67.7759 55.585 69.6264 57.4286 71.9091 57.4286Z" fill="black"/>
</g>
<path d="M105.388 51.3893H74.2515V54.1344H105.388V51.3893Z" fill="#FFAA81"/>
<path d="M71.8689 51.3433L52.2773 41.1223L50.999 43.5541L70.5906 53.7751L71.8689 51.3433Z" fill="#FFAA81"/>
<path d="M71.9091 56.8795C74.1917 56.8795 76.0422 55.036 76.0422 52.7619C76.0422 50.4878 74.1917 48.6442 71.9091 48.6442C69.6264 48.6442 67.7759 50.4878 67.7759 52.7619C67.7759 55.036 69.6264 56.8795 71.9091 56.8795Z" fill="#FFAA81"/>
<g opacity="0.1">
<path opacity="0.1" d="M35.9476 57.4285C35.9476 35.9757 53.4034 18.5856 74.9373 18.5856C80.9813 18.5803 86.9436 19.977 92.3518 22.6652C97.76 25.3534 102.466 29.2593 106.096 34.0733C99.4609 22.0609 86.648 13.9189 71.9063 13.9189C50.3724 13.9189 32.9165 31.309 32.9165 52.7619C32.9039 61.1895 35.6552 69.3905 40.7517 76.117C37.5911 70.392 35.9382 63.9623 35.9476 57.4285Z" fill="black"/>
</g>
<path d="M107.934 24.1883C107.471 23.745 103.575 26.6589 103.575 26.6589C103.575 26.6589 102.188 26.9114 102.518 27.8598C102.849 28.8083 101.065 34.12 101.065 34.12L100.339 33.1084C100.409 31.9212 100.081 31.0798 99.7613 30.5555C99.7352 30.513 99.709 30.4718 99.6828 30.4334L99.8096 30.3894C99.7613 29.7416 98.7211 28.7547 98.1687 28.2716C98.1687 28.2016 98.1687 28.1344 98.1687 28.063C98.2031 27.2889 98.5145 26.4722 98.1687 25.7708C97.7774 24.9706 96.6325 24.5685 96.5361 23.6901C96.4782 23.1658 96.8337 22.6922 96.9907 22.1871C97.3655 20.9793 96.587 19.7468 95.8431 18.7064C95.5911 18.3163 95.2844 17.9641 94.9324 17.6605C94.597 17.4163 94.2288 17.2203 93.8385 17.0785C92.7487 16.6393 91.6341 16.4183 90.5099 16.1178C89.4311 15.8323 88.4364 15.6964 87.3411 16.0546C87.0812 16.1244 86.8438 16.2602 86.6522 16.4485C86.3918 16.7395 86.3574 17.154 86.1866 17.5013C85.911 18.0599 85.3172 18.3934 84.7923 18.7517C84.2674 19.1099 83.7411 19.6013 83.7383 20.2189C83.7383 21.096 84.7441 21.6477 85.0802 22.4644C85.3944 23.2248 85.0802 24.0716 84.9053 24.8732C84.8322 25.1323 84.8251 25.4054 84.8846 25.6679C84.954 25.8635 85.0586 26.0449 85.1932 26.2032C85.4013 26.4777 85.6244 26.733 85.8463 26.9938L85.7443 27.0336C83.8954 26.8442 82.7064 29.183 82.7064 29.183C82.7918 29.2008 82.8731 29.2214 82.953 29.2447L82.8745 29.3463C82.3158 30.0691 81.8592 30.8648 81.5174 31.7112L80.0019 33.7343C80.0019 33.7343 79.6713 28.6751 80.4649 27.5373C81.2584 26.3995 79.7388 25.7036 79.7388 25.7036C79.7388 25.7036 76.4322 22.0362 75.9735 22.3518C75.5147 22.6675 77.0963 26.652 78.4837 27.2847C78.4837 27.2847 78.6214 28.5489 78.3459 29.371C78.1792 29.8912 77.2892 35.3786 77.2892 35.3786C77.2892 35.3786 76.497 39.9945 80.1301 37.7119C82.4901 36.2323 84.0153 33.6849 84.7923 32.0845C84.8465 31.972 84.8975 31.8645 84.9452 31.762C84.9811 31.9317 85.0055 32.1037 85.0182 32.2767L85.156 37.5651C85.1909 38.8731 84.9043 40.1699 84.3211 41.3423L82.7023 44.6131L82.8828 44.668L82.7739 44.8245C81.7076 46.3878 79.8945 49.9029 83.6267 51.694L88.5866 52.3268L88.322 53.5909C88.322 53.5909 86.2747 57.4477 85.6796 60.1036C85.3099 61.73 84.7325 63.3024 83.9615 64.7826L84.1145 64.8636C84.0828 64.8992 84.0497 64.9363 84.018 64.9747C83.7173 65.3117 83.5185 65.7267 83.4449 66.1716L82.7725 67.1214C82.7725 67.1214 82.508 71.0414 83.0371 71.9912C83.3264 72.51 84.2867 72.8394 85.1037 73.0315C86.3161 73.3184 87.2943 72.0708 86.6509 71.0427L86.6426 71.029H86.6302C86.4924 70.3908 86.0708 68.4102 86.2086 67.658C86.2472 67.4439 86.283 67.2312 86.3009 67.0143C86.3341 66.7293 86.421 66.4532 86.5572 66.2004C86.5792 66.1579 86.6026 66.1167 86.6261 66.0755L86.6977 66.1057C86.9195 66.2004 87.1386 66.2896 87.3466 66.3679C87.0242 66.6602 86.7955 67.2655 87.0711 68.5104C87.0711 68.5104 87.0972 71.6247 87.3356 72.1147C87.5739 72.6047 90.2412 73.2525 90.7041 72.7474C91.1671 72.2423 90.4066 70.502 90.4066 70.502L90.3831 70.5184C90.2302 69.5096 90.0414 67.7033 90.5057 66.9924C90.6931 66.7055 90.875 66.409 91.0375 66.1318L91.1381 65.9602C92.0006 66.3884 92.9126 66.711 93.4114 66.4873C93.4114 66.4873 95.5909 61.4281 95.4587 60.7967C95.3264 60.1653 98.8272 53.0185 98.8272 53.0185C98.8272 53.0185 101.799 49.7244 98.1673 47.4542C97.0141 46.7309 96.1737 46.245 95.5634 45.917L95.0523 43.2543C94.7895 41.8583 94.8365 40.422 95.19 39.0461L95.7411 36.9516L95.7866 36.7731C95.7866 36.7731 97.174 33.9278 97.1078 32.5992C97.1027 32.496 97.1143 32.3927 97.1423 32.2932C97.1574 32.3563 97.174 32.4222 97.1919 32.4908C97.5564 33.8717 98.0366 35.2197 98.6275 36.5206C99.6814 38.8896 101.245 38.7015 102.102 38.3653C102.286 38.2945 102.448 38.1795 102.576 38.0305C102.704 37.8814 102.792 37.7031 102.834 37.5116C103.142 36.0374 103.99 31.9075 104.043 30.7669C104.091 29.875 104.202 28.9876 104.374 28.111C106.548 26.8442 108.397 24.6316 107.934 24.1883Z" fill="url(#paint1_linear)"/>
<path d="M91.7611 64.7084C91.7611 64.7084 91.4704 65.289 91.0722 65.9863C90.9165 66.2608 90.7429 66.5559 90.5652 66.84C89.9356 67.8433 90.5652 71.04 90.5652 71.04L89.1875 71.228L87.8097 70.5417L87.5576 68.2221V66.5257L89.1282 64.7757L89.8171 64.0181L91.7611 64.7084Z" fill="#F8BDC5"/>
<g opacity="0.1">
<path opacity="0.1" d="M91.7611 64.7084C91.7611 64.7084 91.4704 65.289 91.0722 65.9863C90.464 65.6625 89.876 65.3022 89.3115 64.9075L89.1902 64.8224L89.1255 64.7757L89.8143 64.0181L91.7611 64.7084Z" fill="black"/>
</g>
<path d="M98.4967 52.9842C98.4967 52.9842 95.1612 60.0679 95.2879 60.6952C95.4147 61.3224 93.3371 66.3377 93.3371 66.3377C92.8631 66.56 91.9924 66.2402 91.1713 65.8161C90.5521 65.4873 89.9539 65.1206 89.3802 64.7181L89.259 64.633L89.186 64.5808L94.6611 49.4719L89.817 45.9321L89.4588 45.67L87.293 44.0778L93.9061 45.2692C93.9061 45.2692 94.1361 45.2404 95.3527 45.9184C95.9368 46.2437 96.7483 46.7309 97.8698 47.4639C101.327 49.7245 98.4967 52.9842 98.4967 52.9842Z" fill="#3F3D56"/>
<g opacity="0.03">
<path opacity="0.03" d="M98.4967 52.9842C98.4967 52.9842 95.1612 60.0679 95.2879 60.6952C95.4147 61.3224 93.3371 66.3377 93.3371 66.3377C92.8631 66.56 91.9924 66.2402 91.1713 65.8161C90.5521 65.4873 89.9539 65.1206 89.3802 64.7181L89.259 64.633L89.186 64.5808L94.6611 49.4719L89.817 45.9321L89.4588 45.67L87.293 44.0778L93.9061 45.2692C93.9061 45.2692 94.1361 45.2404 95.3527 45.9184C95.9368 46.2437 96.7483 46.7309 97.8698 47.4639C101.327 49.7245 98.4967 52.9842 98.4967 52.9842Z" fill="black"/>
</g>
<path d="M88.3635 65.9616C88.3635 65.9616 86.7268 65.7104 87.2944 68.3443C87.2944 68.3443 87.3192 71.4325 87.5466 71.9129C87.7739 72.3933 90.3158 73.0411 90.7553 72.5402C91.1948 72.0392 90.4715 70.3153 90.4715 70.3153C90.4715 70.3153 88.6157 71.6631 88.1114 70.2206C87.6072 68.778 88.3635 65.9616 88.3635 65.9616Z" fill="#5D3E53"/>
<path d="M87.2296 65.4606C87.051 65.63 86.9057 65.8311 86.8011 66.0536C86.6711 66.3055 86.5884 66.579 86.5572 66.8606C86.5407 67.0747 86.5063 67.2875 86.4704 67.4988C86.3134 68.3924 86.9155 71.04 86.9155 71.04L84.5237 71.4161L83.6433 70.4759L83.4546 68.4075C83.6895 67.6983 83.8168 66.9581 83.8321 66.2114C83.8321 65.672 84.1076 65.1902 84.3832 64.8389C84.57 64.6044 84.7841 64.3929 85.0211 64.2089C85.0211 64.2089 87.7338 65.0214 87.2296 65.4606Z" fill="#F8BDC5"/>
<g opacity="0.1">
<path opacity="0.1" d="M87.2296 65.4606C87.051 65.63 86.9057 65.8311 86.8011 66.0536C85.8215 65.613 84.7924 65.0571 84.4176 64.8512L84.3887 64.8361C84.5755 64.6017 84.7896 64.3902 85.0266 64.2061C85.0266 64.2061 87.7338 65.0214 87.2296 65.4606Z" fill="black"/>
</g>
<path d="M94.9711 51.1039C94.9711 51.1039 93.3991 54.0507 92.3906 56.4952C91.7293 58.1011 90.3626 61.925 89.4974 64.3599L89.3707 64.7195C88.9904 65.7969 88.7369 66.5257 88.7369 66.5257C88.5693 66.5269 88.4025 66.5023 88.2423 66.453C88.0935 66.4132 87.9268 66.3597 87.7491 66.2938L87.5493 66.2183C87.3509 66.1414 87.136 66.0522 86.9307 65.9589C85.9305 65.5142 84.8641 64.935 84.477 64.7236L84.3309 64.6426C85.0693 63.1688 85.6205 61.609 85.9718 59.9993C86.538 57.3668 88.4889 53.5484 88.4889 53.5484L88.741 52.2939L84.0209 51.6666C80.465 49.896 82.1927 46.4057 83.2081 44.8561C83.3812 44.5871 83.5684 44.3273 83.7688 44.0778L87.5452 44.9013C87.5452 44.9013 88.1403 45.0908 89.463 45.6741L90.0705 45.9486C90.8118 46.2876 91.7238 46.7241 92.826 47.2841C96.5431 49.1562 94.9711 51.1039 94.9711 51.1039Z" fill="#3F3D56"/>
<path d="M86.8921 70.852C87.0268 71.078 87.0913 71.3387 87.0775 71.6012C87.0637 71.8637 86.9722 72.1163 86.8145 72.327C86.6569 72.5378 86.4401 72.6974 86.1916 72.7856C85.9431 72.8739 85.6739 72.8869 85.4179 72.8229C84.645 72.6322 83.7289 72.3055 83.4533 71.7908C82.9504 70.8506 83.2012 66.9636 83.2012 66.9636L83.8625 65.9918C83.8625 65.9918 83.5167 70.2865 84.3351 70.6585C85.1534 71.0304 86.8839 70.8328 86.8839 70.8328L86.8921 70.852Z" fill="#5D3E53"/>
<path d="M87.5615 16.3333C87.3101 16.4029 87.0819 16.5379 86.9001 16.7244C86.6522 17.0127 86.6246 17.4244 86.4565 17.7689C86.1947 18.318 85.6299 18.6542 85.1284 19.0042C84.6269 19.3542 84.1268 19.847 84.124 20.4591C84.124 21.3293 85.0884 21.8756 85.4026 22.684C85.7015 23.4389 85.4026 24.2775 85.2359 25.0722C85.1663 25.3295 85.1597 25.5997 85.2166 25.8601C85.2823 26.0532 85.3821 26.2331 85.5114 26.3912C86.119 27.2148 86.874 27.945 87.2804 28.8824C87.589 29.5948 87.6744 30.3812 87.7557 31.154C87.8728 32.2657 87.9899 33.3981 87.7778 34.4961C87.7571 34.5618 87.7571 34.6322 87.7778 34.6979C87.8139 34.7608 87.8709 34.8094 87.939 34.8351C88.3399 35.0292 88.776 35.1405 89.2212 35.1623C89.6664 35.1842 90.1114 35.1161 90.5295 34.9623C90.9476 34.8084 91.3302 34.5719 91.6543 34.2671C91.9783 33.9622 92.2371 33.5951 92.4152 33.1881C92.6907 32.5663 92.7968 31.8155 93.3424 31.412C93.4061 31.3595 93.4826 31.3249 93.5642 31.3118C93.6929 31.3153 93.8175 31.3569 93.9224 31.4312C94.6306 31.8128 95.4889 31.8238 96.2783 31.6673C96.755 31.5726 97.2427 31.4038 97.5582 31.0332C98.1796 30.2975 97.8338 29.1981 97.8751 28.2387C97.9082 27.4714 98.2044 26.6616 97.8751 25.9671C97.5031 25.1738 96.4106 24.7758 96.3197 23.9083C96.2646 23.3895 96.6035 22.9187 96.7537 22.4191C97.1105 21.2209 96.3693 19.9993 95.6611 18.9685C95.4229 18.584 95.1311 18.2351 94.7945 17.9323C94.4769 17.6913 94.1261 17.4972 93.753 17.3558C92.7155 16.9207 91.6574 16.7011 90.5842 16.4046C89.5564 16.1123 88.6099 15.9764 87.5615 16.3333Z" fill="#85555C"/>
<path d="M92.8311 34.2395H89.1802V28.3458C89.2886 27.7797 89.3522 27.2061 89.3703 26.6301C89.3703 26.4366 89.3703 26.2389 89.3703 26.0399C89.3358 25.3372 89.1898 24.6358 88.8068 24.2076C87.7997 23.0793 92.0789 23.2674 92.0789 23.2674C92.2102 23.7854 92.3806 24.2929 92.5887 24.7854C92.8987 25.5539 93.3111 26.2773 93.8148 26.9362C94.258 27.5224 94.8259 28.0038 95.4778 28.3458C97.9907 29.6003 92.8311 34.2395 92.8311 34.2395Z" fill="#F8BDC5"/>
<g opacity="0.1">
<path opacity="0.1" d="M92.5848 24.7854C92.2141 25.2669 91.7183 25.6383 91.151 25.8594C90.5838 26.0805 89.9667 26.1429 89.3664 26.0399C89.3319 25.3372 89.1859 24.6358 88.8029 24.2076C87.7958 23.0793 92.075 23.2674 92.075 23.2674C92.2063 23.7854 92.3767 24.2929 92.5848 24.7854Z" fill="black"/>
</g>
<path d="M89.9356 25.9026C91.7777 25.9026 93.2711 24.4149 93.2711 22.5797C93.2711 20.7445 91.7777 19.2568 89.9356 19.2568C88.0935 19.2568 86.6001 20.7445 86.6001 22.5797C86.6001 24.4149 88.0935 25.9026 89.9356 25.9026Z" fill="#F8BDC5"/>
<path d="M103.78 28.2839C103.616 29.1534 103.511 30.0329 103.466 30.9165C103.415 32.0461 102.608 36.1417 102.313 37.6035C102.276 37.7909 102.193 37.9663 102.071 38.1141C101.949 38.2618 101.793 38.3773 101.616 38.4504C100.797 38.7839 99.3094 38.9705 98.3092 36.6221C97.7452 35.3299 97.2877 33.9941 96.9411 32.628C96.8185 32.1688 96.7264 31.7021 96.6655 31.2308L98.8699 30.0394C99.0774 30.2328 99.2531 30.4574 99.3907 30.7051C99.6951 31.2253 100.008 32.0598 99.9418 33.2361L100.631 34.2394C100.631 34.2394 102.329 28.9729 102.008 28.0328C101.687 27.0926 103.015 26.8414 103.015 26.8414C103.015 26.8414 106.728 23.9591 107.169 24.3969C107.61 24.8347 105.856 27.0294 103.78 28.2839Z" fill="#F8BDC5"/>
<path d="M85.7196 30.7916C85.5476 31.282 85.3499 31.7631 85.1272 32.2328C84.386 33.8208 82.9338 36.3504 80.6854 37.8135C77.2245 40.07 77.9795 35.4939 77.9795 35.4939C77.9795 35.4939 78.8268 30.0532 78.9866 29.5385C79.2388 28.7232 79.112 27.47 79.112 27.47C77.7908 26.8428 76.2808 22.894 76.7203 22.5797C77.1598 22.2654 80.3024 25.9026 80.3024 25.9026C80.3024 25.9026 81.7504 26.5889 80.9912 27.7212C80.2321 28.8536 80.5504 33.8647 80.5504 33.8647L82.0066 31.8622C82.3306 31.0266 82.7657 30.2381 83.3003 29.5179C83.5759 29.1432 83.7687 28.9167 83.7687 28.9167L85.7196 30.7916Z" fill="#F8BDC5"/>
<g opacity="0.1">
<path opacity="0.1" d="M99.3919 30.7051C98.929 30.8753 97.1365 31.5959 96.9381 32.6267C96.8155 32.1675 96.7235 31.7007 96.6626 31.2295L98.867 30.0381C99.076 30.2316 99.2532 30.4567 99.3919 30.7051Z" fill="black"/>
</g>
<g opacity="0.1">
<path opacity="0.1" d="M85.7196 30.7916C85.5476 31.282 85.3498 31.7631 85.1272 32.2328C85.0417 31.6124 84.6904 30.0257 83.3003 29.5138C83.5758 29.1391 83.7687 28.9126 83.7687 28.9126L85.7196 30.7916Z" fill="black"/>
</g>
<g opacity="0.1">
<path opacity="0.1" d="M92.8312 34.2394H89.1802V28.3457C89.2886 27.7797 89.3522 27.206 89.3703 26.6301C90.1212 27.352 89.9352 28.4706 89.9352 28.4706L91.886 32.8628L92.8312 28.9799L92.517 28.4789L93.8121 26.9444C94.2553 27.5307 94.8232 28.012 95.475 28.354C97.9908 29.6002 92.8312 34.2394 92.8312 34.2394Z" fill="black"/>
</g>
<g opacity="0.1">
<path opacity="0.1" d="M95.4104 46.2739C95.4104 46.2739 92.5503 46.0474 90.069 45.9404L89.8196 45.9294C89.4669 45.9157 89.1308 45.9047 88.8015 45.8964C86.3932 45.8388 83.6695 45.0002 83.2065 44.8533C83.3802 44.5852 83.5678 44.3264 83.7686 44.0778L87.545 44.9013C87.545 44.9013 88.1402 45.0908 89.4628 45.6741L87.2929 44.0778L93.906 45.2692C93.906 45.2692 94.1361 45.2404 95.3526 45.9184L95.4104 46.2739Z" fill="black"/>
</g>
<path d="M92.8315 29.2242L92.5174 28.7232L93.9144 27.0583C93.9144 27.0583 96.7952 28.4651 97.5502 28.1563C97.5502 28.1563 99.3757 29.6661 99.4377 30.539C99.4377 30.539 96.7952 31.4161 96.8572 32.7351C96.9192 34.0541 95.6035 36.8719 95.6035 36.8719L95.0524 39.1257C94.7133 40.4915 94.6663 41.9131 94.9146 43.2982L95.4175 46.0886C95.4175 46.0886 91.4524 45.7756 88.8044 45.7125C86.1564 45.6493 83.1405 44.6474 83.1405 44.6474L84.685 41.4096C85.2419 40.2411 85.5147 38.9584 85.4813 37.6653L85.3435 32.4235C85.3435 32.4235 85.2182 29.791 83.1392 29.3518C83.1392 29.3518 84.2717 27.0322 86.0324 27.2202C86.0324 27.2202 88.5977 26.1538 89.3596 26.8744C90.1215 27.5949 89.9341 28.7245 89.9341 28.7245L91.885 33.1167L92.8315 29.2242Z" fill="#FFAA81"/>
<g opacity="0.1">
<path opacity="0.1" d="M87.5284 21.8948C88.034 21.8948 88.4308 21.3609 88.9365 21.3883C89.1982 21.402 89.4228 21.5681 89.6391 21.7177C90.4564 22.2816 91.366 22.6996 92.327 22.953C92.7004 23.0518 93.0958 23.126 93.4706 23.0354C93.8453 22.9448 94.1966 22.6511 94.2393 22.2681C94.2498 22.0993 94.2274 21.9301 94.1732 21.7699C93.749 20.2975 92.7892 19.0354 91.4811 18.2301C90.9576 17.9103 90.3183 17.666 89.7383 17.8664C89.2148 18.0462 88.8772 18.5348 88.4983 18.937C88.2128 19.2381 87.8885 19.5002 87.5339 19.7166C87.2584 19.8826 86.8451 19.9911 86.6866 20.2958C86.3877 20.864 86.8575 21.8893 87.5284 21.8948Z" fill="black"/>
</g>
<path d="M87.5284 21.7699C88.034 21.7699 88.4308 21.2359 88.9365 21.2634C89.1982 21.2771 89.4228 21.4432 89.6391 21.5928C90.4564 22.1567 91.366 22.5746 92.327 22.8281C92.7004 22.9269 93.0958 23.001 93.4706 22.9104C93.8453 22.8198 94.1966 22.5261 94.2393 22.1432C94.2498 21.9744 94.2274 21.8052 94.1732 21.645C93.749 20.1725 92.7892 18.9105 91.4811 18.1052C90.9576 17.7854 90.3183 17.5411 89.7383 17.7414C89.2148 17.9212 88.8772 18.4099 88.4983 18.812C88.2128 19.1132 87.8885 19.3753 87.5339 19.5916C87.2584 19.7577 86.8451 19.8661 86.6866 20.1708C86.3877 20.7446 86.8575 21.763 87.5284 21.7699Z" fill="#85555C"/>
<path opacity="0.05" d="M86.0034 36.0882C86.0034 36.0882 89.0868 37.2164 91.101 36.3394L92.1081 36.4025C92.1081 36.4025 93.7821 37.5719 95.5525 37.049" fill="black"/>
<path opacity="0.05" d="M100.603 34.2078C100.603 34.2078 100.1 35.3992 100.351 35.7753L100.603 34.2078Z" fill="black"/>
<path opacity="0.05" d="M80.5283 33.8318C80.5283 33.8318 80.7805 35.0232 80.5283 35.3992V33.8318Z" fill="black"/>
<path d="M132.72 60.9793C132.72 60.9793 126.955 66.722 130.209 75.2428C133.464 83.7635 124.632 97.9336 124.632 97.9336C124.632 97.9336 124.727 97.9199 124.908 97.8897C136.747 95.8075 142.628 82.3196 136.045 72.2987C133.592 68.5722 131.583 64.202 132.72 60.9793Z" fill="#AEDEE9"/>
<path d="M132.72 60.9793C132.72 60.9793 129.465 68.0177 132.72 73.7604C135.974 79.5031 133.271 95.6181 124.631 97.9336" stroke="#FFAA81" stroke-miterlimit="10"/>
<path d="M142.828 84.13C142.828 84.13 136.251 83.0869 135.652 88.9586C135.052 94.8304 123 95.6443 123 95.6443L123.226 95.7939C133.173 102.3 142.684 99.9376 141.249 91.2988C140.72 88.0885 140.764 84.863 142.828 84.13Z" fill="#AEDEE9"/>
<path d="M142.986 84.2054C142.986 84.2054 137.88 85.3213 138.302 89.9468C138.724 94.5722 130.725 100.116 123.164 95.7211" stroke="#FFAA81" stroke-miterlimit="10"/>
<path d="M137.2 95.9338C137.2 95.9338 132.02 94.9016 130.638 93.525C129.256 92.1483 123.04 89.7409 122.349 91.4662C121.659 93.1915 113.025 99.0357 118.895 100.068C124.766 101.1 132.71 101.44 134.436 100.754C136.162 100.068 137.2 95.9338 137.2 95.9338Z" fill="#A8A8A8"/>
<path opacity="0.2" d="M118.895 99.4242C124.767 100.456 132.71 100.797 134.436 100.11C135.752 99.5861 136.665 97.0689 137.026 95.8967L137.198 95.9324C137.198 95.9324 136.162 100.061 134.436 100.749C132.71 101.436 124.766 101.093 118.895 100.062C117.2 99.7645 116.715 99.0645 116.899 98.1793C117.042 98.7571 117.633 99.2018 118.895 99.4242Z" fill="black"/>
</g>
<defs>
<linearGradient id="paint0_linear" x1="71.9094" y1="102.448" x2="71.9094" y2="3.07587" gradientUnits="userSpaceOnUse">
<stop stop-color="#808080" stop-opacity="0.25"/>
<stop offset="0.54" stop-color="#808080" stop-opacity="0.12"/>
<stop offset="1" stop-color="#808080" stop-opacity="0.1"/>
</linearGradient>
<linearGradient id="paint1_linear" x1="24110.6" y1="34143.4" x2="24110.6" y2="10275.6" gradientUnits="userSpaceOnUse">
<stop stop-color="#808080" stop-opacity="0.25"/>
<stop offset="0.54" stop-color="#808080" stop-opacity="0.12"/>
<stop offset="1" stop-color="#808080" stop-opacity="0.1"/>
</linearGradient>
<clipPath id="clip0">
<rect width="143" height="106" fill="white"/>
</clipPath>
</defs>
</svg>
