<svg width="159" height="137" viewBox="0 0 159 137" fill="none" xmlns="http://www.w3.org/2000/svg">
<path d="M148.093 107.39C148.035 109.569 147.671 111.728 147.012 113.805C146.997 113.853 146.981 113.901 146.965 113.949H142.931C142.935 113.906 142.939 113.858 142.944 113.805C143.213 110.704 144.764 91.8312 142.909 88.6036C143.071 88.8655 148.406 97.5374 148.093 107.39Z" fill="#65BFD4"/>
<path d="M147.791 113.805C147.757 113.853 147.722 113.902 147.686 113.949H144.659C144.682 113.908 144.709 113.86 144.74 113.805C145.24 112.9 146.72 110.195 148.093 107.39C149.57 104.377 150.924 101.248 150.81 100.116C150.845 100.371 151.867 108.156 147.791 113.805Z" fill="#65BFD4"/>
<path d="M159 113.673H42.9795V114.054H159V113.673Z" fill="#E6E6E6"/>
<path d="M117.243 125.555L117.807 120.893L133.729 116.797L131.897 111.287C133.173 107.618 135.413 105.819 139.505 107.614L146.545 111.999C147.229 112.425 147.787 113.028 148.159 113.744C148.531 114.46 148.705 115.263 148.661 116.069C148.618 116.879 148.358 117.662 147.908 118.335C147.458 119.009 146.835 119.548 146.105 119.896C138.224 123.642 128.179 125.075 117.243 125.555Z" fill="#F8BDC5"/>
<path d="M118.23 126.968L113.298 126.262L108.686 127.206C108.403 127.263 108.111 127.259 107.83 127.193C107.55 127.126 107.287 127 107.06 126.822C106.832 126.643 106.647 126.418 106.515 126.161C106.383 125.903 106.309 125.621 106.297 125.332C106.283 125.008 106.348 124.687 106.486 124.395C106.624 124.102 106.831 123.848 107.088 123.653L114.316 118.193C114.936 117.725 115.702 117.493 116.477 117.54C117.252 117.587 117.984 117.91 118.543 118.449L120.343 120.187C119.055 120.988 118.098 122.19 117.525 123.86C118.763 124.542 118.998 125.578 118.23 126.968Z" fill="#2F2E41"/>
<path d="M122.94 78.0231C125.458 78.0231 127.5 75.9759 127.5 73.4504C127.5 70.925 125.458 68.8777 122.94 68.8777C120.421 68.8777 118.379 70.925 118.379 73.4504C118.379 75.9759 120.421 78.0231 122.94 78.0231Z" fill="#F8BDC5"/>
<path d="M130.066 82.4679L119.851 86.7766C120.681 82.5971 121.095 78.7898 119.851 76.4639L126.402 75.6869C126.077 77.4744 127.735 79.8682 130.066 82.4679Z" fill="#F8BDC5"/>
<path d="M112.735 125.414L108.93 125.132C106.6 115.388 105.407 106.177 105.927 97.7719C106.001 96.5449 106.546 95.394 107.447 94.561C108.349 93.728 109.537 93.2775 110.763 93.304C111.941 93.3309 113.067 93.797 113.92 94.6113L118.84 99.3052C121.034 101.382 122.737 103.925 123.825 106.746C125.218 110.405 124.718 112.456 121.391 112.108C119.313 111.876 117.401 110.857 116.047 109.259L112.453 105.071L112.735 125.414Z" fill="#F8BDC5"/>
<path d="M109.789 136.993C109.29 136.96 108.806 136.813 108.373 136.563C107.941 136.312 107.571 135.965 107.294 135.548C107.016 135.132 106.838 134.656 106.774 134.16C106.709 133.663 106.759 133.158 106.92 132.684L107.663 130.5L108.226 124.99C109.094 123.214 110.324 123.48 111.749 124.849C112.655 124.76 112.849 123.852 112.735 122.589L115.591 126.444C115.836 126.774 115.988 127.164 116.031 127.572C116.074 127.981 116.007 128.394 115.837 128.768L112.962 135.09C112.688 135.693 112.238 136.197 111.671 136.537C111.105 136.877 110.448 137.036 109.789 136.993Z" fill="#2F2E41"/>
<path d="M145.776 111.499C140.562 114.466 138.928 114.552 133.729 116.655L129.22 114.113C123.925 116.076 120.21 113.385 116.187 109.38C118.819 104.983 117.655 99.2691 119.286 99.3498L138.801 105.495L139.646 107.614L145.776 111.499Z" fill="#2F2E41"/>
<path d="M139.506 106.908C132.616 109.898 125.197 106.732 118.864 99.7735L114.671 82.7953C114.622 82.6083 114.611 82.4131 114.64 82.2217C114.668 82.0303 114.736 81.8468 114.838 81.6825C114.94 81.5183 115.074 81.3767 115.233 81.2665C115.391 81.1563 115.571 81.0799 115.76 81.042L120.626 80.0663L123.021 83.8806L127.812 79.6425L132.899 81.3101C133.576 81.5318 134.179 81.9337 134.646 82.4727C135.112 83.0117 135.424 83.6676 135.547 84.3703L139.506 106.908Z" fill="#FFAA81"/>
<path opacity="0.2" d="M128.561 121.301C128.19 121.159 127.857 120.93 127.592 120.632C127.327 120.335 127.137 119.978 127.037 119.591C126.938 119.205 126.933 118.8 127.022 118.411C127.111 118.023 127.292 117.661 127.549 117.356L130.77 113.547L133.025 114.819L131.864 119.564C131.78 119.907 131.624 120.229 131.407 120.507C131.189 120.786 130.915 121.015 130.603 121.179C130.291 121.343 129.947 121.439 129.595 121.46C129.243 121.481 128.891 121.427 128.561 121.301Z" fill="black"/>
<path d="M128.561 120.736C128.19 120.594 127.857 120.365 127.592 120.067C127.327 119.77 127.137 119.413 127.037 119.026C126.938 118.64 126.933 118.235 127.022 117.846C127.111 117.457 127.292 117.096 127.549 116.791L130.77 112.982L133.025 114.254L131.864 118.999C131.78 119.342 131.624 119.664 131.407 119.942C131.189 120.221 130.915 120.45 130.603 120.614C130.291 120.778 129.947 120.874 129.595 120.895C129.243 120.916 128.891 120.862 128.561 120.736Z" fill="#F8BDC5"/>
<path d="M133.588 115.384L130.206 113.124L135.138 99.9854L133.306 81.479L134.977 82.5261C135.874 83.088 136.647 83.8267 137.251 84.6974C137.854 85.5681 138.275 86.5527 138.487 87.5913L141.196 100.833C140.011 106.937 138.035 112.307 133.588 115.384Z" fill="#FFAA81"/>
<path opacity="0.2" d="M131.545 94.4053L133.236 102.882L131.845 107.839L131.545 94.4053Z" fill="black"/>
<path d="M118.48 73.0583C118.48 73.0583 115.851 64.4345 123.884 66.2431C125.13 66.5237 126.206 67.2498 127.062 68.1995C127.139 68.2826 127.233 68.3478 127.337 68.3906C127.442 68.4334 127.555 68.4528 127.667 68.4474C128.95 68.4474 129.743 73.0446 127.177 75.0663C127.177 75.0663 127.7 72.3458 126.749 71.4189C126.577 71.262 126.434 71.0771 126.325 70.872C125.705 69.6191 123.623 69.2078 122.187 69.3145C121.454 69.3689 121.39 70.6507 120.578 70.4716C118.731 70.0643 118.141 72.2093 118.48 73.0583Z" fill="#2F2E41"/>
<path d="M126.565 85.8581L126.512 86.2486L126.183 88.6579L125.646 92.6035L125.511 93.5913C125.501 93.6668 125.464 93.7359 125.407 93.7859C125.349 93.836 125.276 93.8635 125.2 93.8635H121.616C121.54 93.8635 121.467 93.8361 121.41 93.7862C121.352 93.7363 121.315 93.6674 121.305 93.5921L121.168 92.6035L120.621 88.6579L120.287 86.2468L120.233 85.8589C120.227 85.8143 120.231 85.7689 120.243 85.7258C120.256 85.6827 120.278 85.6428 120.308 85.6088C120.337 85.5749 120.373 85.5477 120.414 85.529C120.455 85.5104 120.499 85.5007 120.544 85.5007H126.254C126.298 85.5008 126.343 85.5104 126.383 85.529C126.424 85.5476 126.461 85.5747 126.49 85.6086C126.52 85.6424 126.541 85.6822 126.554 85.7252C126.567 85.7683 126.571 85.8136 126.565 85.8581Z" fill="#E6E6E6"/>
<path d="M120.922 84.4554H125.894C125.935 84.4554 125.976 84.4636 126.014 84.4794C126.052 84.4952 126.087 84.5184 126.116 84.5476C126.145 84.5768 126.168 84.6115 126.184 84.6497C126.199 84.6879 126.208 84.7288 126.208 84.7702V85.186C126.208 85.2695 126.175 85.3495 126.116 85.4086C126.057 85.4676 125.977 85.5008 125.894 85.5008H120.922C120.839 85.5008 120.759 85.4676 120.7 85.4086C120.641 85.3495 120.608 85.2695 120.608 85.186V84.7702C120.608 84.7288 120.617 84.6879 120.632 84.6497C120.648 84.6115 120.671 84.5768 120.7 84.5476C120.73 84.5184 120.764 84.4952 120.802 84.4794C120.84 84.4636 120.881 84.4554 120.922 84.4554Z" fill="#3F3D56"/>
<path d="M127.013 86.0235C124.617 86.2857 122.199 86.2857 119.802 86.0235C119.761 86.0235 119.72 86.0153 119.682 85.9995C119.644 85.9837 119.609 85.9605 119.58 85.9313C119.551 85.902 119.528 85.8674 119.512 85.8292C119.496 85.791 119.488 85.75 119.488 85.7087V85.2929C119.488 85.2515 119.496 85.2106 119.512 85.1724C119.528 85.1342 119.551 85.0995 119.58 85.0703C119.609 85.0411 119.644 85.0179 119.682 85.0021C119.72 84.9863 119.761 84.9781 119.802 84.9781C122.197 85.2733 124.619 85.2733 127.013 84.9781C127.096 84.9781 127.176 85.0113 127.235 85.0703C127.294 85.1293 127.327 85.2094 127.327 85.2929V85.7087C127.327 85.7922 127.294 85.8722 127.235 85.9313C127.176 85.9903 127.096 86.0235 127.013 86.0235Z" fill="#3F3D56"/>
<path d="M123.262 90.8538C124.011 90.8538 124.617 90.2456 124.617 89.4953C124.617 88.745 124.011 88.1367 123.262 88.1367C122.514 88.1367 121.907 88.745 121.907 89.4953C121.907 90.2456 122.514 90.8538 123.262 90.8538Z" fill="white"/>
<path d="M126.745 92.3534C126.787 92.7502 126.732 93.1512 126.587 93.5226C126.442 93.894 126.21 94.2251 125.91 94.488C125.611 94.7509 125.253 94.938 124.867 95.0335C124.48 95.1291 124.077 95.1304 123.69 95.0372L118.847 93.8714L118.962 91.2807L123.71 90.1807C124.054 90.1011 124.411 90.0957 124.756 90.1647C125.102 90.2337 125.429 90.3757 125.716 90.5811C126.003 90.7865 126.244 91.0508 126.421 91.3563C126.598 91.6619 126.709 92.0017 126.745 92.3534Z" fill="#F8BDC5"/>
<path d="M120.202 94.3346L107.132 94.6622C106.66 94.674 106.192 94.5826 105.759 94.3942C105.326 94.2058 104.939 93.9251 104.625 93.5715C104.312 93.2179 104.079 92.8 103.943 92.3469C103.806 91.8938 103.771 91.4164 103.837 90.948C103.942 90.214 104.293 89.5379 104.833 89.0313L110.987 83.2594C112.128 82.1889 113.551 81.4669 115.087 81.1781L117.244 80.7726L118.512 90.379L111.185 89.5314L119.78 90.5203L120.202 94.3346Z" fill="#FFAA81"/>
<path d="M102.984 122.523H69.6159C69.3192 122.523 69.0346 122.405 68.8248 122.195C68.615 121.985 68.4971 121.699 68.4971 121.402C80.5928 119.992 92.4613 119.992 104.102 121.402C104.102 121.699 103.984 121.985 103.775 122.195C103.565 122.405 103.28 122.523 102.984 122.523Z" fill="#2F2E41"/>
<path d="M104.102 121.468L68.4971 121.402L72.6236 114.44L72.6433 114.407V99.0645C72.6433 98.8783 72.6799 98.6939 72.751 98.5219C72.822 98.3498 72.9262 98.1935 73.0576 98.0618C73.1889 97.9301 73.3448 97.8257 73.5164 97.7544C73.688 97.6831 73.8719 97.6465 74.0577 97.6465H98.3443C98.53 97.6465 98.714 97.6831 98.8856 97.7544C99.0572 97.8257 99.2131 97.9301 99.3444 98.0618C99.4758 98.1935 99.5799 98.3498 99.651 98.5219C99.7221 98.6939 99.7586 98.8783 99.7586 99.0645V114.513L104.102 121.468Z" fill="#3F3D56"/>
<path d="M74.0251 98.6363C73.903 98.6364 73.7859 98.6851 73.6995 98.7717C73.6132 98.8583 73.5646 98.9757 73.5645 99.0982V113.087C73.5646 113.21 73.6132 113.327 73.6995 113.414C73.7859 113.5 73.903 113.549 74.0251 113.549H98.5737C98.6958 113.549 98.8129 113.5 98.8993 113.414C98.9857 113.327 99.0342 113.21 99.0344 113.087V99.0982C99.0343 98.9757 98.9857 98.8583 98.8993 98.7717C98.8129 98.6852 98.6958 98.6364 98.5737 98.6363L74.0251 98.6363Z" fill="white"/>
<path d="M74.1868 115.397C74.149 115.397 74.1121 115.408 74.0803 115.428C74.0485 115.449 74.0232 115.478 74.0074 115.512L72.7359 118.284C72.722 118.314 72.716 118.347 72.7182 118.38C72.7205 118.413 72.7311 118.445 72.749 118.473C72.7668 118.501 72.7914 118.524 72.8205 118.54C72.8495 118.556 72.8821 118.564 72.9152 118.564H99.6544C99.6881 118.564 99.7212 118.556 99.7506 118.539C99.78 118.523 99.8047 118.499 99.8224 118.47C99.8401 118.442 99.8502 118.409 99.8517 118.375C99.8532 118.341 99.8461 118.308 99.831 118.278L98.4489 115.506C98.4326 115.473 98.4074 115.446 98.3762 115.426C98.345 115.407 98.309 115.397 98.2723 115.397L74.1868 115.397Z" fill="#2F2E41"/>
<path d="M86.2014 98.4054C86.365 98.4054 86.4976 98.2724 86.4976 98.1084C86.4976 97.9444 86.365 97.8115 86.2014 97.8115C86.0379 97.8115 85.9053 97.9444 85.9053 98.1084C85.9053 98.2724 86.0379 98.4054 86.2014 98.4054Z" fill="white"/>
<path d="M83.573 119.092C83.5296 119.092 83.4874 119.107 83.453 119.133C83.4185 119.16 83.3937 119.197 83.3824 119.239L83.0634 120.426C83.0556 120.456 83.0545 120.487 83.0604 120.516C83.0663 120.546 83.0789 120.574 83.0974 120.598C83.1158 120.622 83.1395 120.642 83.1667 120.655C83.1939 120.669 83.2238 120.676 83.2541 120.676H89.3197C89.3512 120.676 89.3822 120.668 89.4102 120.654C89.4382 120.639 89.4623 120.618 89.4805 120.593C89.4988 120.567 89.5106 120.537 89.5151 120.506C89.5196 120.475 89.5165 120.443 89.5062 120.413L89.0962 119.225C89.0827 119.186 89.0575 119.153 89.0241 119.129C88.9907 119.105 88.9506 119.092 88.9096 119.092H83.573Z" fill="#2F2E41"/>
<path d="M99.759 114.176V114.44H72.624L72.6443 114.407V114.176H99.759Z" fill="#2F2E41"/>
<path d="M61.1263 105.373C61.2009 108.165 61.6674 110.933 62.5121 113.595C62.5314 113.657 62.5516 113.717 62.5718 113.779H67.7432C67.7377 113.724 67.7322 113.662 67.7267 113.595C67.3818 109.62 65.3938 85.4304 67.7708 81.2937C67.563 81.6293 60.7254 92.7442 61.1263 105.373Z" fill="#65BFD4"/>
<path d="M61.515 113.595C61.5582 113.657 61.6033 113.718 61.6492 113.779H65.5287C65.4993 113.727 65.4653 113.665 65.4257 113.595C64.7848 112.435 62.8879 108.968 61.127 105.373C59.2346 101.51 57.4985 97.5005 57.6447 96.0493C57.5997 96.3766 56.2903 106.354 61.515 113.595Z" fill="#65BFD4"/>
<path d="M70.2648 29.7451L72.3673 28.0591C70.734 27.8784 70.0628 28.7715 69.7882 29.4784C68.5122 28.9472 67.123 29.6434 67.123 29.6434L71.3298 31.1746C71.1175 30.6063 70.7481 30.1104 70.2648 29.7451Z" fill="#3F3D56"/>
<path d="M133.59 21.0665L135.692 19.3805C134.059 19.1998 133.388 20.0929 133.113 20.7998C131.837 20.2686 130.448 20.9648 130.448 20.9648L134.655 22.496C134.443 21.9277 134.073 21.4318 133.59 21.0665Z" fill="#3F3D56"/>
<path d="M121.484 43.4408L123.586 41.7548C121.953 41.5741 121.282 42.4673 121.007 43.1742C119.731 42.6429 118.342 43.3392 118.342 43.3392L122.549 44.8703C122.336 44.302 121.967 43.8061 121.484 43.4408Z" fill="#3F3D56"/>
<path d="M38.9506 98.1657C49.2686 96.3005 54.5559 77.6769 50.7601 56.5687C46.9643 35.4605 35.5229 19.8609 25.2049 21.7261C14.8869 23.5913 9.59955 42.215 13.3953 63.3232C17.1911 84.4314 28.6326 100.031 38.9506 98.1657Z" fill="#65BFD4"/>
<path d="M28.9687 52.6767C30.6385 57.2291 32.1244 61.8435 33.4264 66.5199C34.726 71.1919 35.8376 75.911 36.7613 80.6774C37.6849 85.4421 38.4172 90.2388 38.9582 95.0674C39.4964 99.8876 39.8423 104.724 39.9957 109.577C40.1481 114.425 40.106 119.274 39.8694 124.123C39.8402 124.717 39.8081 125.311 39.7731 125.905C39.7374 126.514 40.6812 126.512 40.7168 125.905C41.002 121.04 41.0915 116.169 40.9852 111.292C40.8784 106.443 40.5781 101.604 40.0843 96.7736C39.5893 91.9293 38.9035 87.1095 38.0271 82.3143C37.15 77.5211 36.0823 72.7683 34.8238 68.0559C33.5661 63.3488 32.1199 58.6978 30.4854 54.1029C30.2859 53.5427 30.0837 52.9834 29.8787 52.4252C29.6709 51.8584 28.7585 52.1034 28.9687 52.6767V52.6767Z" fill="#3F3D56"/>
<path d="M35.471 70.5849L39.6519 61.2773L40.8303 58.6539C40.8897 58.5447 40.9053 58.4169 40.8739 58.2966C40.8424 58.1763 40.7663 58.0725 40.661 58.0067C40.5527 57.9443 40.4243 57.9271 40.3035 57.9589C40.1828 57.9906 40.0793 58.0688 40.0154 58.1764L35.8346 67.4839L34.6562 70.1073C34.5967 70.2165 34.5811 70.3443 34.6126 70.4647C34.6441 70.585 34.7202 70.6887 34.8254 70.7546C34.9337 70.8169 35.0621 70.8341 35.1829 70.8023C35.3037 70.7706 35.4072 70.6925 35.471 70.5849H35.471Z" fill="#3F3D56"/>
<path d="M36.3954 76.9446L26.8622 73.3609L24.1753 72.3509C24.0546 72.3186 23.9262 72.3351 23.8176 72.3969C23.709 72.4587 23.629 72.5609 23.5948 72.6813C23.5643 72.8022 23.5815 72.9302 23.6429 73.0387C23.7044 73.1471 23.8052 73.2276 23.9244 73.2632L33.4576 76.8469L36.1445 77.857C36.2652 77.8893 36.3937 77.8728 36.5022 77.8109C36.6108 77.7491 36.6908 77.647 36.725 77.5266C36.7555 77.4057 36.7383 77.2776 36.6769 77.1692C36.6154 77.0607 36.5146 76.9803 36.3954 76.9446V76.9446Z" fill="#3F3D56"/>
<path d="M28.9717 127.711C28.9717 127.711 40.4532 123.926 51.1484 127.711H28.9717Z" fill="#AEDEE9"/>
<path d="M80.3462 104.343C82.6214 104.319 84.8963 104.278 87.1713 104.247C87.9298 104.237 88.6883 104.228 89.4467 104.22C90.1003 104.213 90.102 103.194 89.4467 103.201C87.1716 103.225 84.8967 103.266 82.6217 103.297C81.8632 103.307 81.1047 103.316 80.3462 103.324C79.6927 103.331 79.691 104.35 80.3462 104.343Z" fill="#FFAA81"/>
<path d="M80.3462 106.72L89.5415 106.625L92.1567 106.597C92.8103 106.591 92.8119 105.572 92.1567 105.579L82.9614 105.674L80.3462 105.701C79.6927 105.708 79.691 106.727 80.3462 106.72Z" fill="#FFAA81"/>
<path d="M80.3462 109.098L89.5415 109.002L92.1567 108.975C92.8103 108.968 92.8119 107.949 92.1567 107.956L82.9614 108.052L80.3462 108.079C79.6927 108.086 79.691 109.105 80.3462 109.098Z" fill="#FFAA81"/>
</svg>
