<svg width="165" height="124" viewBox="0 0 165 124" fill="none" xmlns="http://www.w3.org/2000/svg">
<path d="M42.2978 46.4891C42.2978 46.4891 35.7003 34.8228 25.7582 31.4626C21.586 30.0515 17.9445 27.3983 15.4546 23.7719C14.2756 22.0498 13.2578 20.2232 12.4141 18.3151" stroke="#535461" stroke-width="2" stroke-miterlimit="10"/>
<path d="M6.16173 16.1585C7.29478 17.2547 12.5699 18.3896 12.5699 18.3896C12.5699 18.3896 11.2791 13.1618 10.1432 12.0656C9.59714 11.5496 8.86936 11.2692 8.11753 11.285C7.36571 11.3008 6.65041 11.6116 6.12665 12.15C5.6029 12.6884 5.31288 13.4111 5.31945 14.1614C5.32601 14.9118 5.62864 15.6293 6.16173 16.1585Z" fill="#65BFD4"/>
<path d="M9.14651 25.6166C10.6941 25.9228 15.744 24.0152 15.744 24.0152C15.744 24.0152 11.8113 20.3287 10.2623 20.0224C9.52618 19.8931 8.76851 20.0566 8.15174 20.478C7.53497 20.8994 7.10816 21.5451 6.96279 22.2767C6.81742 23.0083 6.96505 23.7676 7.37405 24.392C7.78305 25.0163 8.42087 25.4559 9.15082 25.6166H9.14651Z" fill="#65BFD4"/>
<path d="M20.0109 35.8518C21.5025 35.3366 24.8873 31.1478 24.8873 31.1478C24.8873 31.1478 19.6266 29.9471 18.1364 30.4623C17.7707 30.5756 17.4317 30.7611 17.1392 31.0077C16.8468 31.2543 16.607 31.557 16.4341 31.8979C16.2612 32.2387 16.1587 32.6108 16.1326 32.9919C16.1065 33.3731 16.1575 33.7556 16.2824 34.1167C16.4074 34.4778 16.6037 34.8102 16.8599 35.0942C17.116 35.3781 17.4267 35.6078 17.7736 35.7697C18.1204 35.9315 18.4963 36.0222 18.8789 36.0363C19.2615 36.0504 19.643 35.9876 20.0009 35.8518H20.0109Z" fill="#65BFD4"/>
<path d="M29.9804 41.7536C31.538 41.4974 35.5883 37.9412 35.5883 37.9412C35.5883 37.9412 30.6129 35.8647 29.0496 36.1208C28.301 36.244 27.6321 36.6588 27.19 37.2741C26.748 37.8894 26.569 38.6547 26.6924 39.4016C26.8159 40.1486 27.2316 40.816 27.8482 41.2571C28.4648 41.6982 29.2318 41.8768 29.9804 41.7536Z" fill="#65BFD4"/>
<path d="M20.1429 19.9308C20.1429 21.505 17.2888 26.0731 17.2888 26.0731C17.2888 26.0731 14.4289 21.5079 14.4275 19.9337C14.4189 19.5539 14.4866 19.1762 14.6263 18.8228C14.7661 18.4694 14.9753 18.1474 15.2415 17.8757C15.5077 17.6041 15.8256 17.3883 16.1765 17.2409C16.5275 17.0935 16.9044 17.0176 17.2852 17.0176C17.6659 17.0176 18.0429 17.0935 18.3938 17.2409C18.7448 17.3883 19.0627 17.6041 19.3289 17.8757C19.5951 18.1474 19.8043 18.4694 19.944 18.8228C20.0838 19.1762 20.1514 19.5539 20.1429 19.9337V19.9308Z" fill="#65BFD4"/>
<path d="M31.7101 26.9747C31.2382 28.4773 27.1435 31.9835 27.1435 31.9835C27.1435 31.9835 25.7838 26.7729 26.2542 25.2703C26.5048 24.579 27.0131 24.0109 27.6732 23.6845C28.3333 23.3582 29.0942 23.2987 29.7972 23.5185C30.5002 23.7384 31.0909 24.2206 31.4463 24.8645C31.8016 25.5084 31.894 26.2644 31.7043 26.9747H31.7101Z" fill="#65BFD4"/>
<path d="M42.0134 35.3609C41.7997 36.9208 38.3576 41.0681 38.3576 41.0681C38.3576 41.0681 36.1345 36.1623 36.3496 34.601C36.3944 34.2254 36.5135 33.8625 36.7002 33.5333C36.8868 33.204 37.1372 32.9152 37.4368 32.6834C37.7364 32.4517 38.0792 32.2817 38.4452 32.1835C38.8113 32.0852 39.1932 32.0605 39.5689 32.1109C39.9446 32.1613 40.3065 32.2857 40.6335 32.477C40.9605 32.6682 41.2462 32.9225 41.4738 33.2249C41.7014 33.5274 41.8665 33.872 41.9594 34.2387C42.0522 34.6054 42.0711 34.9869 42.0149 35.3609H42.0134Z" fill="#65BFD4"/>
<path opacity="0.25" d="M6.16173 16.1585C7.29478 17.2547 12.5699 18.3896 12.5699 18.3896C12.5699 18.3896 11.2791 13.1618 10.1432 12.0656C9.59714 11.5496 8.86936 11.2692 8.11753 11.285C7.36571 11.3008 6.65041 11.6116 6.12665 12.15C5.6029 12.6884 5.31288 13.4111 5.31945 14.1614C5.32601 14.9118 5.62864 15.6293 6.16173 16.1585Z" fill="black"/>
<path opacity="0.25" d="M9.14651 25.6166C10.6941 25.9228 15.744 24.0152 15.744 24.0152C15.744 24.0152 11.8113 20.3287 10.2623 20.0224C9.52618 19.8931 8.76851 20.0566 8.15174 20.478C7.53497 20.8994 7.10816 21.5451 6.96279 22.2767C6.81742 23.0083 6.96505 23.7676 7.37405 24.392C7.78305 25.0163 8.42087 25.4559 9.15082 25.6166H9.14651Z" fill="black"/>
<path opacity="0.25" d="M20.0109 35.8518C21.5025 35.3366 24.8873 31.1478 24.8873 31.1478C24.8873 31.1478 19.6266 29.9471 18.1364 30.4623C17.7707 30.5756 17.4317 30.7611 17.1392 31.0077C16.8468 31.2543 16.607 31.557 16.4341 31.8979C16.2612 32.2387 16.1587 32.6108 16.1326 32.9919C16.1065 33.3731 16.1575 33.7556 16.2824 34.1167C16.4074 34.4778 16.6037 34.8102 16.8599 35.0942C17.116 35.3781 17.4267 35.6078 17.7736 35.7697C18.1204 35.9315 18.4963 36.0222 18.8789 36.0363C19.2615 36.0504 19.643 35.9876 20.0009 35.8518H20.0109Z" fill="black"/>
<path opacity="0.25" d="M29.9804 41.7536C31.538 41.4974 35.5883 37.9412 35.5883 37.9412C35.5883 37.9412 30.6129 35.8647 29.0496 36.1208C28.301 36.244 27.6321 36.6588 27.19 37.2741C26.748 37.8894 26.569 38.6547 26.6924 39.4016C26.8159 40.1486 27.2316 40.816 27.8482 41.2571C28.4648 41.6982 29.2318 41.8768 29.9804 41.7536Z" fill="black"/>
<path opacity="0.25" d="M20.1429 19.9308C20.1429 21.505 17.2888 26.0731 17.2888 26.0731C17.2888 26.0731 14.4289 21.5079 14.4275 19.9337C14.4189 19.5539 14.4866 19.1762 14.6263 18.8228C14.7661 18.4694 14.9753 18.1474 15.2415 17.8757C15.5077 17.6041 15.8256 17.3883 16.1765 17.2409C16.5275 17.0935 16.9044 17.0176 17.2852 17.0176C17.6659 17.0176 18.0429 17.0935 18.3938 17.2409C18.7448 17.3883 19.0627 17.6041 19.3289 17.8757C19.5951 18.1474 19.8043 18.4694 19.944 18.8228C20.0838 19.1762 20.1514 19.5539 20.1429 19.9337V19.9308Z" fill="black"/>
<path opacity="0.25" d="M31.7101 26.9747C31.2382 28.4773 27.1435 31.9835 27.1435 31.9835C27.1435 31.9835 25.7838 26.7729 26.2542 25.2703C26.5048 24.579 27.0131 24.0109 27.6732 23.6845C28.3333 23.3582 29.0942 23.2987 29.7972 23.5185C30.5002 23.7384 31.0909 24.2206 31.4463 24.8645C31.8016 25.5084 31.894 26.2644 31.7043 26.9747H31.7101Z" fill="black"/>
<path opacity="0.25" d="M42.0134 35.3609C41.7997 36.9208 38.3576 41.0681 38.3576 41.0681C38.3576 41.0681 36.1345 36.1623 36.3496 34.601C36.3944 34.2254 36.5135 33.8625 36.7002 33.5333C36.8868 33.204 37.1372 32.9152 37.4368 32.6834C37.7364 32.4517 38.0792 32.2817 38.4452 32.1835C38.8113 32.0852 39.1932 32.0605 39.5689 32.1109C39.9446 32.1613 40.3065 32.2857 40.6335 32.477C40.9605 32.6682 41.2462 32.9225 41.4738 33.2249C41.7014 33.5274 41.8665 33.872 41.9594 34.2387C42.0522 34.6054 42.0711 34.9869 42.0149 35.3609H42.0134Z" fill="black"/>
<path d="M41.9171 46.2572C41.9171 46.2572 40.6263 32.9237 32.8986 25.8312C29.6587 22.8546 27.4069 18.9548 26.6023 14.6344C26.2247 12.5832 26.0365 10.5018 26.0401 8.41626" stroke="#535461" stroke-width="2" stroke-miterlimit="10"/>
<path d="M21.1996 3.91833C21.7906 5.37804 26.1521 8.55221 26.1521 8.55221C26.1521 8.55221 27.0915 3.25716 26.502 1.79029C26.2186 1.08812 25.6673 0.527043 24.9693 0.230481C24.2713 -0.0660818 23.4839 -0.0738334 22.7802 0.208931C22.0765 0.491696 21.5142 1.04181 21.2169 1.73827C20.9197 2.43472 20.912 3.22045 21.1953 3.92262L21.1996 3.91833Z" fill="#65BFD4"/>
<path d="M20.0867 13.7714C21.3775 14.6773 26.7659 14.9736 26.7659 14.9736C26.7659 14.9736 24.6662 10.0134 23.3754 9.10608C22.755 8.68273 21.9925 8.52022 21.2529 8.65373C20.5133 8.78724 19.8562 9.20604 19.4238 9.81944C18.9914 10.4329 18.8185 11.1915 18.9425 11.9312C19.0666 12.6708 19.4777 13.332 20.0867 13.7714Z" fill="#65BFD4"/>
<path d="M25.8637 27.5213C27.4413 27.653 32.2374 25.1944 32.2374 25.1944C32.2374 25.1944 27.916 21.9701 26.3427 21.8385C25.9641 21.7983 25.5813 21.8339 25.2168 21.9433C24.8522 22.0527 24.5132 22.2337 24.2197 22.4756C23.9262 22.7176 23.684 23.0155 23.5075 23.3521C23.331 23.6887 23.2236 24.057 23.1917 24.4356C23.1598 24.8141 23.204 25.1952 23.3217 25.5564C23.4394 25.9177 23.6282 26.2519 23.8771 26.5393C24.126 26.8267 24.43 27.0617 24.7711 27.2303C25.1122 27.399 25.4837 27.4979 25.8637 27.5213Z" fill="#65BFD4"/>
<path d="M32.5822 36.9422C34.1111 37.3386 39.2585 35.7244 39.2585 35.7244C39.2585 35.7244 35.5453 31.8175 34.0179 31.4225C33.2843 31.2327 32.5052 31.3415 31.852 31.7249C31.1988 32.1083 30.725 32.7349 30.5348 33.4668C30.3446 34.1988 30.4536 34.9761 30.8379 35.6279C31.2221 36.2797 31.8501 36.7525 32.5836 36.9422H32.5822Z" fill="#65BFD4"/>
<path d="M32.4454 13.0172C31.8072 14.4583 27.3409 17.4794 27.3409 17.4794C27.3409 17.4794 26.5808 12.1485 27.219 10.7088C27.5364 10.0339 28.1061 9.50977 28.806 9.24874C29.506 8.98772 30.2805 9.01054 30.9637 9.31232C31.647 9.61411 32.1847 10.1709 32.4616 10.8633C32.7386 11.5558 32.7327 12.329 32.4454 13.0172Z" fill="#65BFD4"/>
<path d="M40.1629 24.1354C39.1217 25.3189 33.9541 26.8688 33.9541 26.8688C33.9541 26.8688 34.8261 21.5551 35.8688 20.3716C36.1138 20.0811 36.4144 19.8422 36.7531 19.6692C37.0917 19.4961 37.4616 19.3922 37.8411 19.3636C38.2205 19.335 38.6019 19.3824 38.9627 19.5028C39.3236 19.6232 39.6568 19.8143 39.9426 20.0649C40.2285 20.3154 40.4614 20.6204 40.6276 20.962C40.7938 21.3036 40.8899 21.6748 40.9105 22.0539C40.931 22.433 40.8754 22.8125 40.747 23.1699C40.6187 23.5273 40.4201 23.8556 40.1629 24.1354Z" fill="#65BFD4"/>
<path d="M46.1784 35.9691C45.3523 37.3115 40.5218 39.71 40.5218 39.71C40.5218 39.71 40.4816 34.3262 41.3078 32.9838C41.7045 32.3386 42.3419 31.877 43.0797 31.7007C43.8174 31.5244 44.5952 31.6477 45.2419 32.0436C45.8885 32.4395 46.3511 33.0754 46.5278 33.8116C46.7045 34.5478 46.5809 35.3239 46.1842 35.9691H46.1784Z" fill="#65BFD4"/>
<path opacity="0.1" d="M91.7899 124C118.327 124 139.84 122.922 139.84 121.592C139.84 120.261 118.327 119.183 91.7899 119.183C65.2528 119.183 43.7402 120.261 43.7402 121.592C43.7402 122.922 65.2528 124 91.7899 124Z" fill="#65BFD4"/>
<path d="M38.1748 116.975C38.1748 116.975 32.1108 116.61 32.8251 120.849C32.8251 120.849 32.6817 121.599 33.3644 121.939C33.3644 121.939 33.3744 121.624 33.9854 121.732C34.2033 121.768 34.4247 121.778 34.6451 121.763C34.9424 121.743 35.2248 121.626 35.4497 121.431C35.4497 121.431 37.155 120.729 37.8176 117.948C37.8176 117.948 38.3081 117.343 38.2881 117.187L37.2655 117.616C37.2655 117.616 37.6154 118.351 37.34 118.964C37.34 118.964 37.3071 117.642 37.1106 117.676C37.0704 117.683 36.5785 117.931 36.5785 117.931C36.5785 117.931 37.1794 119.219 36.7219 120.147C36.7219 120.147 36.894 118.566 36.3863 118.024L35.6692 118.443C35.6692 118.443 36.3719 119.77 35.8958 120.85C35.8958 120.85 36.0177 119.192 35.5171 118.546L34.8646 119.054C34.8646 119.054 35.5257 120.359 35.1227 121.257C35.1227 121.257 35.0697 119.326 34.7226 119.18C34.7226 119.18 34.1489 119.682 34.0657 119.896C34.0657 119.896 34.5175 120.843 34.2364 121.344C34.2364 121.344 34.0643 120.056 33.9237 120.056C33.9237 120.056 33.35 120.907 33.2955 121.487C33.2955 121.487 33.3199 120.618 33.786 119.97C33.4575 120.031 33.1543 120.188 32.914 120.419C32.914 120.419 33.0029 119.817 33.9266 119.764C33.9266 119.764 34.397 119.119 34.5218 119.078C34.5218 119.078 33.6039 119.001 33.0474 119.249C33.0474 119.249 33.5379 118.676 34.691 118.938L35.335 118.413C35.335 118.413 34.1259 118.248 33.6139 118.43C33.6139 118.43 34.2034 117.928 35.5085 118.294L36.2056 117.873C36.2056 117.873 35.1758 117.653 34.5619 117.73C34.5619 117.73 35.2088 117.383 36.4121 117.76L36.9126 117.536C36.9126 117.536 36.1582 117.393 35.9374 117.364C35.7165 117.335 35.7036 117.28 35.7036 117.28C36.1819 117.2 36.6729 117.254 37.122 117.437C37.122 117.437 38.192 117.041 38.1748 116.975Z" fill="#65BFD4"/>
<path opacity="0.1" d="M33.9973 123.033C36.3673 123.033 38.2885 122.708 38.2885 122.308C38.2885 121.908 36.3673 121.584 33.9973 121.584C31.6273 121.584 29.7061 121.908 29.7061 122.308C29.7061 122.708 31.6273 123.033 33.9973 123.033Z" fill="#65BFD4"/>
<path d="M27.5503 117.201C27.5503 117.201 24.1325 116.995 24.5384 119.385C24.5176 119.506 24.5358 119.631 24.5904 119.741C24.645 119.851 24.7333 119.941 24.8424 119.999C24.8424 119.999 24.8424 119.823 25.1924 119.883C25.3151 119.903 25.4398 119.909 25.5638 119.9C25.7319 119.889 25.8917 119.823 26.0185 119.712C26.0185 119.712 26.9794 119.317 27.3523 117.749C27.3523 117.749 27.6291 117.408 27.6177 117.32L27.044 117.566C27.044 117.566 27.2405 117.981 27.0856 118.326C27.0856 118.326 27.0669 117.582 26.9565 117.599C26.9335 117.599 26.6567 117.742 26.6567 117.742C26.6567 117.742 26.9966 118.466 26.7399 118.991C26.7399 118.991 26.8374 118.1 26.5506 117.795L26.139 118.031C26.139 118.031 26.5348 118.778 26.2666 119.388C26.2666 119.388 26.3355 118.453 26.0544 118.09L25.6858 118.376C25.6858 118.376 26.0587 119.111 25.8292 119.617C25.8292 119.617 25.8005 118.529 25.604 118.446C25.4646 118.564 25.3403 118.698 25.234 118.847C25.234 118.847 25.4878 119.38 25.3301 119.662C25.3301 119.662 25.234 118.938 25.1537 118.934C25.1537 118.934 24.8324 119.415 24.7994 119.744C24.815 119.439 24.9104 119.142 25.0762 118.885C24.8911 118.92 24.7201 119.008 24.5843 119.139C24.5843 119.139 24.6345 118.799 25.158 118.769C25.158 118.769 25.4233 118.406 25.4936 118.383C25.4936 118.383 24.9758 118.34 24.6632 118.479C24.6632 118.479 24.9385 118.158 25.5882 118.304L25.9525 118.008C25.9525 118.008 25.2713 117.915 24.9815 118.018C24.9815 118.018 25.3143 117.732 26.0501 117.941L26.4459 117.705C26.1413 117.638 25.8294 117.611 25.518 117.624C25.518 117.624 25.8837 117.428 26.5621 117.642L26.8489 117.514C26.8489 117.514 26.4186 117.431 26.2982 117.418C26.1777 117.406 26.1677 117.371 26.1677 117.371C26.437 117.326 26.7138 117.356 26.9665 117.46C26.9665 117.46 27.5617 117.238 27.5503 117.201Z" fill="#65BFD4"/>
<path opacity="0.1" d="M25.1949 120.616C26.5312 120.616 27.6145 120.433 27.6145 120.208C27.6145 119.982 26.5312 119.8 25.1949 119.8C23.8587 119.8 22.7754 119.982 22.7754 120.208C22.7754 120.433 23.8587 120.616 25.1949 120.616Z" fill="#65BFD4"/>
<path d="M34.0544 112.132C34.0544 112.132 29.9267 111.884 30.4129 114.771C30.3879 114.917 30.4099 115.068 30.4759 115.201C30.5418 115.334 30.6483 115.443 30.78 115.512C30.78 115.512 30.7872 115.298 31.2103 115.369C31.3585 115.394 31.5092 115.401 31.6592 115.391C31.8602 115.378 32.0515 115.3 32.2042 115.169C32.2042 115.169 33.3645 114.691 33.8163 112.799C33.8163 112.799 34.149 112.387 34.1361 112.279L33.4405 112.577C33.4405 112.577 33.6772 113.078 33.4907 113.494C33.4907 113.494 33.4678 112.596 33.3344 112.616C33.3071 112.616 32.973 112.79 32.973 112.79C32.973 112.79 33.3817 113.663 33.0734 114.299C33.0734 114.299 33.1895 113.222 32.8439 112.853L32.3548 113.139C32.3548 113.139 32.8324 114.042 32.5083 114.778C32.5083 114.778 32.5915 113.649 32.2515 113.204L31.8069 113.55C31.8069 113.55 32.2559 114.439 31.9819 115.049C31.9819 115.049 31.9461 113.735 31.7108 113.636C31.7108 113.636 31.3222 113.978 31.2619 114.118C31.2619 114.118 31.5703 114.764 31.3795 115.104C31.3795 115.104 31.2619 114.228 31.1658 114.224C31.1658 114.224 30.7786 114.805 30.7356 115.202C30.7549 114.834 30.8701 114.478 31.0697 114.168C30.846 114.211 30.6396 114.318 30.476 114.476C30.476 114.476 30.5362 114.065 31.1658 114.03C31.1658 114.03 31.4857 113.589 31.5703 113.563C31.5703 113.563 30.9464 113.51 30.5663 113.678C30.5663 113.678 30.9005 113.291 31.685 113.467L32.1239 113.109C32.1239 113.109 31.3006 112.998 30.9521 113.121C30.9521 113.121 31.3537 112.779 32.2429 113.029L32.7205 112.743C32.7205 112.743 32.0192 112.6 31.6018 112.647C31.6018 112.647 32.0421 112.41 32.8611 112.667L33.2024 112.514C33.2024 112.514 32.689 112.414 32.5384 112.398C32.3878 112.382 32.3792 112.339 32.3792 112.339C32.7047 112.285 33.0388 112.323 33.3444 112.447C33.3444 112.447 34.0716 112.178 34.0544 112.132Z" fill="#65BFD4"/>
<path opacity="0.1" d="M31.2145 116.256C32.828 116.256 34.136 116.036 34.136 115.764C34.136 115.492 32.828 115.272 31.2145 115.272C29.601 115.272 28.293 115.492 28.293 115.764C28.293 116.036 29.601 116.256 31.2145 116.256Z" fill="#65BFD4"/>
<path d="M97.0948 118.324V119.443H63.9268V118.535C65.9495 117.787 67.7043 116.457 68.9692 114.714C70.2342 112.97 70.9522 110.892 71.0325 108.741C71.1128 106.59 70.5518 104.464 69.4204 102.631C68.289 100.799 66.6382 99.3423 64.6769 98.4464H96.874C95.3944 99.124 94.0856 100.123 93.0433 101.371C92.001 102.619 91.2516 104.083 90.8502 105.658C90.3108 107.777 90.4241 110.009 91.1752 112.063C91.9264 114.117 93.2806 115.898 95.0611 117.172C95.6957 117.628 96.3775 118.014 97.0948 118.324Z" fill="#C8CAD7"/>
<path opacity="0.1" d="M96.8739 98.4464C95.3944 99.124 94.0855 100.123 93.0432 101.371C92.0009 102.619 91.2516 104.083 90.8501 105.658H70.7035C70.302 104.083 69.5527 102.619 68.5104 101.371C67.4681 100.123 66.1592 99.124 64.6797 98.4464H96.8739Z" fill="black"/>
<path d="M25.9482 92.7449V99.0274C25.9482 102.496 28.4926 105.309 31.6321 105.309H129.215C132.354 105.309 134.898 102.496 134.898 99.0274V92.7449H25.9482Z" fill="#C8CAD7"/>
<path opacity="0.1" d="M97.0948 118.324V119.443H63.9268V118.535C64.8364 118.197 65.6969 117.74 66.4854 117.175H95.0611C95.6958 117.63 96.3776 118.015 97.0948 118.324Z" fill="black"/>
<path d="M106.691 117.524H54.3283C53.5758 117.524 52.9658 118.133 52.9658 118.884V119.481C52.9658 120.231 53.5758 120.84 54.3283 120.84H106.691C107.443 120.84 108.053 120.231 108.053 119.481V118.884C108.053 118.133 107.443 117.524 106.691 117.524Z" fill="#C8CAD7"/>
<path d="M134.898 23.905C134.898 22.4009 134.3 20.9583 133.234 19.8947C132.168 18.8311 130.722 18.2336 129.215 18.2336H31.6321C30.1247 18.2336 28.6789 18.8311 27.613 19.8947C26.5471 20.9583 25.9482 22.4009 25.9482 23.905V93.9671H134.898V23.905Z" fill="#474157"/>
<path d="M131.925 26.4409V86.637C131.925 87.0038 131.853 87.3669 131.713 87.7057C131.572 88.0446 131.366 88.3524 131.106 88.6117C130.846 88.8711 130.538 89.0767 130.198 89.217C129.858 89.3572 129.494 89.4293 129.127 89.4291H31.7181C31.3506 89.4293 30.9866 89.3572 30.6471 89.217C30.3075 89.0767 29.9989 88.8711 29.7391 88.6117C29.4792 88.3524 29.2731 88.0446 29.1325 87.7057C28.992 87.3669 28.9197 87.0038 28.9199 86.637V26.4409C28.9199 25.7004 29.2147 24.9903 29.7395 24.4666C30.2643 23.943 30.976 23.6489 31.7181 23.6489H129.127C129.869 23.6489 130.581 23.943 131.106 24.4666C131.63 24.9903 131.925 25.7004 131.925 26.4409Z" fill="white"/>
<path d="M80.4236 22.2492C81.1484 22.2492 81.736 21.663 81.736 20.9398C81.736 20.2166 81.1484 19.6303 80.4236 19.6303C79.6989 19.6303 79.1113 20.2166 79.1113 20.9398C79.1113 21.663 79.6989 22.2492 80.4236 22.2492Z" fill="white"/>
<path d="M80.4231 102.518C82.2101 102.518 83.6588 101.072 83.6588 99.2893C83.6588 97.5063 82.2101 96.0608 80.4231 96.0608C78.6361 96.0608 77.1875 97.5063 77.1875 99.2893C77.1875 101.072 78.6361 102.518 80.4231 102.518Z" fill="white"/>
<path d="M131.925 26.4409H28.9209C28.9207 26.0743 28.9929 25.7113 29.1334 25.3726C29.2738 25.0338 29.4798 24.726 29.7395 24.4667C29.9993 24.2074 30.3076 24.0018 30.647 23.8614C30.9865 23.7211 31.3503 23.6489 31.7177 23.6489H129.126C129.494 23.6487 129.858 23.7208 130.198 23.861C130.537 24.0013 130.846 24.2069 131.106 24.4662C131.365 24.7255 131.572 25.0334 131.712 25.3722C131.853 25.7111 131.925 26.0742 131.925 26.4409Z" fill="white"/>
<path d="M31.7185 25.7382C32.105 25.7382 32.4184 25.4256 32.4184 25.0399C32.4184 24.6542 32.105 24.3415 31.7185 24.3415C31.3319 24.3415 31.0186 24.6542 31.0186 25.0399C31.0186 25.4256 31.3319 25.7382 31.7185 25.7382Z" fill="#EDEDF4"/>
<path d="M33.8161 25.7382C34.2027 25.7382 34.516 25.4256 34.516 25.0399C34.516 24.6542 34.2027 24.3415 33.8161 24.3415C33.4296 24.3415 33.1162 24.6542 33.1162 25.0399C33.1162 25.4256 33.4296 25.7382 33.8161 25.7382Z" fill="#EDEDF4"/>
<path d="M35.9157 25.7382C36.3023 25.7382 36.6156 25.4256 36.6156 25.0399C36.6156 24.6542 36.3023 24.3415 35.9157 24.3415C35.5292 24.3415 35.2158 24.6542 35.2158 25.0399C35.2158 25.4256 35.5292 25.7382 35.9157 25.7382Z" fill="#EDEDF4"/>
<path d="M122.21 33.7192H39.0791V82.1932H122.21V33.7192Z" fill="#F3F3F3"/>
<path d="M148.877 67.2013C148.956 66.9881 148.368 65.8017 148.368 65.743C148.368 65.6844 147.758 65.0275 147.758 64.654C147.758 64.2805 146.953 63.4862 146.953 63.4862C146.953 63.4862 145.873 63.0383 145.756 62.0666C145.638 61.0948 144.465 61.0748 144.465 61.0748C144.465 61.0748 144.465 60.9861 144.465 60.8516C144.465 60.5482 144.456 60.0101 144.322 59.7138C144.182 59.4452 143.942 59.2424 143.653 59.15C143.653 59.15 143.536 58.3901 143.3 58.1568C143.169 58.0194 143.075 57.8509 143.027 57.6671C142.979 57.4832 142.979 57.2903 143.027 57.1064C143.144 56.7386 142.87 55.8041 142.299 55.6753C141.729 55.5465 141.083 55.3247 141.083 55.3247C141.083 55.3247 141.019 55.3376 140.925 55.3504L140.846 55.3247C140.71 55.3502 140.573 55.3674 140.435 55.3762C140.314 55.38 140.196 55.341 140.102 55.266C139.901 55.0442 138.324 54.6335 138.022 54.6335C137.721 54.6335 136.882 54.2428 136.882 54.2428L136.039 53.6016C135.802 53.4213 135.365 52.6915 135.302 52.5856L135.293 52.5712C135.221 52.4051 135.162 52.2338 135.115 52.0589C135.402 51.7589 135.648 51.422 135.845 51.0572C135.865 51.0199 135.883 50.9813 135.903 50.9427C135.946 50.9425 135.988 50.9358 136.029 50.9226L136.082 50.9026C136.28 50.7975 136.429 50.6193 136.498 50.406C136.514 50.3631 136.525 50.3201 136.537 50.2772L136.545 50.2343C136.545 50.2042 136.558 50.1742 136.564 50.1455L136.572 50.0955C136.572 50.0654 136.582 50.0368 136.585 50.0067C136.588 49.9767 136.585 49.9738 136.585 49.9581C136.585 49.9423 136.594 49.8837 136.6 49.8479C136.613 49.7105 136.634 49.5738 136.661 49.4386C136.779 48.9105 137.092 48.464 137.323 47.976C137.354 47.9059 137.386 47.8329 137.413 47.7628C137.44 47.6926 137.467 47.6068 137.49 47.5266C137.49 47.5023 137.503 47.478 137.509 47.4537C137.525 47.395 137.538 47.3377 137.549 47.2776C137.549 47.2519 137.559 47.2261 137.564 47.2003C137.576 47.1202 137.588 47.0386 137.595 46.9571C137.635 46.492 137.566 46.0241 137.393 45.5904C137.249 45.2254 137.027 44.8963 136.878 44.5314C136.653 43.9775 136.591 43.3507 136.317 42.8241C135.855 41.9396 134.767 41.496 133.879 41.8295C133.449 41.9883 133.083 42.296 132.65 42.4334C132.076 42.618 131.448 42.4792 130.848 42.3962C130.249 42.3132 129.583 42.306 129.102 42.6967C128.545 43.1475 128.393 43.9933 127.871 44.4884C127.652 44.6959 127.38 44.829 127.154 45.0208C126.991 45.1505 126.865 45.3215 126.791 45.516C126.786 45.5295 126.782 45.5434 126.778 45.5575C126.772 45.5737 126.768 45.5905 126.765 45.6075C126.765 45.6276 126.758 45.6462 126.755 45.6662C126.752 45.6863 126.755 45.6934 126.755 45.7063C126.753 45.7411 126.753 45.776 126.755 45.8108C126.758 45.8435 126.763 45.876 126.771 45.9081C126.771 45.9181 126.771 45.9267 126.771 45.9353C126.771 45.9438 126.785 45.9896 126.795 46.0168V46.0326C126.805 46.0626 126.818 46.0913 126.83 46.1213C126.841 46.1514 126.843 46.1499 126.85 46.1657C126.854 46.1778 126.86 46.1898 126.866 46.2014C126.941 46.3457 127.002 46.4972 127.048 46.6537C127.072 46.7529 127.066 46.8573 127.029 46.9528C126.977 47.0615 126.903 47.1588 126.812 47.239C126.422 47.6441 126.12 48.1262 125.926 48.6543C125.903 48.7144 125.882 48.7746 125.863 48.8361L125.889 48.8432C125.945 48.8604 126.003 48.8729 126.061 48.8805C126.094 48.8805 126.127 48.889 126.16 48.8905C126.294 48.8983 126.429 48.8882 126.56 48.8604L126.66 48.8375C126.797 48.8008 126.929 48.753 127.058 48.6944C127.058 48.7345 127.058 48.7731 127.058 48.8132C127.058 48.8533 127.058 48.8576 127.058 48.8805C127.06 49.7415 127.302 50.5849 127.758 51.3158C128.214 52.0467 128.866 52.6361 129.639 53.0177L129.657 53.1437L129.669 53.2496L129.616 53.1995C129.616 53.1995 129.262 53.0235 128.929 53.5301C128.684 53.8606 128.35 54.1163 127.967 54.2685C127.967 54.2685 124.394 54.8324 124.257 55.3003L122.589 55.3977C122.589 55.3977 121.999 55.4749 121.94 56.7C121.882 57.925 121.567 58.0423 121.567 58.0423C121.567 58.0423 120.88 59.2487 120.939 59.8713C120.998 60.4938 120.396 60.8015 120.396 60.8015L120.317 61.9106C120.317 61.9106 119.669 61.8133 119.492 62.5717C119.316 63.3302 119.002 63.6808 119.002 63.6808C119.002 63.6808 117.922 64.5753 117.863 65.3337L117.196 65.743C117.196 65.743 115.644 65.3924 115.291 64.7699L115.182 64.6683C115.179 64.6638 115.176 64.659 115.174 64.654C114.941 64.4364 114.449 63.9785 114.524 64.0815C114.57 64.1794 114.581 64.2899 114.556 64.3949L114.441 64.2661L114.132 63.9356C114.132 63.9356 111.825 61.2895 110.356 61.1034C110.2 61.144 110.058 61.2241 109.942 61.336C109.826 61.4478 109.742 61.5876 109.696 61.7417C109.51 62.3742 109.315 63.4218 109.8 63.937L112.12 66.4114L112.18 66.4557L112.685 67.1026C112.601 67.3058 112.529 67.5033 112.469 67.6822V67.6993C112.456 67.738 112.444 67.7766 112.433 67.8124L112.42 67.851C112.408 67.8882 112.398 67.924 112.387 67.9584C112.375 67.9927 112.375 68.0013 112.368 68.0228C112.361 68.0442 112.368 68.0471 112.358 68.06C112.302 68.2546 112.268 68.4049 112.249 68.4893L112.119 68.4492L112.246 68.5036C112.246 68.5103 112.246 68.517 112.246 68.5237C112.243 68.5373 112.24 68.5511 112.238 68.5652C112.277 68.5823 112.317 68.6009 112.358 68.6167C113.045 68.9158 116.477 70.4184 116.661 70.646C116.857 70.8993 118.154 71.6377 119.332 71.0152C120.509 70.3927 120.766 69.441 120.766 69.441C120.766 69.441 121.905 67.8668 121.943 67.6321C121.982 67.3974 122.865 67.1269 122.865 67.1269C122.865 67.1269 122.944 69.7329 122.493 70.686C122.041 71.6391 121.202 75.8609 121.202 75.8609C121.257 75.8497 121.313 75.8463 121.37 75.8509L121.319 76.0941C121.388 76.0817 121.459 76.0817 121.527 76.0941C121.464 76.5736 121.097 78.8018 121.097 78.8018C121.097 78.8018 120.978 79.8136 120.783 80.1642C120.588 80.5148 120.566 82.3423 120.566 82.3423L120.252 83.6646C120.252 83.6646 120.294 83.7562 120.371 83.8936C120.371 83.8936 120.708 84.6392 121.276 85.0585C121.25 85.2659 121.196 85.4689 121.117 85.6624C120.995 85.9581 120.941 86.2776 120.961 86.5969C120.961 86.5969 120.627 88.0939 120.667 88.5232C120.707 88.9525 120.45 90.0015 120.45 90.0015L120.097 93.386C120.097 93.386 119.862 96.3227 119.98 97.1212C120.097 97.9198 119.901 99.0074 119.901 99.0074C119.901 99.0074 120.136 101.323 120.077 101.575C120.019 101.827 119.725 102.917 119.901 103.52C120.077 104.122 119.98 105.776 119.98 105.776C119.98 105.776 120.097 107.956 120.234 108.656C120.37 109.356 120.195 110.251 120.195 110.251C120.195 110.251 120.052 111.748 119.998 111.748C119.945 111.748 119.425 112.779 120.469 113.791C121.513 114.802 120.863 114.649 120.863 114.649C120.863 114.649 120.039 114.241 120.136 115.079C120.229 115.876 120.358 115.667 120.37 115.651L120.175 116.291L120.318 116.309C120.281 116.354 120.244 116.399 120.204 116.452C120.085 116.601 119.953 116.739 119.809 116.863C119.572 117.038 119.552 117.426 119.552 117.426C119.552 117.426 118.101 119 116.746 119.798C116.028 120.219 115.419 120.574 115.151 120.869C114.908 121.132 114.949 121.345 115.45 121.511C116.51 121.862 118.375 122.037 119.71 121.59C120.506 121.324 121.222 120.863 121.791 120.248C121.791 120.248 122.635 119.818 123.459 119.974C124.284 120.13 125.933 119.06 125.933 119.06L125.903 118.785L125.816 117.989C125.759 117.923 125.718 117.845 125.693 117.762C125.668 117.678 125.661 117.591 125.672 117.504C125.683 117.269 125.659 117.033 125.603 116.804C125.589 116.727 125.575 116.651 125.56 116.578L125.711 116.551C125.711 116.551 125.515 115.559 125.869 115.363C126.223 115.167 126.123 112.621 126.123 112.621C126.123 112.621 125.672 112.037 125.436 111.94C125.199 111.843 125.416 110.636 125.456 110.482C125.496 110.327 125.793 107.298 125.793 107.298C125.793 107.298 125.675 106.346 125.831 105.937C125.988 105.527 125.635 103.953 125.635 103.953C125.635 103.953 125.517 103.759 125.734 103.524C125.951 103.289 125.87 101.21 125.87 101.21C125.87 101.21 125.852 100.159 125.852 99.8861C125.852 99.6127 126.087 98.6224 126.302 98.2918C126.517 97.9613 126.381 96.9309 126.381 96.9309L126.392 96.8522C126.392 96.8235 126.404 96.7863 126.411 96.7434L126.428 96.6389C126.523 96.0691 126.651 95.5053 126.811 94.9502C127.066 94.1331 127.36 92.6948 127.36 92.6948L129.188 87.935L129.208 87.8792C129.208 87.8792 130.051 89.4348 130.051 90.8759C130.051 90.8759 130.268 92.6061 130.209 93.0726C130.15 93.5392 130.387 95.7373 130.387 95.7373C130.387 95.7373 130.64 98.8857 130.64 99.0289C130.64 99.172 130.955 101.596 131.151 101.965C131.348 102.335 130.955 103.464 130.837 103.58C130.719 103.696 130.876 106.556 130.876 106.556C130.876 106.556 130.582 108.812 130.523 109.275C130.464 109.739 130.229 111.532 130.425 112.232C130.622 112.932 130.543 113.029 130.543 113.029C130.543 113.029 131.25 113.745 130.83 113.808C130.68 113.841 130.538 113.905 130.415 113.997C130.291 114.089 130.189 114.206 130.115 114.34C130.04 114.474 129.995 114.623 129.983 114.776C129.971 114.929 129.992 115.083 130.044 115.227C130.288 115.938 130.575 116.634 130.904 117.31L131.23 117.241V117.473L131.253 118.632C131.253 118.632 131.396 119.741 131.313 119.994C131.233 120.495 131.179 121 131.152 121.507C131.138 121.673 131.13 121.785 131.13 121.785C131.13 121.785 131.13 122.815 133.31 122.5C135.49 122.185 135.885 121.337 135.885 121.337C135.885 121.337 135.885 121.297 135.903 121.229C135.934 121.033 136.005 120.615 136.063 120.384C136.142 120.072 135.435 118.666 135.435 118.666C135.435 118.666 135.318 117.713 135.121 117.499C135.039 117.376 134.985 117.237 134.963 117.091C134.945 117.012 134.929 116.93 134.916 116.85C134.968 116.858 135.015 116.866 135.059 116.876C135.059 116.876 134.94 116.196 135.394 115.982C135.847 115.767 135.726 115.32 135.667 115.123C135.609 114.925 135.844 113.835 135.844 113.835C135.812 113.727 135.81 113.612 135.838 113.502C135.866 113.393 135.922 113.293 136.002 113.212C136.277 112.941 136.492 111.034 136.492 111.034L136.531 103.681C136.531 103.681 136.674 102.378 136.512 101.852C136.35 101.327 136.198 100.317 136.413 100.043C136.628 99.7702 136.433 98.5065 136.433 98.5065C136.433 98.5065 136.433 95.8418 136.727 95.1806C137.021 94.5195 136.924 90.3378 136.924 90.3378L137.003 87.5944C137.003 87.5944 137.644 86.9891 137.492 83.8321C138.176 83.7891 138.948 83.7648 139.069 83.8593C139.286 84.0338 140.679 84.9297 141.508 84.3644C141.684 84.2872 142.489 83.606 142.489 83.606L142.143 77.7742C142.358 78.0991 142.49 78.3152 142.49 78.3152C142.49 77.498 144.806 74.8534 144.806 74.8534C144.806 74.8534 146.965 72.0713 147.437 71.7407C147.909 71.4102 148.829 69.6585 148.829 69.6585C148.966 69.3249 149.123 69.0004 149.301 68.6868C149.511 68.3491 148.794 67.416 148.877 67.2013ZM143.812 69.2435C143.224 69.3022 141.987 70.6445 141.968 70.9365C141.924 71.129 141.835 71.3082 141.707 71.4588C141.697 71.3415 141.687 71.2227 141.678 71.1011C141.535 69.3837 141.391 67.2872 141.457 67.084C141.575 66.7348 141.535 65.1591 141.535 65.1591L141.556 65.1291C141.952 66.3498 143.181 67.7895 143.181 67.7895C143.181 67.7895 143.398 68.412 143.653 68.4306C143.909 68.4492 143.812 69.2435 143.812 69.2435Z" fill="url(#paint0_linear)"/>
<path d="M112.338 68.8012C112.338 68.8012 113.055 65.0561 115.35 65.0375L117.032 68.4921L115.911 69.2649C115.911 69.2649 113.48 69.3408 112.338 68.8012Z" fill="#65617D"/>
<path opacity="0.1" d="M117.039 68.4908L115.916 69.2636C115.916 69.2636 114.195 69.3179 112.976 69.016C112.757 68.9657 112.543 68.8933 112.338 68.7999C112.338 68.7999 112.338 68.7784 112.351 68.7398C112.35 68.735 112.35 68.7302 112.351 68.7255C112.455 68.2557 112.599 67.7956 112.781 67.3502C112.851 67.1813 112.924 67.0081 113.019 66.835C113.356 66.1881 113.829 65.547 114.478 65.2393C114.717 65.1218 114.978 65.0537 115.245 65.0389H115.314H115.348L115.384 65.1148L115.958 66.2826L117.039 68.4908Z" fill="black"/>
<path d="M136.155 84.051C136.155 84.051 138.573 83.8192 138.785 83.9924C138.997 84.1655 140.371 85.0542 141.185 84.4947C141.998 83.9351 141.456 81.9845 141.456 81.9073C141.456 81.83 141.378 79.0694 141.378 79.0694L139.927 77.1202L138.108 73.7028L134.394 73.3364L134.49 78.7603L134.471 81.538L136.155 84.051Z" fill="#65617D"/>
<path opacity="0.1" d="M136.155 84.051C136.155 84.051 138.573 83.8192 138.785 83.9924C138.997 84.1655 140.371 85.0542 141.185 84.4947C141.998 83.9351 141.456 81.9845 141.456 81.9073C141.456 81.83 141.378 79.0694 141.378 79.0694L139.927 77.1202L138.108 73.7028L134.394 73.3364L134.49 78.7603L134.471 81.538L136.155 84.051Z" fill="black"/>
<path d="M114.872 64.9373C114.872 64.9373 114.68 67.2929 113.208 67.3316C113.208 67.3316 112.792 67.0811 112.231 66.6632C110.941 65.6972 108.89 63.844 109.456 62.1181C110.268 59.648 114.215 64.2032 114.215 64.2032L114.519 64.5424L114.872 64.9373Z" fill="#FBBEBE"/>
<path opacity="0.1" d="M114.872 64.9374C114.872 64.9374 114.68 67.2929 113.208 67.3316C113.208 67.3316 112.792 67.0811 112.232 66.6633L112.105 66.5016C112.355 66.6321 112.63 66.7059 112.912 66.7176C113.133 66.728 113.353 66.6702 113.541 66.552C113.729 66.4338 113.876 66.2608 113.963 66.0565C114.118 65.7542 114.255 65.4426 114.372 65.1234C114.441 64.9361 114.489 64.7417 114.515 64.5438L114.872 64.9374Z" fill="black"/>
<path d="M114.228 69.2049L113.897 68.7755L112.784 67.3444L112.21 66.6131C112.459 66.7437 112.735 66.8175 113.016 66.8292C113.238 66.8394 113.458 66.7815 113.646 66.6633C113.834 66.5451 113.981 66.3723 114.067 66.1681C114.222 65.8653 114.358 65.5532 114.475 65.2336C114.658 64.7126 114.655 64.445 114.589 64.3549C114.523 64.2647 115.001 64.7041 115.229 64.9201L115.238 64.9287L115.345 65.0303L115.384 65.1091L115.945 66.2267C115.945 66.2267 115.945 66.2425 115.945 66.274C116.005 66.6332 116.194 68.8857 114.228 69.2049Z" fill="#E7EFFD"/>
<path d="M125.824 118.89C125.824 118.89 124.198 119.951 123.386 119.795C122.574 119.64 121.741 120.067 121.741 120.067C121.181 120.678 120.475 121.136 119.69 121.4C118.375 121.843 116.534 121.669 115.492 121.321C114.997 121.156 114.958 120.945 115.196 120.683C115.46 120.397 116.067 120.039 116.774 119.622C118.101 118.837 119.535 117.274 119.535 117.274C119.535 117.274 119.555 116.888 119.787 116.714C119.929 116.59 120.06 116.454 120.177 116.308C120.385 116.062 120.58 115.806 120.58 115.806L125.359 115.962C125.359 115.962 125.44 116.305 125.503 116.656C125.558 116.883 125.58 117.117 125.57 117.351C125.558 117.437 125.564 117.524 125.588 117.607C125.611 117.69 125.652 117.767 125.706 117.833L125.791 118.622L125.824 118.89Z" fill="#65617D"/>
<path d="M135.825 120.228C135.768 120.458 135.699 120.872 135.667 121.066C135.657 121.132 135.651 121.174 135.651 121.174C135.651 121.174 135.264 122.022 133.117 122.331C130.97 122.64 130.966 121.616 130.966 121.616C130.966 121.616 130.974 121.506 130.989 121.34C131.021 120.837 131.078 120.336 131.161 119.84C131.237 119.588 131.102 118.487 131.102 118.487L131.079 117.343L131.063 116.543L134.626 116.17C134.648 116.436 134.687 116.701 134.741 116.962C134.764 117.106 134.816 117.244 134.896 117.367C135.091 117.58 135.207 118.525 135.207 118.525C135.207 118.525 135.902 119.917 135.825 120.228Z" fill="#65617D"/>
<path opacity="0.1" d="M125.359 115.962C125.359 115.962 125.439 116.305 125.503 116.656C124.986 116.752 122.729 117.141 122.165 116.867C121.527 116.558 120.157 116.385 120.157 116.385L120.18 116.308C120.388 116.062 120.583 115.806 120.583 115.806L125.359 115.962Z" fill="black"/>
<path opacity="0.1" d="M134.738 116.965C133.836 116.812 131.858 117.181 131.079 117.34L131.063 116.54L134.626 116.17C134.647 116.437 134.685 116.702 134.738 116.965Z" fill="black"/>
<path d="M136.753 87.6989L136.677 90.4179C136.677 90.4179 136.773 94.5681 136.483 95.225C136.194 95.8819 136.197 98.5265 136.197 98.5265C136.197 98.5265 136.39 99.7801 136.177 100.051C135.963 100.321 136.118 101.324 136.274 101.845C136.43 102.366 136.293 103.661 136.293 103.661L136.254 110.96C136.254 110.96 136.042 112.85 135.771 113.122C135.692 113.202 135.636 113.301 135.608 113.409C135.581 113.517 135.582 113.63 135.613 113.738C135.613 113.738 135.381 114.818 135.438 115.011C135.495 115.204 135.613 115.65 135.168 115.861C134.724 116.073 134.838 116.749 134.838 116.749C133.776 116.498 130.757 117.178 130.757 117.178C130.431 116.507 130.146 115.818 129.905 115.113C129.853 114.97 129.832 114.817 129.843 114.666C129.855 114.514 129.899 114.367 129.972 114.233C130.046 114.1 130.147 113.984 130.268 113.892C130.39 113.801 130.53 113.736 130.679 113.703C131.085 113.646 130.392 112.932 130.392 112.932C130.392 112.932 130.47 112.835 130.276 112.141C130.082 111.446 130.315 109.669 130.372 109.205C130.43 108.742 130.722 106.502 130.722 106.502C130.722 106.502 130.567 103.664 130.683 103.548C130.8 103.432 131.187 102.312 130.993 101.945C130.8 101.579 130.49 99.1662 130.49 99.0303C130.49 98.8943 130.239 95.7674 130.239 95.7674C130.239 95.7674 130.005 93.5864 130.061 93.1299C130.117 92.6733 129.905 90.9474 129.905 90.9474C129.905 89.5163 129.074 87.9751 129.074 87.9751L129.053 88.0309L127.254 92.7435C127.254 92.7435 126.967 94.1746 126.713 94.9817C126.555 95.5329 126.428 96.093 126.335 96.6589L126.318 96.762C126.318 96.8049 126.305 96.8421 126.3 96.8707L126.289 96.948C126.289 96.948 126.424 97.9713 126.211 98.3004C125.999 98.6296 125.767 99.6127 125.767 99.8832C125.767 100.154 125.785 101.196 125.785 101.196C125.785 101.196 125.863 103.261 125.651 103.485C125.589 103.536 125.546 103.606 125.529 103.683C125.511 103.761 125.52 103.842 125.553 103.915C125.553 103.915 125.902 105.479 125.747 105.884C125.592 106.289 125.709 107.235 125.709 107.235C125.709 107.235 125.4 110.227 125.361 110.383C125.322 110.539 125.109 111.734 125.341 111.831C125.573 111.929 126.018 112.507 126.018 112.507C126.018 112.507 126.115 115.036 125.767 115.226C125.418 115.416 125.612 116.404 125.612 116.404C125.612 116.404 122.807 116.945 122.17 116.636C121.533 116.326 120.162 116.152 120.162 116.152L120.354 115.516C120.343 115.539 120.211 115.745 120.123 114.955C120.027 114.125 120.84 114.526 120.84 114.526C120.84 114.526 121.478 114.681 120.453 113.678C119.428 112.674 119.931 111.65 119.988 111.65C120.046 111.65 120.182 110.164 120.182 110.164C120.182 110.164 120.357 109.275 120.221 108.58C120.084 107.884 119.965 105.723 119.965 105.723C119.965 105.723 120.061 104.083 119.888 103.484C119.714 102.884 120.004 101.805 120.061 101.553C120.119 101.301 119.888 99.0045 119.888 99.0045C119.888 99.0045 120.082 97.924 119.965 97.1341C119.849 96.3441 120.082 93.4275 120.082 93.4275L120.43 90.0673C120.43 90.0673 120.681 89.0255 120.642 88.6004C120.604 88.1754 120.929 86.6899 120.929 86.6899C120.911 86.3731 120.963 86.0562 121.084 85.7626C121.278 85.3776 121.357 84.1025 121.357 84.1025L123.212 79.855L124.125 76.117L136.41 76.0011C136.41 76.0011 136.455 76.3245 136.529 76.9156C136.604 77.5066 136.709 78.3796 136.825 79.4586C136.932 80.4375 137.05 81.591 137.165 82.8732C137.528 86.9647 136.753 87.6989 136.753 87.6989Z" fill="#3F3D56"/>
<path d="M135.613 53.8964L132.744 56.9475C132.744 56.9475 129.07 55.4792 129.456 54.9784C129.599 54.7837 129.582 54.1712 129.496 53.4943C129.352 52.4253 129.065 51.1945 129.065 51.1945C129.065 51.1945 135.488 50.1513 134.946 51.2318C134.748 51.6267 134.782 52.0904 134.906 52.5197C135.065 53.0137 135.304 53.4786 135.613 53.8964Z" fill="#FBBEBE"/>
<path opacity="0.1" d="M134.954 51.2317C134.756 51.6267 134.667 51.661 134.785 52.0904C133.946 52.9891 132.877 53.9723 131.549 53.9723C130.838 53.9725 130.136 53.8069 129.5 53.4885C129.356 52.4195 129.069 51.1888 129.069 51.1888C129.069 51.1888 135.496 50.1512 134.954 51.2317Z" fill="black"/>
<path d="M136.155 49.2626C136.155 50.4813 135.67 51.6501 134.806 52.5119C133.942 53.3737 132.771 53.8578 131.55 53.8578C130.328 53.8578 129.157 53.3737 128.293 52.5119C127.43 51.6501 126.944 50.4813 126.944 49.2626C126.944 49.2411 126.944 49.2196 126.944 49.1967C126.972 47.9911 127.474 46.8449 128.342 46.0053C129.209 45.1657 130.373 44.7 131.581 44.7086C132.79 44.7173 133.947 45.1996 134.802 46.0515C135.657 46.9034 136.143 48.0567 136.154 49.2626H136.155Z" fill="#FBBEBE"/>
<path opacity="0.1" d="M136.82 79.5746C136.21 79.5746 134.179 79.596 131.91 79.6318H131.882L131.133 79.6447H131.109C128.417 79.6876 125.765 79.1624 124.7 79.2626C122.437 79.4744 125.512 77.1775 125.512 77.1775C127.201 77.5866 128.939 77.7614 130.675 77.6969L131.327 77.664C133.383 77.5481 135.45 77.3549 136.53 77.0315C136.602 77.6283 136.704 78.4955 136.82 79.5746Z" fill="black"/>
<path d="M136.82 79.4586C136.21 79.4586 134.179 79.4801 131.91 79.5158H131.882L131.133 79.5287H131.109C128.417 79.5717 125.765 79.0464 124.7 79.1466C122.437 79.3584 125.512 77.0615 125.512 77.0615C127.201 77.4707 128.939 77.646 130.675 77.5824L131.327 77.5481C133.383 77.4322 135.45 77.239 136.53 76.9155C136.602 77.5123 136.704 78.3795 136.82 79.4586Z" fill="#E3A79F"/>
<path opacity="0.1" d="M130.312 55.1716L126.752 56.8316L124.004 78.0276C124.004 78.0276 125.629 77.2934 126.558 77.7571C127.488 78.2208 130.35 77.7957 130.35 77.7957C130.35 77.7957 132.44 77.6798 132.748 77.9116C133.057 78.1435 136.695 76.9457 136.695 76.9457C136.695 76.9457 137.354 75.4788 136.85 75.247C136.347 75.0151 137.005 72.7382 137.005 72.7382L136.695 57.4484L136.077 55.4792L134.414 54.4775L132.71 55.8284L131.898 55.9444L130.312 55.1716Z" fill="black"/>
<path d="M130.312 54.9397L126.752 56.5998L124.004 77.7957C124.004 77.7957 125.629 77.0616 126.563 77.531C127.496 78.0004 130.355 77.5696 130.355 77.5696C130.355 77.5696 132.444 77.4537 132.753 77.6855C133.061 77.9174 136.7 76.721 136.7 76.721C136.7 76.721 137.358 75.2527 136.855 75.0222C136.351 74.7918 137.01 72.5121 137.01 72.5121L136.7 57.2223L136.082 55.2531L134.418 54.2513L132.714 55.6023L131.902 55.7182L130.312 54.9397Z" fill="#E7EFFD"/>
<path opacity="0.1" d="M130.253 55.9214C130.253 55.9214 131.278 57.1364 131.257 57.3883C131.235 57.6402 131.198 58.2369 131.198 58.2369L130.435 59.804C130.435 59.804 130.005 61.7531 130.005 62.1596C130.005 62.566 129.325 66.0822 129.325 66.0822L128.512 71.4874L127.486 78.5728L128.532 80.3674L129.77 79.3255L131.415 66.7004L131.762 64.2103C131.762 64.2103 132.13 59.731 132.13 59.2673C132.13 58.8037 131.917 57.5887 131.917 57.5887C131.917 57.5887 132.169 56.4295 133.207 56.1576C134.246 55.8857 133.13 56.1003 133.13 56.1003L132.531 55.618L132.013 55.827C132.013 55.827 130.563 55.3833 130.253 55.9214Z" fill="black"/>
<path d="M130.137 55.8084C130.137 55.8084 131.163 57.0234 131.141 57.2752C131.12 57.5271 131.082 58.1239 131.082 58.1239L130.309 59.6881C130.309 59.6881 129.879 61.6372 129.879 62.0437C129.879 62.4501 129.202 65.962 129.202 65.962L128.389 71.3672L127.363 78.4526L128.416 80.2501L129.654 79.2082L131.296 66.5802L131.644 64.0901C131.644 64.0901 132.012 59.6108 132.012 59.1471C132.012 58.6834 131.798 57.4684 131.798 57.4684C131.798 57.4684 132.05 56.3093 133.089 56.0374C134.127 55.7654 133.011 55.9787 133.011 55.9787L132.412 55.4964L131.89 55.7082C131.89 55.7082 130.447 55.2674 130.137 55.8084Z" fill="#3F3D56"/>
<path opacity="0.1" d="M129.46 53.7748C129.46 53.7748 129.305 53.8907 129.266 54.6635C129.227 55.4363 128.692 57.1722 128.692 57.1722C128.692 57.1722 130.7 55.7826 131.704 55.9372L129.46 53.7748Z" fill="black"/>
<path d="M129.46 53.5487C129.46 53.5487 129.305 53.6646 129.266 54.4374C129.227 55.2102 128.692 56.9475 128.692 56.9475C128.692 56.9475 130.7 55.5565 131.704 55.7111L129.46 53.5487Z" fill="#E7EFFD"/>
<path opacity="0.1" d="M134.954 53.1637L131.781 55.9429C131.781 55.9429 134.452 57.5257 134.793 57.9121C135.134 58.2985 135.49 54.1283 135.49 54.1283L134.954 53.1637Z" fill="black"/>
<path d="M135.07 52.9319L131.897 55.7111C131.897 55.7111 134.567 57.2939 134.909 57.6803C135.252 58.0666 135.606 53.8964 135.606 53.8964L135.07 52.9319Z" fill="#E7EFFD"/>
<path opacity="0.1" d="M129.574 53.7748C129.574 53.7748 129.226 53.6016 128.898 54.104C128.656 54.4315 128.328 54.6853 127.949 54.8367C127.949 54.8367 124.428 55.3962 124.294 55.8599L122.649 55.9572C122.649 55.9572 122.068 56.0345 122.01 57.2452C121.953 58.4559 121.643 58.5776 121.643 58.5776C121.643 58.5776 120.969 59.7854 121.025 60.4022C121.081 61.019 120.503 61.3296 120.503 61.3296L122.921 67.6035C122.921 67.6035 122.999 70.1895 122.554 71.1354C122.109 72.0814 121.276 76.2702 121.276 76.2702C121.276 76.2702 121.625 76.1929 121.606 76.4247C121.587 76.6566 121.176 79.1853 121.176 79.1853C121.176 79.1853 121.059 80.1871 120.866 80.5363C120.672 80.8855 120.654 82.6986 120.654 82.6986L120.344 84.0124C120.344 84.0124 121.078 85.6524 122.208 85.4206C123.338 85.1888 125.364 80.8067 125.364 80.8067L126.654 76.0841L127.658 71.413L127.945 68.2475L128.41 61.2351L129.087 56.6027C129.087 56.6027 129.847 54.1097 129.574 53.7748Z" fill="black"/>
<path d="M129.46 53.5487C129.46 53.5487 129.111 53.3755 128.783 53.8778C128.541 54.2054 128.213 54.4591 127.835 54.6105C127.835 54.6105 124.314 55.1715 124.179 55.6338L122.534 55.7311C122.534 55.7311 121.96 55.8084 121.896 57.0191C121.831 58.2298 121.528 58.3543 121.528 58.3543C121.528 58.3543 120.851 59.5521 120.909 60.1689C120.966 60.7857 120.387 61.0963 120.387 61.0963L122.805 67.3702C122.805 67.3702 122.882 69.9562 122.438 70.9021C121.993 71.8481 121.16 76.0369 121.16 76.0369C121.16 76.0369 121.508 75.9611 121.49 76.1915C121.471 76.4219 121.059 78.952 121.059 78.952C121.059 78.952 120.943 79.9538 120.75 80.3044C120.556 80.655 120.537 82.4654 120.537 82.4654L120.228 83.7791C120.228 83.7791 120.962 85.4192 122.085 85.1873C123.208 84.9555 125.24 80.5735 125.24 80.5735L126.531 75.8509L127.535 71.1783L127.822 68.0127L128.286 61.0004L128.963 56.3679C128.963 56.3679 129.731 53.8778 129.46 53.5487Z" fill="#FFAA81"/>
<path opacity="0.1" d="M117.039 68.4908L115.916 69.2636C115.916 69.2636 114.195 69.3179 112.976 69.016L112.35 68.7398L112.226 68.6854L112.355 68.7255C113 68.9172 113.502 68.9129 113.902 68.7798C115.49 68.2475 115.315 65.6314 115.253 65.039C115.253 64.9803 115.243 64.9416 115.24 64.9259C115.243 64.931 115.246 64.9358 115.249 64.9402C115.271 64.9759 115.295 65.0098 115.322 65.0418C115.344 65.0676 115.368 65.0933 115.392 65.1177L115.953 66.2354C115.953 66.2354 115.953 66.2511 115.953 66.2826L117.039 68.4908Z" fill="black"/>
<path d="M120.928 60.9432L120.387 61.0977L120.31 62.1982C120.31 62.1982 119.671 62.1009 119.496 62.8537C119.321 63.6064 119.013 63.9542 119.013 63.9542C119.013 63.9542 117.949 64.8429 117.892 65.5957L117.24 66.0007C117.24 66.0007 115.712 65.6529 115.364 65.0361C115.364 65.0361 116.06 70.0163 112.353 68.7999C112.353 68.7999 116.512 70.6145 116.705 70.8649C116.899 71.1154 118.176 71.8495 119.337 71.2327C120.499 70.6159 120.75 69.6686 120.75 69.6686C120.75 69.6686 121.872 68.1044 121.91 67.8725C121.949 67.6407 122.82 67.3716 122.82 67.3716L124.469 63.3632L120.928 60.9432Z" fill="#FFAA81"/>
<path opacity="0.1" d="M134.509 55.4792L135.07 52.9319C135.07 52.9319 135.323 53.7619 135.574 53.9551L136.405 54.592C136.405 54.592 137.237 54.9784 137.527 54.9784C137.817 54.9784 139.384 55.3834 139.578 55.5952C139.772 55.807 140.546 55.6538 140.546 55.6538C140.546 55.6538 141.184 55.8656 141.745 56.0016C142.306 56.1375 142.577 57.062 142.462 57.4327C142.415 57.615 142.416 57.8063 142.463 57.9885C142.51 58.1707 142.603 58.338 142.733 58.4745C142.966 58.7063 143.082 59.4591 143.082 59.4591C143.366 59.5523 143.602 59.7533 143.739 60.0187C143.932 60.448 143.882 61.371 143.882 61.371L140.999 65.4239C140.999 65.4239 141.038 66.9881 140.922 67.3358C140.806 67.6836 141.328 73.5897 141.328 73.5897L141.927 83.7505C141.927 83.7505 141.134 84.426 140.961 84.5032C140.787 84.5805 140.612 80.9126 140.612 80.7824C140.612 80.6522 136.134 74.0963 136.134 74.0963C136.134 74.0963 135.535 73.1318 135.535 72.9185C135.535 72.7053 134.974 70.7562 134.974 70.7562L134.122 66.9924L134.509 55.4792Z" fill="black"/>
<path d="M144.113 61.1464C144.113 61.2794 144.113 61.3667 144.113 61.3667L141.232 65.4182C141.232 65.4182 141.27 66.9824 141.154 67.3301C141.087 67.5305 141.235 69.6084 141.371 71.3157C141.468 72.5465 141.56 73.584 141.56 73.584L141.815 77.8916L142.16 83.739C142.16 83.739 141.366 84.4145 141.193 84.4918C141.019 84.5691 140.844 80.9012 140.844 80.771C140.844 80.6407 136.367 74.0963 136.367 74.0963C136.367 74.0963 135.767 73.1303 135.767 72.9185C135.767 72.7067 135.206 70.7562 135.206 70.7562L134.354 66.9924L134.742 55.4864L135.07 52.939C135.07 52.939 135.554 53.7691 135.806 53.9608C136.058 54.1526 136.638 54.5991 136.638 54.5991C136.638 54.5991 137.47 54.9855 137.759 54.9855C138.049 54.9855 139.617 55.3905 139.81 55.6023C140.004 55.8141 140.778 55.661 140.778 55.661C140.778 55.661 141.417 55.8728 141.977 56.0087C142.538 56.1447 142.809 57.0706 142.695 57.4398C142.648 57.6224 142.648 57.8139 142.695 57.9964C142.743 58.1788 142.836 58.3463 142.966 58.4831C143.197 58.7149 143.313 59.4677 143.313 59.4677C143.598 59.5609 143.834 59.7625 143.971 60.0287C144.104 60.3092 144.117 60.8444 144.113 61.1464Z" fill="#FFAA81"/>
<path opacity="0.1" d="M120.464 112.583C120.56 112.583 124.623 112.737 124.546 113.393C124.468 114.048 120.464 112.583 120.464 112.583Z" fill="black"/>
<path opacity="0.1" d="M121.373 113.683C121.373 113.683 124.098 114.127 123.381 114.532C122.664 114.937 121.373 113.683 121.373 113.683Z" fill="black"/>
<path opacity="0.1" d="M131.511 112.163C131.511 112.163 136.039 112.55 135.362 113.051C134.685 113.552 133.078 113.63 133.001 113.65C132.923 113.67 131.511 112.163 131.511 112.163Z" fill="black"/>
<path opacity="0.1" d="M130.969 114.146C130.969 114.146 133.484 114.575 133.562 115.053C133.639 115.531 130.969 114.146 130.969 114.146Z" fill="black"/>
<path opacity="0.1" d="M132.362 102.525C132.362 102.525 134.657 103.066 134.801 103.432L132.362 102.525Z" fill="black"/>
<path opacity="0.1" d="M123.482 104.185C123.482 104.185 122.283 104.533 123.443 105.227C124.604 105.921 123.482 104.185 123.482 104.185Z" fill="black"/>
<path opacity="0.1" d="M128.803 85.6338C128.938 85.6338 131.046 84.9383 131.782 85.2474C132.308 85.4436 132.865 85.5482 133.427 85.5565L128.803 85.6338Z" fill="black"/>
<path opacity="0.1" d="M129.074 87.8349L129.053 88.0266L127.254 92.7392C127.254 92.7392 126.967 94.1703 126.714 94.9775C126.555 95.5287 126.428 96.0887 126.335 96.6547L127.931 86.7802L129.074 87.8349Z" fill="black"/>
<path d="M131.882 79.5159L131.133 79.5288H131.109L130.67 77.5825L131.321 77.5482L131.882 79.5159Z" fill="#3F3D56"/>
<path d="M141.01 77.1589L140.529 77.5553L138.922 78.8762C138.922 78.8762 134.567 81.1931 133.368 78.9921C132.311 77.053 137.241 75.6691 138.435 75.3671L138.689 75.3056L141.01 77.1589Z" fill="#FBBEBE"/>
<path opacity="0.1" d="M122.418 58.1826C122.418 58.1826 123.27 58.569 123.464 59.1085C123.657 59.648 122.418 58.1826 122.418 58.1826Z" fill="black"/>
<path opacity="0.1" d="M119.788 63.9742C119.788 63.9742 118.549 65.4797 119.052 66.0579C119.555 66.636 119.788 63.9742 119.788 63.9742Z" fill="black"/>
<path opacity="0.1" d="M141.919 59.0312C141.919 59.0312 140.758 59.1471 140.72 60.1517L141.919 59.0312Z" fill="black"/>
<path opacity="0.1" d="M131.162 74.8619C131.278 74.746 133.949 70.8076 134.567 71.1554L131.162 74.8619Z" fill="black"/>
<path opacity="0.1" d="M136.155 49.2626C136.155 50.0196 135.968 50.765 135.61 51.4321H135.575C135.288 51.3706 135.132 51.0314 134.908 50.8182C134.771 50.6887 134.596 50.6053 134.409 50.5796C134.222 50.554 134.031 50.5873 133.864 50.6751C133.695 50.7762 133.557 50.9224 133.466 51.0973C133.375 51.2723 133.335 51.469 133.351 51.6654C133.207 51.0471 133.25 50.3903 133.105 49.7706C132.96 49.1509 132.532 48.5241 131.936 48.5141C131.681 48.5141 131.383 48.6086 131.198 48.4168C131.086 48.3023 131.063 48.1206 130.98 47.9803C130.55 47.2962 129.266 47.6426 128.74 47.9932C128.213 48.3438 127.601 48.9048 126.945 49.2053C126.973 47.9998 127.475 46.8535 128.343 46.0139C129.21 45.1743 130.374 44.7086 131.582 44.7172C132.791 44.7259 133.948 45.2082 134.803 46.0601C135.658 46.912 136.144 48.0653 136.155 49.2712V49.2626Z" fill="black"/>
<path d="M130.98 47.8558C131.063 47.9989 131.086 48.1778 131.198 48.2923C131.382 48.4841 131.68 48.3853 131.937 48.3896C132.529 48.3996 132.962 49.0265 133.106 49.6461C133.249 50.2658 133.203 50.9227 133.351 51.5423C133.336 51.3459 133.375 51.149 133.466 50.974C133.557 50.799 133.695 50.6529 133.864 50.552C134.032 50.4647 134.222 50.4316 134.409 50.4572C134.597 50.4829 134.771 50.566 134.909 50.6951C135.132 50.9083 135.284 51.2475 135.576 51.3076C135.867 51.3677 136.149 51.0901 136.254 50.7838C136.359 50.4776 136.353 50.1398 136.422 49.8221C136.552 49.2197 136.947 48.7259 137.165 48.1535C137.424 47.4566 137.417 46.6887 137.145 45.9968C137.001 45.6348 136.783 45.3085 136.637 44.9464C136.415 44.3954 136.35 43.7743 136.085 43.2506C135.63 42.3733 134.556 41.934 133.675 42.2645C133.254 42.422 132.889 42.7268 132.462 42.8642C131.888 43.0473 131.279 42.91 130.688 42.827C130.097 42.744 129.441 42.7368 128.967 43.1261C128.419 43.5726 128.27 44.414 127.755 44.9035C127.538 45.1096 127.27 45.2412 127.038 45.4315C126.805 45.6219 126.607 45.9067 126.64 46.2158C126.673 46.6151 127.071 46.9786 126.927 47.3492C126.875 47.458 126.802 47.5554 126.712 47.6354C126.281 48.0861 125.96 48.6303 125.775 49.2254C126.811 49.5488 127.927 48.4097 128.741 47.8716C129.266 47.5181 130.556 47.1718 130.98 47.8558Z" fill="#3F3D56"/>
<path opacity="0.1" d="M141.009 77.1589L140.529 77.5553C140.099 76.8498 138.36 75.4401 138.36 75.4401L138.435 75.3671L138.689 75.3056L141.009 77.1589Z" fill="black"/>
<path d="M141.479 76.4448C141.479 76.4448 141.307 76.8741 141.128 77.2462C140.948 77.6183 140.753 77.9617 140.745 77.6755C140.725 77.1346 138.481 75.3199 138.481 75.3199L138.786 75.0251L139.138 74.6831L141.479 76.4448Z" fill="#E7EFFD"/>
<path opacity="0.1" d="M141.551 73.5868L141.807 77.8944C141.204 76.9628 139.555 74.5714 138.495 74.6487L141.068 71.6949C141.175 71.5765 141.273 71.4507 141.362 71.3185C141.46 72.5493 141.551 73.5868 141.551 73.5868Z" fill="black"/>
<path opacity="0.1" d="M141.479 76.4447C141.479 76.4447 141.307 76.8741 141.127 77.2462C140.453 76.3231 139.525 75.2326 138.785 75.0294L139.138 74.6874L141.479 76.4447Z" fill="black"/>
<path d="M143.409 60.8272L144.106 61.3682C144.106 61.3682 145.266 61.3868 145.382 62.3528C145.499 63.3187 146.563 63.761 146.563 63.761C146.563 63.761 147.356 64.5523 147.356 64.9201C147.356 65.2879 147.955 65.9434 147.955 66.0006C147.955 66.0579 148.529 67.2356 148.459 67.4489C148.388 67.6621 149.077 68.5938 148.865 68.9344C148.69 69.2465 148.535 69.5691 148.4 69.9003C148.4 69.9003 147.491 71.6377 147.027 71.9654C146.564 72.2931 144.434 75.0551 144.434 75.0551C144.434 75.0551 142.151 77.6798 142.151 78.4898C142.151 78.4898 139.927 74.7832 138.611 74.8791L141.192 71.9268C141.192 71.9268 141.636 71.4445 141.656 71.1554C141.676 70.8663 142.894 69.534 143.475 69.4753C143.475 69.4753 143.571 68.6839 143.32 68.6653C143.069 68.6467 142.855 68.027 142.855 68.027C142.855 68.027 141.153 66.0235 141.134 64.7455C141.115 63.4676 143.409 60.8272 143.409 60.8272Z" fill="#FFAA81"/>
<path opacity="0.1" d="M144.435 62.6605C144.435 62.6605 142.81 63.8583 143.158 64.2432C143.507 64.6282 144.435 62.6605 144.435 62.6605Z" fill="black"/>
<path opacity="0.1" d="M144.512 67.6034C144.512 67.6034 147.524 66.6374 147.839 67.6034H144.512Z" fill="black"/>
<path opacity="0.1" d="M125.824 118.89C125.824 118.89 124.198 119.951 123.386 119.795C122.574 119.639 121.741 120.067 121.741 120.067C121.181 120.677 120.475 121.136 119.69 121.4C118.375 121.843 116.534 121.669 115.492 121.321C114.997 121.156 114.958 120.945 115.196 120.683C116.331 120.909 118.869 121.358 119.555 121.032C120.444 120.603 121.721 119.681 121.721 119.681C121.721 119.681 123.386 119.462 123.618 119.462C123.783 119.462 125.068 118.932 125.792 118.629L125.824 118.89Z" fill="black"/>
<path opacity="0.1" d="M135.667 121.066C135.657 121.132 135.651 121.174 135.651 121.174C135.651 121.174 135.264 122.022 133.117 122.331C130.97 122.64 130.966 121.616 130.966 121.616C130.966 121.616 130.974 121.506 130.989 121.34C131.67 121.599 133.16 121.886 135.667 121.066Z" fill="black"/>
<path opacity="0.1" d="M123.221 62.4286C123.221 62.4286 123.221 66.8307 122.844 67.2658C122.467 67.7008 123.221 62.4286 123.221 62.4286Z" fill="black"/>
<path opacity="0.1" d="M140.662 63.8483L141.223 65.4225C141.223 65.4225 141.445 63.8769 140.662 63.8483Z" fill="black"/>
<g opacity="0.1">
<path opacity="0.1" d="M126.981 46.9742C127.125 46.6122 126.753 46.2587 126.704 45.868C126.655 45.9774 126.634 46.0975 126.643 46.2172C126.667 46.5105 126.884 46.7824 126.941 47.0529C126.957 47.0279 126.97 47.0016 126.981 46.9742Z" fill="black"/>
<path opacity="0.1" d="M133.403 51.133C133.259 50.5233 133.305 49.8793 133.165 49.2726C133.024 48.6658 132.591 48.0261 131.994 48.0161C131.739 48.0161 131.441 48.1105 131.256 47.9187C131.144 47.8043 131.122 47.6225 131.038 47.4823C130.607 46.7982 129.325 47.1445 128.797 47.4951C128.006 48.0203 126.918 49.118 125.904 48.869C125.856 48.9863 125.81 49.1037 125.772 49.2253C126.808 49.5488 127.924 48.4096 128.738 47.8715C129.266 47.5209 130.556 47.1746 130.98 47.8586C131.063 48.0017 131.086 48.1806 131.198 48.2951C131.382 48.4869 131.68 48.3881 131.937 48.3924C132.529 48.4025 132.962 49.0293 133.106 49.6489C133.249 50.2686 133.203 50.9255 133.351 51.5451C133.342 51.4057 133.359 51.2658 133.403 51.133Z" fill="black"/>
<path opacity="0.1" d="M136.316 50.4089C136.209 50.7151 135.934 50.9956 135.636 50.9326C135.337 50.8697 135.193 50.5334 134.97 50.3201C134.833 50.191 134.658 50.1079 134.471 50.0822C134.284 50.0566 134.093 50.0897 133.926 50.177C133.765 50.2727 133.632 50.4099 133.541 50.5742C133.451 50.7386 133.407 50.9242 133.413 51.1115C133.49 50.8757 133.652 50.6769 133.867 50.5534C134.035 50.4661 134.225 50.433 134.412 50.4586C134.599 50.4843 134.774 50.5674 134.911 50.6965C135.135 50.9097 135.287 51.2489 135.578 51.309C135.869 51.3691 136.152 51.0915 136.257 50.7852C136.312 50.6046 136.348 50.4184 136.363 50.23C136.351 50.2905 136.335 50.3502 136.316 50.4089Z" fill="black"/>
<path opacity="0.1" d="M137.222 47.7785C137.004 48.3509 136.611 48.8447 136.479 49.4471C136.453 49.5688 136.437 49.6933 136.423 49.8178C136.555 49.2182 136.946 48.7244 137.164 48.1549C137.261 47.8972 137.321 47.6275 137.344 47.3535C137.313 47.4979 137.273 47.6399 137.222 47.7785Z" fill="black"/>
</g>
<defs>
<linearGradient id="paint0_linear" x1="129.411" y1="122.563" x2="129.411" y2="41.715" gradientUnits="userSpaceOnUse">
<stop stop-color="#808080" stop-opacity="0.25"/>
<stop offset="0.54" stop-color="#808080" stop-opacity="0.12"/>
<stop offset="1" stop-color="#808080" stop-opacity="0.1"/>
</linearGradient>
</defs>
</svg>
