<svg width="160" height="106" viewBox="0 0 160 106" fill="none" xmlns="http://www.w3.org/2000/svg">
<g clip-path="url(#clip0)">
<path opacity="0.6" d="M153.746 70.9375C152.591 72.2001 151.158 73.14 149.603 73.8698H149.601C149.455 73.9392 149.309 74.0068 149.161 74.0706H149.159L149.157 74.0724L149.155 74.0706H149.153C149.153 74.0708 149.153 74.0711 149.153 74.0713C149.153 74.0715 149.153 74.0717 149.153 74.0719C149.152 74.0721 149.152 74.0722 149.152 74.0723C149.152 74.0724 149.151 74.0724 149.151 74.0724H149.149L149.147 74.0706C149.146 74.0724 149.146 74.0724 149.144 74.0706L149.142 74.0724L149.14 74.0706H149.138C149.136 74.0724 149.136 74.0724 149.134 74.0706H149.132C148.092 74.5208 147.023 74.9031 145.933 75.215C139.522 77.0342 132.785 77.3863 126.22 76.245C126.094 76.2225 125.97 76.1999 125.845 76.1774V60.9603C125.969 60.9078 126.094 60.8553 126.22 60.8046C127.039 60.465 127.869 60.153 128.709 59.8684C129.916 59.4557 131.141 59.1017 132.383 58.8066C136.433 57.8258 140.613 57.4878 144.768 57.8047C145.524 57.861 146.278 57.9423 147.03 58.0486C148.604 58.2681 150.254 58.6508 151.706 59.315H151.707C151.919 59.4144 152.128 59.5176 152.334 59.6283C153.624 60.3281 154.712 61.2905 155.376 62.6094C155.614 63.0831 155.786 63.5876 155.886 64.1084V64.1122C155.924 64.2923 155.95 64.4743 155.97 64.6544C156.207 66.8757 155.286 69.2527 153.746 70.9375Z" fill="#65BFD4"/>
<path d="M155.97 64.6544C155.952 64.659 155.933 64.6615 155.914 64.6619C152.702 64.8026 149.493 65.0115 146.289 65.2885H146.284C146.271 65.2904 146.259 65.2904 146.246 65.2923C142.957 65.5774 139.674 65.9345 136.398 66.3635C136.259 66.3823 136.122 66.401 135.985 66.4179C133.72 66.72 131.459 67.0552 129.202 67.4235C128.206 67.5867 127.212 67.7568 126.22 67.9338C126.094 67.9563 125.97 67.977 125.845 68.0014V67.4329C125.97 67.4085 126.096 67.3879 126.22 67.3653C129.524 66.78 132.84 66.2691 136.167 65.8326C137.004 65.72 137.841 65.6137 138.68 65.5136C141.104 65.221 143.53 64.9683 145.961 64.7557C146.139 64.7407 146.315 64.7257 146.494 64.7107C149.605 64.4461 152.721 64.2454 155.841 64.1084C155.856 64.1077 155.871 64.109 155.886 64.1122C156.186 64.1385 156.25 64.5887 155.97 64.6544Z" fill="white"/>
<path d="M149.298 73.5177C145.296 73.5471 141.353 71.8495 138.522 69.0396C137.723 68.2436 137.019 67.3578 136.424 66.3999C136.234 66.0937 135.787 66.4313 135.976 66.7348C138.175 70.262 141.837 72.7746 145.875 73.6985C147.021 73.9584 148.194 74.0839 149.37 74.0726C149.729 74.0699 149.655 73.5151 149.298 73.5177V73.5177Z" fill="white"/>
<path d="M132.383 58.8065C132.365 58.8593 132.335 58.9066 132.294 58.9438C132.253 58.981 132.202 59.0068 132.148 59.0185C131.231 59.259 130.345 59.6052 129.508 60.0504C128.285 60.6964 127.175 61.5358 126.22 62.5362C126.169 62.5869 126.12 62.6375 126.074 62.6901C125.995 62.7726 125.92 62.8571 125.845 62.9434V62.1254C125.965 61.9978 126.09 61.8721 126.22 61.752C126.974 61.0299 127.809 60.3978 128.709 59.8684C129.916 59.4557 131.141 59.1017 132.383 58.8065Z" fill="white"/>
<path d="M152.037 59.1671C149.491 60.2617 147.361 62.1405 145.956 64.53C145.928 64.5984 145.927 64.6753 145.955 64.7439C145.983 64.8125 146.037 64.8674 146.105 64.8966C146.173 64.9237 146.25 64.9233 146.318 64.8956C146.386 64.868 146.441 64.815 146.471 64.7479C147.812 62.491 149.834 60.7183 152.247 59.6855C152.578 59.544 152.369 59.0253 152.037 59.1671L152.037 59.1671Z" fill="white"/>
<path opacity="0.6" d="M159.712 43.233C159.277 44.8877 158.442 46.3867 157.405 47.7544L157.403 47.7563C157.308 47.8838 157.208 48.0133 157.105 48.1371V48.139C156.385 49.0264 155.608 49.8656 154.778 50.6511C151.794 53.495 148.425 55.9033 144.768 57.8047C139.016 60.8102 132.587 62.5869 126.22 62.6882C126.171 62.6901 126.122 62.6901 126.074 62.6901C125.997 62.692 125.92 62.692 125.845 62.692V54.165C125.967 53.9324 126.092 53.6998 126.22 53.469C127.875 50.4906 129.892 47.7291 132.227 45.2479C132.283 45.186 132.341 45.1241 132.4 45.0641C133.277 44.1373 134.197 43.2549 135.16 42.4169C138.864 39.1592 143.144 36.6235 147.78 34.9406C149.275 34.404 150.914 33.9744 152.508 33.89C152.743 33.8768 152.975 33.8712 153.21 33.8731C154.678 33.8937 156.087 34.2408 157.289 35.1001C157.719 35.4094 158.106 35.7761 158.437 36.1901C158.553 36.3345 158.66 36.4827 158.763 36.6347V36.6366C160.005 38.4939 160.293 41.0248 159.712 43.233Z" fill="#65BFD4"/>
<path d="M158.763 36.6347V36.6366C158.749 36.6487 158.734 36.6594 158.718 36.6685C155.942 38.2838 153.202 39.9579 150.496 41.6908C150.492 41.6927 150.49 41.6946 150.487 41.6965C150.476 41.704 150.464 41.7109 150.453 41.7171C147.671 43.4994 144.93 45.3417 142.227 47.2441C142.114 47.3229 142 47.4036 141.886 47.4843C140.02 48.8032 138.173 50.1502 136.346 51.5254C132.895 54.1257 129.519 56.8223 126.22 59.6152C126.094 59.7202 125.97 59.8271 125.845 59.9341V59.2043C125.969 59.0973 126.094 58.9904 126.22 58.8853C127.484 57.8178 128.759 56.7653 130.046 55.7279C130.43 55.4183 130.817 55.1087 131.203 54.8029C134.635 52.0694 138.144 49.4379 141.73 46.9083H141.732C142.437 46.4111 143.144 45.9183 143.851 45.4299C145.862 44.0453 147.895 42.6939 149.95 41.3756C150.098 41.28 150.248 41.1843 150.398 41.0886C153.03 39.4076 155.695 37.7817 158.395 36.2107C158.409 36.2027 158.422 36.1958 158.437 36.1901C158.718 36.0775 158.982 36.449 158.763 36.6347Z" fill="white"/>
<path d="M156.972 47.5843C153.441 49.4701 149.161 49.799 145.349 48.6261C144.272 48.2924 143.238 47.835 142.266 47.2631C141.955 47.0807 141.716 47.5871 142.025 47.768C145.609 49.8699 150.019 50.3932 154.024 49.3351C155.16 49.0324 156.257 48.5986 157.293 48.0423C157.609 47.8732 157.286 47.4163 156.972 47.5843V47.5843Z" fill="white"/>
<path d="M130.555 54.4487C130.381 53.4666 130.321 52.4675 130.377 51.4715C130.503 49.2 131.198 46.9968 132.399 45.0644C133.277 44.138 134.198 43.2554 135.16 42.4168C135.169 42.4717 135.164 42.5279 135.144 42.5801C135.125 42.6322 135.093 42.6784 135.05 42.7142C134.35 43.3534 133.726 44.0716 133.191 44.8544C131.28 47.6441 130.534 51.0703 131.113 54.4023C131.122 54.4401 131.122 54.4796 131.111 54.5172C131.101 54.5547 131.081 54.589 131.054 54.6167C131.014 54.6516 130.965 54.6755 130.913 54.6858C130.861 54.6962 130.807 54.6927 130.756 54.6757C130.706 54.6587 130.661 54.6288 130.626 54.589C130.59 54.5492 130.566 54.5008 130.555 54.4487Z" fill="white"/>
<path d="M152.732 33.6034C150.986 35.7557 149.972 38.4094 149.838 41.1781C149.844 41.2519 149.88 41.3201 149.936 41.3679C149.993 41.4158 150.066 41.4394 150.14 41.4337C150.213 41.4258 150.28 41.3901 150.328 41.3339C150.375 41.2776 150.4 41.2052 150.395 41.1317C150.534 38.5102 151.502 36.0006 153.159 33.9648C153.387 33.6856 152.96 33.3237 152.732 33.6034Z" fill="white"/>
<path opacity="0.6" d="M133.311 39.7678V39.7697C133.298 39.931 133.283 40.0905 133.266 40.25V40.2537C133.136 41.3888 132.932 42.5144 132.656 43.6232C132.525 44.1673 132.383 44.7076 132.227 45.2479C132.208 45.3173 132.188 45.3867 132.167 45.4543V45.4562C131.709 47.0276 131.162 48.5716 130.528 50.0808C129.362 52.8592 127.918 55.5129 126.22 58.0017C126.098 58.1837 125.972 58.3656 125.845 58.5458V29.1659C125.97 29.1584 126.094 29.1584 126.22 29.1622C126.28 29.1622 126.34 29.1641 126.4 29.1678C126.929 29.1956 127.452 29.2973 127.953 29.4699C128.129 29.528 128.3 29.5937 128.469 29.6669C130.515 30.5636 132.122 32.5411 132.82 34.7155C133.343 36.3439 133.448 38.0568 133.311 39.7678Z" fill="#65BFD4"/>
<path d="M128.469 29.6669C128.464 29.6853 128.457 29.7029 128.448 29.7194C127.688 31.1959 126.946 32.6799 126.22 34.1714C126.094 34.4284 125.969 34.6873 125.845 34.9444V33.6686C125.969 33.4134 126.094 33.1583 126.22 32.9031C126.781 31.7662 127.351 30.6343 127.93 29.5074C127.937 29.4942 127.944 29.4817 127.953 29.4699C128.125 29.2222 128.553 29.3911 128.469 29.6669Z" fill="white"/>
<path d="M133.371 40.0699C133.337 40.1299 133.303 40.1899 133.266 40.25C132.715 41.21 132.06 42.106 131.312 42.9216C129.875 44.481 128.145 45.7414 126.22 46.6306C126.096 46.6907 125.97 46.7469 125.845 46.7995V46.1897C125.97 46.1335 126.096 46.0753 126.22 46.0153C129.006 44.6859 131.32 42.5378 132.853 39.8579C132.876 39.8196 132.906 39.7865 132.942 39.7609C132.978 39.7353 133.019 39.7177 133.062 39.7094C133.105 39.701 133.15 39.7021 133.193 39.7125C133.236 39.7229 133.276 39.7424 133.311 39.7697C133.335 39.7855 133.355 39.8057 133.371 39.8293C133.387 39.853 133.398 39.8795 133.403 39.9073C133.409 39.9352 133.409 39.9639 133.403 39.9918C133.398 40.0197 133.387 40.0462 133.371 40.0699Z" fill="white"/>
<path d="M126.219 6.19115V20.4496H125.844V20.2976H0.375095V20.4496H0V6.19115C0.00161073 4.54965 0.654188 2.97584 1.81451 1.81512C2.97484 0.654408 4.54812 0.00161127 6.18907 0H120.03C121.671 0.00161127 123.245 0.654408 124.405 1.81512C125.565 2.97584 126.218 4.54965 126.219 6.19115Z" fill="#FFAA81"/>
<path d="M120.03 0H6.18907C4.54812 0.00161127 2.97484 0.654408 1.81451 1.81512C0.654188 2.97584 0.00161073 4.54965 0 6.19115V87.6142C0.00161073 89.2557 0.654188 90.8295 1.81451 91.9902C2.97484 93.1509 4.54812 93.8037 6.18907 93.8053H120.03C121.671 93.8037 123.245 93.1509 124.405 91.9902C125.565 90.8295 126.218 89.2557 126.219 87.6142V6.19115C126.218 4.54965 125.565 2.97584 124.405 1.81512C123.245 0.654408 121.671 0.00161127 120.03 0ZM125.844 87.6142C125.842 89.156 125.229 90.6342 124.139 91.7245C123.049 92.8147 121.572 93.4281 120.03 93.4301H6.18907C4.64771 93.4281 3.17004 92.8147 2.08014 91.7245C0.990233 90.6342 0.377062 89.156 0.375095 87.6142V6.19115C0.377062 4.64927 0.990233 3.17111 2.08014 2.08084C3.17004 0.990569 4.64771 0.377189 6.18907 0.375221H120.03C121.572 0.377189 123.049 0.990569 124.139 2.08084C125.229 3.17111 125.842 4.64927 125.844 6.19115V87.6142Z" fill="#3F3D56"/>
<path d="M25.5068 13.977C27.5784 13.977 29.2578 12.2971 29.2578 10.2248C29.2578 8.15249 27.5784 6.47256 25.5068 6.47256C23.4352 6.47256 21.7559 8.15249 21.7559 10.2248C21.7559 12.2971 23.4352 13.977 25.5068 13.977Z" fill="white"/>
<path d="M100.713 13.977C102.784 13.977 104.464 12.2971 104.464 10.2248C104.464 8.15249 102.784 6.47256 100.713 6.47256C98.6413 6.47256 96.9619 8.15249 96.9619 10.2248C96.9619 12.2971 98.6413 13.977 100.713 13.977Z" fill="white"/>
<path d="M36.3441 52.0623H14.0304C13.0851 52.0612 12.1788 51.6851 11.5103 51.0165C10.8419 50.3478 10.4659 49.4412 10.4648 48.4956V37.9457C10.4659 37.0001 10.8419 36.0935 11.5103 35.4248C12.1788 34.7562 13.0851 34.3801 14.0304 34.379H36.3441C37.2894 34.3801 38.1957 34.7562 38.8641 35.4248C39.5326 36.0935 39.9086 37.0001 39.9096 37.9457V48.4956C39.9086 49.4412 39.5326 50.3478 38.8641 51.0165C38.1957 51.6851 37.2894 52.0612 36.3441 52.0623Z" fill="#65BFD4"/>
<path d="M74.303 52.0623H51.9894C51.0441 52.0612 50.1378 51.6851 49.4693 51.0165C48.8009 50.3478 48.4249 49.4412 48.4238 48.4956V37.9457C48.4249 37.0001 48.8009 36.0935 49.4693 35.4248C50.1378 34.7562 51.0441 34.3801 51.9894 34.379H74.303C75.2484 34.3801 76.1547 34.7562 76.8231 35.4248C77.4915 36.0935 77.8675 37.0001 77.8686 37.9457V48.4956C77.8675 49.4412 77.4915 50.3478 76.8231 51.0165C76.1547 51.6851 75.2484 52.0612 74.303 52.0623Z" fill="#65BFD4"/>
<path d="M74.3027 79.3205H51.989C51.0151 79.3194 50.0813 78.9319 49.3926 78.243C48.7039 77.554 48.3165 76.62 48.3154 75.6457V65.0957C48.3165 64.1214 48.7039 63.1874 49.3926 62.4984C50.0813 61.8095 51.0151 61.422 51.989 61.4209H74.3027C75.2767 61.422 76.2105 61.8095 76.8991 62.4984C77.5878 63.1874 77.9752 64.1214 77.9763 65.0957V75.6457C77.9752 76.62 77.5878 77.554 76.8991 78.243C76.2105 78.9319 75.2767 79.3194 74.3027 79.3205Z" fill="#F2F2F2"/>
<path d="M36.2705 79.3205H13.9568C12.9828 79.3194 12.0491 78.9319 11.3604 78.243C10.6717 77.554 10.2843 76.62 10.2832 75.6457V65.0957C10.2843 64.1214 10.6717 63.1874 11.3604 62.4984C12.0491 61.8095 12.9828 61.422 13.9568 61.4209H36.2705C37.2444 61.422 38.1782 61.8095 38.8669 62.4984C39.5556 63.1874 39.943 64.1214 39.9441 65.0957V75.6457C39.943 76.62 39.5556 77.554 38.8669 78.243C38.1782 78.9319 37.2444 79.3194 36.2705 79.3205Z" fill="#F2F2F2"/>
<path d="M112.263 79.3205H89.949C88.975 79.3194 88.0413 78.9319 87.3526 78.243C86.6639 77.554 86.2765 76.62 86.2754 75.6457V65.0957C86.2765 64.1214 86.6639 63.1874 87.3526 62.4984C88.0413 61.8095 88.975 61.422 89.949 61.4209H112.263C113.237 61.422 114.17 61.8095 114.859 62.4984C115.548 63.1874 115.935 64.1214 115.936 65.0957V75.6457C115.935 76.62 115.548 77.554 114.859 78.243C114.17 78.9319 113.237 79.3194 112.263 79.3205Z" fill="#F2F2F2"/>
<path d="M112.263 52.0835H89.949C88.975 52.0824 88.0413 51.6949 87.3526 51.006C86.6639 50.3171 86.2765 49.383 86.2754 48.4087V37.8588C86.2765 36.8845 86.6639 35.9504 87.3526 35.2615C88.0413 34.5725 88.975 34.185 89.949 34.1839H112.263C113.237 34.185 114.17 34.5725 114.859 35.2615C115.548 35.9504 115.935 36.8845 115.936 37.8588V48.4087C115.935 49.383 115.548 50.3171 114.859 51.006C114.17 51.6949 113.237 52.0824 112.263 52.0835Z" fill="#F2F2F2"/>
<path d="M25.1873 49.2733C28.529 49.2733 31.238 46.5634 31.238 43.2206C31.238 39.8779 28.529 37.168 25.1873 37.168C21.8457 37.168 19.1367 39.8779 19.1367 43.2206C19.1367 46.5634 21.8457 49.2733 25.1873 49.2733Z" fill="white"/>
<path d="M24.5875 45.5296C24.4513 45.5298 24.3188 45.4858 24.2099 45.4041L24.2032 45.3991L22.7812 44.31C22.7153 44.2596 22.6599 44.1966 22.6183 44.1248C22.5767 44.0529 22.5496 43.9736 22.5387 43.8912C22.5278 43.8089 22.5332 43.7253 22.5546 43.645C22.576 43.5648 22.613 43.4896 22.6635 43.4236C22.714 43.3577 22.7769 43.3024 22.8488 43.2609C22.9207 43.2193 23 43.1923 23.0823 43.1815C23.1646 43.1706 23.2483 43.1761 23.3285 43.1976C23.4086 43.2191 23.4838 43.2562 23.5497 43.3067L24.4707 44.0132L26.6472 41.1738C26.6977 41.1079 26.7606 41.0526 26.8325 41.0111C26.9043 40.9696 26.9836 40.9426 27.0658 40.9318C27.1481 40.9209 27.2317 40.9264 27.3118 40.9478C27.392 40.9693 27.4671 41.0063 27.5329 41.0568C27.6657 41.1589 27.753 41.3098 27.7749 41.4759C27.7968 41.642 27.752 41.81 27.6502 41.9431L25.0901 45.283C25.0309 45.3599 24.9547 45.4222 24.8676 45.465C24.7804 45.5078 24.6846 45.5299 24.5875 45.5296Z" fill="#FFAA81"/>
<path d="M63.2547 49.1864C66.5964 49.1864 69.3054 46.4765 69.3054 43.1337C69.3054 39.7909 66.5964 37.0811 63.2547 37.0811C59.9131 37.0811 57.2041 39.7909 57.2041 43.1337C57.2041 46.4765 59.9131 49.1864 63.2547 49.1864Z" fill="white"/>
<path d="M62.6544 45.4427C62.5182 45.4429 62.3857 45.3989 62.2768 45.3172L62.27 45.3122L60.8481 44.2231C60.7151 44.1212 60.628 43.9706 60.6061 43.8044C60.5841 43.6383 60.629 43.4702 60.7309 43.3371C60.8328 43.2041 60.9833 43.117 61.1494 43.095C61.3155 43.073 61.4836 43.1179 61.6165 43.2198L62.5376 43.9263L64.7141 41.0869C64.7646 41.021 64.8275 40.9657 64.8994 40.9242C64.9712 40.8827 65.0505 40.8557 65.1327 40.8449C65.215 40.834 65.2986 40.8395 65.3787 40.8609C65.4589 40.8824 65.534 40.9194 65.5998 40.9699L65.5863 40.9883L65.6002 40.9702C65.733 41.0723 65.8199 41.2229 65.8418 41.389C65.8637 41.5551 65.8189 41.7231 65.7171 41.8562L63.157 45.1961C63.0978 45.273 63.0216 45.3353 62.9345 45.3781C62.8473 45.4209 62.7515 45.443 62.6544 45.4427Z" fill="#FFAA81"/>
<path d="M112.409 51.9295H90.0958C89.1505 51.9284 88.2442 51.5523 87.5758 50.8836C86.9073 50.215 86.5313 49.3084 86.5303 48.3627V37.8129C86.5313 36.8673 86.9073 35.9607 87.5758 35.292C88.2442 34.6233 89.1505 34.2472 90.0958 34.2462H112.409C113.355 34.2472 114.261 34.6233 114.93 35.292C115.598 35.9607 115.974 36.8673 115.975 37.8129V48.3627C115.974 49.3084 115.598 50.215 114.93 50.8836C114.261 51.5523 113.355 51.9284 112.409 51.9295Z" fill="#65BFD4"/>
<path d="M101.361 49.0536C104.703 49.0536 107.412 46.3437 107.412 43.001C107.412 39.6582 104.703 36.9483 101.361 36.9483C98.0195 36.9483 95.3105 39.6582 95.3105 43.001C95.3105 46.3437 98.0195 49.0536 101.361 49.0536Z" fill="white"/>
<path d="M100.761 45.3099C100.625 45.3101 100.492 45.2661 100.383 45.1844L100.376 45.1794L98.9545 44.0903C98.8216 43.9884 98.7345 43.8378 98.7125 43.6716C98.6905 43.5054 98.7354 43.3374 98.8373 43.2043C98.9392 43.0713 99.0898 42.9842 99.2559 42.9622C99.422 42.9402 99.59 42.9851 99.723 43.087L100.644 43.7935L102.821 40.954C102.871 40.8882 102.934 40.8329 103.006 40.7914C103.078 40.7499 103.157 40.7229 103.239 40.7121C103.321 40.7012 103.405 40.7066 103.485 40.7281C103.565 40.7495 103.64 40.7866 103.706 40.8371L103.693 40.8555L103.707 40.8374C103.839 40.9395 103.926 41.0901 103.948 41.2562C103.97 41.4223 103.925 41.5903 103.824 41.7234L101.263 45.0633C101.204 45.1402 101.128 45.2025 101.041 45.2453C100.954 45.288 100.858 45.3102 100.761 45.3099Z" fill="#FFAA81"/>
<path d="M36.4915 78.8372H14.1779C13.2325 78.8361 12.3262 78.46 11.6578 77.7913C10.9894 77.1226 10.6134 76.2161 10.6123 75.2704V64.7206C10.6134 63.775 10.9894 62.8684 11.6578 62.1997C12.3262 61.531 13.2325 61.1549 14.1779 61.1538H36.4915C37.4368 61.1549 38.3431 61.531 39.0116 62.1997C39.68 62.8684 40.056 63.775 40.0571 64.7206V75.2704C40.056 76.2161 39.68 77.1226 39.0116 77.7913C38.3431 78.46 37.4368 78.8361 36.4915 78.8372Z" fill="#65BFD4"/>
<path d="M25.4422 75.9613C28.7839 75.9613 31.4928 73.2515 31.4928 69.9087C31.4928 66.5659 28.7839 63.856 25.4422 63.856C22.1006 63.856 19.3916 66.5659 19.3916 69.9087C19.3916 73.2515 22.1006 75.9613 25.4422 75.9613Z" fill="white"/>
<path d="M24.8428 72.2176C24.7067 72.2178 24.5742 72.1738 24.4653 72.0921L24.4585 72.087L23.0366 70.998C22.9036 70.8961 22.8165 70.7454 22.7945 70.5793C22.7725 70.4131 22.8174 70.2451 22.9193 70.112C23.0212 69.979 23.1718 69.8919 23.3379 69.8699C23.504 69.8479 23.672 69.8928 23.805 69.9947L24.726 70.7012L26.9026 67.8617C26.9531 67.7959 27.016 67.7406 27.0878 67.6991C27.1597 67.6576 27.239 67.6306 27.3212 67.6198C27.4035 67.6089 27.487 67.6143 27.5672 67.6358C27.6473 67.6572 27.7225 67.6943 27.7883 67.7448L27.7748 67.7632L27.7886 67.7451C27.9214 67.8472 28.0083 67.9978 28.0302 68.1639C28.0522 68.33 28.0073 68.498 27.9056 68.6311L25.3454 71.971C25.2862 72.0479 25.2101 72.1102 25.1229 72.153C25.0358 72.1957 24.9399 72.2178 24.8428 72.2176Z" fill="#FFAA81"/>
<path d="M74.0423 78.8372H51.7286C50.7833 78.8361 49.877 78.46 49.2086 77.7913C48.5402 77.1226 48.1642 76.2161 48.1631 75.2704V64.7206C48.1642 63.775 48.5402 62.8684 49.2086 62.1997C49.877 61.531 50.7833 61.1549 51.7286 61.1538H74.0423C74.9876 61.1549 75.8939 61.531 76.5623 62.1997C77.2308 62.8684 77.6068 63.775 77.6079 64.7206V75.2704C77.6068 76.2161 77.2308 77.1226 76.5623 77.7913C75.8939 78.46 74.9876 78.8361 74.0423 78.8372Z" fill="#65BFD4"/>
<path d="M62.994 75.9613C66.3356 75.9613 69.0446 73.2515 69.0446 69.9087C69.0446 66.5659 66.3356 63.856 62.994 63.856C59.6523 63.856 56.9434 66.5659 56.9434 69.9087C56.9434 73.2515 59.6523 75.9613 62.994 75.9613Z" fill="white"/>
<path d="M62.3936 72.2176C62.2575 72.2178 62.125 72.1738 62.0161 72.0921L62.0093 72.087L60.5874 70.998C60.4544 70.8961 60.3673 70.7454 60.3453 70.5793C60.3233 70.4131 60.3682 70.2451 60.4701 70.112C60.572 69.979 60.7226 69.8919 60.8887 69.8699C61.0548 69.8479 61.2228 69.8928 61.3558 69.9947L62.2768 70.7012L64.4534 67.8617C64.5038 67.7959 64.5668 67.7406 64.6386 67.6991C64.7105 67.6576 64.7898 67.6306 64.872 67.6198C64.9542 67.6089 65.0378 67.6143 65.118 67.6358C65.1981 67.6572 65.2732 67.6943 65.3391 67.7448L65.3255 67.7632L65.3394 67.7451C65.4722 67.8472 65.5591 67.9978 65.581 68.1639C65.6029 68.33 65.5581 68.498 65.4563 68.6311L62.8962 71.971C62.837 72.0479 62.7609 72.1102 62.6737 72.153C62.5866 72.1957 62.4907 72.2178 62.3936 72.2176Z" fill="#FFAA81"/>
<path d="M112.409 78.8372H90.0958C89.1505 78.8361 88.2442 78.46 87.5758 77.7913C86.9073 77.1226 86.5313 76.2161 86.5303 75.2704V64.7206C86.5313 63.775 86.9073 62.8684 87.5758 62.1997C88.2442 61.531 89.1505 61.1549 90.0958 61.1538H112.409C113.355 61.1549 114.261 61.531 114.93 62.1997C115.598 62.8684 115.974 63.775 115.975 64.7206V75.2704C115.974 76.2161 115.598 77.1226 114.93 77.7913C114.261 78.46 113.355 78.8361 112.409 78.8372Z" fill="#65BFD4"/>
<path d="M101.361 75.9613C104.703 75.9613 107.412 73.2515 107.412 69.9087C107.412 66.5659 104.703 63.856 101.361 63.856C98.0195 63.856 95.3105 66.5659 95.3105 69.9087C95.3105 73.2515 98.0195 75.9613 101.361 75.9613Z" fill="white"/>
<path d="M100.761 72.2176C100.625 72.2178 100.492 72.1738 100.383 72.0921L100.376 72.087L98.9545 70.998C98.8216 70.8961 98.7345 70.7454 98.7125 70.5793C98.6905 70.4131 98.7354 70.2451 98.8373 70.112C98.9392 69.979 99.0898 69.8919 99.2559 69.8699C99.422 69.8479 99.59 69.8928 99.723 69.9947L100.644 70.7012L102.821 67.8617C102.871 67.7959 102.934 67.7406 103.006 67.6991C103.078 67.6576 103.157 67.6306 103.239 67.6198C103.321 67.6089 103.405 67.6143 103.485 67.6358C103.565 67.6572 103.64 67.6943 103.706 67.7448L103.693 67.7632L103.707 67.7451C103.839 67.8472 103.926 67.9978 103.948 68.1639C103.97 68.33 103.925 68.498 103.824 68.6311L101.263 71.971C101.204 72.0479 101.128 72.1102 101.041 72.153C100.954 72.1957 100.858 72.2178 100.761 72.2176Z" fill="#FFAA81"/>
<path d="M104.147 71.6953C104.346 71.4779 104.495 71.2195 104.583 70.9384C104.671 70.6572 104.697 70.3602 104.658 70.0681C104.619 69.7761 104.516 69.4962 104.357 69.2481C104.198 69 103.987 68.7897 103.738 68.6322L100.36 50.5891L96.252 52.113L100.864 69.3696C100.627 69.8054 100.558 70.313 100.671 70.7962C100.783 71.2794 101.068 71.7046 101.473 71.9913C101.878 72.278 102.374 72.4062 102.866 72.3516C103.359 72.2971 103.815 72.0636 104.147 71.6953Z" fill="#A0616A"/>
<path d="M71.3671 44.1636C71.3773 44.2756 71.3787 44.3883 71.3712 44.5006L79.3589 50.6504L81.624 49.7199L83.4746 52.956L79.6246 54.9931C79.3136 55.1576 78.9576 55.2168 78.6101 55.1618C78.2625 55.1067 77.9422 54.9404 77.6973 54.6877L69.7132 46.4536C69.2906 46.549 68.8489 46.5134 68.447 46.3515C68.0451 46.1896 67.702 45.9092 67.4633 45.5475C67.2246 45.1859 67.1017 44.7601 67.1108 44.3268C67.12 43.8935 67.2607 43.4732 67.5145 43.1219C67.7682 42.7706 68.1228 42.5049 68.5312 42.3601C68.9395 42.2154 69.3823 42.1984 69.8005 42.3115C70.2187 42.4246 70.5926 42.6623 70.8725 42.9932C71.1523 43.324 71.3249 43.7323 71.3671 44.1636H71.3671Z" fill="#A0616A"/>
<path d="M90.0279 103.72H87.7287L86.6348 96.7247L90.0284 96.7249L90.0279 103.72Z" fill="#A0616A"/>
<path d="M90.6141 105.95L83.2002 105.95V105.856C83.2002 105.477 83.2748 105.101 83.4198 104.751C83.5649 104.401 83.7774 104.083 84.0454 103.815C84.3133 103.547 84.6315 103.334 84.9816 103.189C85.3317 103.044 85.7069 102.969 86.0859 102.969H86.0861L90.6142 102.969L90.6141 105.95Z" fill="#2F2E41"/>
<path d="M98.6548 103.72H96.3557L95.2617 96.7247L98.6554 96.7249L98.6548 103.72Z" fill="#A0616A"/>
<path d="M99.242 105.95L91.8281 105.95V105.856C91.8281 105.477 91.9028 105.101 92.0478 104.751C92.1928 104.401 92.4054 104.083 92.6733 103.815C92.9413 103.547 93.2594 103.334 93.6095 103.189C93.9596 103.044 94.3349 102.969 94.7138 102.969H94.714L99.2421 102.969L99.242 105.95Z" fill="#2F2E41"/>
<path d="M87.2511 102.338C87.0412 102.338 86.8388 102.26 86.6836 102.118C86.5283 101.977 86.4314 101.783 86.4119 101.574L84.4082 74.616L84.5029 74.6083L98.2916 73.4746L98.2953 73.5726L99.3914 101.499C99.3956 101.612 99.377 101.725 99.3365 101.831C99.296 101.937 99.2346 102.034 99.1558 102.116C99.0771 102.198 98.9827 102.263 98.8782 102.307C98.7738 102.351 98.6615 102.374 98.548 102.374H95.8444C95.6425 102.375 95.4471 102.303 95.2939 102.172C95.1407 102.041 95.04 101.858 95.0103 101.659L91.3388 79.0993C91.3352 79.076 91.323 79.0549 91.3045 79.0402C91.2861 79.0255 91.2628 79.0183 91.2393 79.02C91.2158 79.0217 91.1938 79.0322 91.1777 79.0494C91.1616 79.0666 91.1525 79.0892 91.1524 79.1128L90.9858 101.387C90.9841 101.602 90.9004 101.808 90.7519 101.964C90.6033 102.119 90.401 102.212 90.1863 102.224L87.2964 102.336C87.2813 102.337 87.2661 102.338 87.2511 102.338Z" fill="#2F2E41"/>
<path d="M89.6044 40.5474C92.1484 40.5474 94.2108 38.4844 94.2108 35.9395C94.2108 33.3946 92.1484 31.3316 89.6044 31.3316C87.0604 31.3316 84.998 33.3946 84.998 35.9395C84.998 38.4844 87.0604 40.5474 89.6044 40.5474Z" fill="#A0616A"/>
<path d="M90.4969 76.3353C88.4835 76.3293 86.4799 76.0554 84.5388 75.5208C84.352 75.4664 84.1897 75.3492 84.0791 75.1891C83.9686 75.0289 83.9166 74.8355 83.9319 74.6415C84.5521 65.3185 84.6979 58.0836 83.3939 53.0777C82.8381 50.9442 83.0904 48.6972 84.0861 46.9129C85.5846 44.2276 88.3388 42.5933 91.2767 42.6497C91.4171 42.6523 91.5589 42.6573 91.7021 42.6647C96.1606 42.8944 99.6348 46.9292 99.4467 51.6591L98.5499 74.204C98.5466 74.3685 98.4947 74.5283 98.4008 74.6633C98.3068 74.7984 98.175 74.9025 98.0219 74.9627C95.6162 75.868 93.0672 76.333 90.4969 76.3353Z" fill="#FFAA81"/>
<path d="M84.1518 54.8087L80.7014 50.5791C80.6032 50.4588 80.5321 50.3187 80.4929 50.1684C80.4538 50.018 80.4475 49.8611 80.4744 49.7081C80.5014 49.5551 80.561 49.4098 80.6491 49.2819C80.7373 49.154 80.852 49.0467 80.9854 48.9672L85.6593 46.1812C86.2777 45.6821 87.0686 45.4487 87.8588 45.5321C88.6489 45.6155 89.3737 46.009 89.8743 46.6263C90.3748 47.2435 90.6102 48.0341 90.5289 48.8248C90.4475 49.6154 90.0561 50.3414 89.4403 50.8438L85.7874 54.8536C85.6828 54.9684 85.5547 55.0592 85.4118 55.12C85.2689 55.1808 85.1145 55.21 84.9593 55.2058C84.8041 55.2015 84.6516 55.1638 84.5123 55.0953C84.3729 55.0268 84.25 54.929 84.1518 54.8087Z" fill="#FFAA81"/>
<path d="M95.0055 54.278C94.8637 54.2145 94.7374 54.1213 94.6349 54.0045C94.5325 53.8877 94.4565 53.7503 94.4121 53.6014L92.8588 48.4036C92.5216 47.6839 92.4835 46.8597 92.753 46.112C93.0224 45.3642 93.5773 44.7538 94.2959 44.4147C95.0146 44.0756 95.8384 44.0355 96.5866 44.3032C97.3348 44.5708 97.9463 45.1244 98.2871 45.8425L101.291 50.3805C101.377 50.51 101.433 50.6565 101.457 50.8099C101.481 50.9634 101.472 51.1202 101.43 51.2697C101.388 51.4193 101.314 51.558 101.214 51.6764C101.113 51.7949 100.989 51.8903 100.848 51.9561L95.9053 54.2705C95.7647 54.3364 95.6115 54.3712 95.4562 54.3725C95.3009 54.3738 95.1472 54.3416 95.0055 54.278Z" fill="#FFAA81"/>
<path d="M91.8809 39.7204L88.4664 38.9386C88.1142 38.858 87.6911 38.7041 87.6422 38.346C87.5766 37.8648 88.2689 37.5295 88.205 37.048C88.1432 36.5817 87.5125 36.5216 87.0628 36.3839C86.644 36.2369 86.2988 35.9327 86.1002 35.5356C85.9016 35.1385 85.8653 34.6797 85.999 34.2563C85.5124 34.9422 84.4008 35.001 83.7697 34.4453C83.1386 33.8896 83.0175 32.8813 83.3965 32.1306C83.6013 31.7618 83.8901 31.4466 84.2396 31.2106C84.5891 30.9745 84.9893 30.8243 85.4078 30.7722C86.2491 30.6768 87.0998 30.8354 87.8502 31.2277C87.9002 30.6961 88.5637 30.4806 89.0974 30.4759C90.2061 30.4888 91.2832 30.8471 92.1788 31.501C93.0744 32.1549 93.744 33.0719 94.0943 34.1242C94.7492 36.2352 94.3111 38.5493 92.4787 39.7844L91.8809 39.7204Z" fill="#2F2E41"/>
</g>
<defs>
<clipPath id="clip0">
<rect width="160" height="106" fill="white"/>
</clipPath>
</defs>
</svg>
