<svg width="160" height="116" viewBox="0 0 160 116" fill="none" xmlns="http://www.w3.org/2000/svg">
<g clip-path="url(#clip0)">
<g opacity="0.5">
<path opacity="0.5" d="M4.02535 51.3392C3.7103 51.8036 3.4512 52.4781 3.86341 53.2643C4.67311 54.8074 6.67528 54.4899 7.64839 55.9669C7.90841 56.3761 8.05334 56.8477 8.06797 57.3321C8.10477 58.1683 7.84567 58.8266 7.7117 59.5629C7.53648 60.4312 7.67303 61.3333 8.09741 62.1111C8.5751 62.9231 9.29597 63.5651 10.1585 63.9466C10.9122 64.2787 11.6307 64.364 12.352 64.5256C13.2469 64.7305 14.1185 65.0259 14.9534 65.4073C15.3502 65.5734 15.7234 65.7908 16.0634 66.054C16.4782 66.4173 16.8545 66.8221 17.1867 67.2619L20.318 71.121C20.7159 71.6413 21.1593 72.1252 21.643 72.5671C22.1707 72.992 22.7505 73.348 23.3684 73.6266C24.6183 74.2482 25.9256 74.8846 27.0106 74.8126C28.0956 74.7405 28.8493 73.6957 28.3355 72.2349C27.8497 70.8447 26.4806 69.6735 25.8593 68.2862C24.8803 66.0995 26.1626 64.4654 25.3426 62.2757C24.5564 60.1713 22.3526 58.7605 20.9452 56.8383C19.9353 55.4716 19.3729 53.8816 18.4631 52.4458C17.1381 50.3884 15.1654 48.8145 13.3104 48.018C11.6791 47.3257 9.89266 47.0787 8.13421 47.3023C7.4629 47.3758 6.80189 47.5007 6.3249 47.9019C5.81847 48.3281 5.88324 49.1246 5.55347 49.6904C5.17512 50.3414 4.45375 50.7102 4.02535 51.3392Z" fill="#65BFD4"/>
<path opacity="0.5" d="M5.99121 48.3795C5.99121 48.3795 21.667 63.009 27.9886 74.3996" stroke="#535461" stroke-width="2" stroke-miterlimit="10"/>
<path opacity="0.5" d="M3.92383 53.354C3.92383 53.354 10.188 52.1386 14.5236 57.0132" stroke="#535461" stroke-width="2" stroke-miterlimit="10"/>
<path opacity="0.5" d="M8.37598 62.5402C8.37598 62.5402 15.2952 57.7097 17.689 60.5195" stroke="#535461" stroke-width="2" stroke-miterlimit="10"/>
<path opacity="0.5" d="M13.2805 47.9827C13.2805 47.9827 12.5518 51.6802 15.1738 57.7201" stroke="#535461" stroke-width="2" stroke-miterlimit="10"/>
<path opacity="0.5" d="M25.3352 62.333C25.3352 62.333 24.7228 64.7578 19.7998 62.9752" stroke="#535461" stroke-width="2" stroke-miterlimit="10"/>
<path opacity="0.5" d="M20.3369 70.8153C20.3369 70.8153 23.3416 67.3486 21.9755 65.6469" stroke="#535461" stroke-width="2" stroke-miterlimit="10"/>
</g>
<path d="M1.07932 34.3702C0.343224 35.2387 -0.345759 36.4408 0.196006 37.6267C1.23831 39.9545 5.09691 38.8156 6.4734 40.9832C6.88562 41.6313 6.94156 42.4234 6.84587 43.1302C6.66037 44.5131 5.97433 45.6873 5.50029 46.9511C5.02625 48.2149 4.78039 49.7433 5.44876 51.0777C6.09211 52.3694 7.44799 53.185 8.76118 53.5098C10.0744 53.8346 11.3905 53.7611 12.7022 53.8037C14.2605 53.8647 15.8078 54.0923 17.3175 54.4826C17.981 54.6326 18.6162 54.8876 19.199 55.238C19.8688 55.6656 20.4106 56.2931 20.9406 56.9103L25.6516 62.3904C26.2772 63.1251 26.9162 63.8599 27.692 64.3992C28.5871 65.0209 29.6059 65.3368 30.6084 65.641C32.7652 66.2994 35.025 66.9636 37.086 66.5125C39.1471 66.0613 40.8769 64.095 40.3616 61.8187C39.8714 59.6511 37.6602 58.1139 36.9152 55.9904C35.7375 52.6442 38.6451 49.5405 37.7721 46.1355C36.9359 42.8701 33.2289 41.186 31.1678 38.4218C29.6957 36.4408 29.1156 33.9631 27.8289 31.8558C25.971 28.8138 22.7322 26.799 19.5081 26.0333C16.284 25.2677 13.0408 25.6248 10.017 26.3904C8.73615 26.7152 7.45535 27.1252 6.43954 27.9364C5.36043 28.7991 5.23677 30.1084 4.45062 31.1489C3.53934 32.3583 2.07157 33.1945 1.07932 34.3702Z" fill="#65BFD4"/>
<path d="M5.66504 28.8446C5.66504 28.8446 30.6436 48.4633 39.0483 65.5249" stroke="#535461" stroke-width="2" stroke-miterlimit="10"/>
<path d="M0.275391 37.7501C0.275391 37.7501 12.4018 33.8337 19.0516 40.6393" stroke="#535461" stroke-width="2" stroke-miterlimit="10"/>
<path d="M5.83984 51.711C5.83984 51.711 20.2835 41.571 23.9345 45.5256" stroke="#535461" stroke-width="2" stroke-miterlimit="10"/>
<path d="M19.4711 25.976C19.4711 25.976 16.9817 32.3524 20.06 41.621" stroke="#535461" stroke-width="2" stroke-miterlimit="10"/>
<path d="M37.7334 46.228C37.7334 46.228 35.8476 50.4501 27.1484 48.9732" stroke="#535461" stroke-width="2" stroke-miterlimit="10"/>
<path d="M25.7783 61.8657C25.7783 61.8657 32.4723 55.1821 30.426 52.7544" stroke="#535461" stroke-width="2" stroke-miterlimit="10"/>
<path d="M144.297 0.0602417C144.297 0.0602417 139.022 5.32569 142 13.1394C144.978 20.953 136.895 33.9469 136.895 33.9469C136.895 33.9469 136.981 33.9337 137.142 33.9058C147.976 31.9953 153.359 19.6275 147.335 10.4383C145.096 7.02304 143.257 3.017 144.297 0.0602417Z" fill="#65BFD4"/>
<path d="M144.297 0.0602417C144.297 0.0602417 141.318 6.51457 144.297 11.78C147.275 17.0455 144.807 31.8234 136.895 33.9469" stroke="#535461" stroke-width="2" stroke-miterlimit="10"/>
<path d="M153.692 21.3586C153.692 21.3586 147.672 20.4019 147.124 25.7864C146.576 31.1709 135.55 31.9174 135.55 31.9174L135.756 32.0541C144.86 38.0191 153.569 35.8544 152.244 27.9393C151.763 24.9884 151.803 22.0258 153.692 21.3586Z" fill="#65BFD4"/>
<path opacity="0.2" d="M153.692 21.3586C153.692 21.3586 147.672 20.4019 147.124 25.7864C146.576 31.1709 135.55 31.9174 135.55 31.9174L135.756 32.0541C144.86 38.0191 153.569 35.8544 152.244 27.9393C151.763 24.9884 151.803 22.0258 153.692 21.3586Z" fill="#F5F5F5"/>
<path d="M153.692 21.3586C153.692 21.3586 149.019 22.3873 149.403 26.6226C149.787 30.8579 142.465 35.947 135.55 31.913" stroke="#535461" stroke-width="2" stroke-miterlimit="10"/>
<path d="M36.3192 41.1184C36.3192 41.1184 34.3671 34.5053 36.6858 29.6352C37.671 27.5994 37.968 25.2996 37.5323 23.0809C37.3173 22.0295 37.0064 20.9999 36.6033 20.0051" stroke="#535461" stroke-width="2" stroke-miterlimit="10"/>
<path d="M38.043 16.9264C38.043 17.7376 36.5708 20.0874 36.5708 20.0874C36.5708 20.0874 35.0986 17.7361 35.0986 16.9264C35.0986 16.5367 35.2537 16.1629 35.5298 15.8873C35.8059 15.6117 36.1804 15.4568 36.5708 15.4568C36.9613 15.4568 37.3357 15.6117 37.6118 15.8873C37.8879 16.1629 38.043 16.5367 38.043 16.9264Z" fill="#65BFD4"/>
<path d="M40.4747 21.4175C40.033 22.0979 37.5186 23.2735 37.5186 23.2735C37.5186 23.2735 37.5642 20.5019 38.0058 19.8215C38.1063 19.6501 38.2405 19.5007 38.4004 19.3825C38.5603 19.2643 38.7425 19.1796 38.9361 19.1337C39.1296 19.0877 39.3305 19.0814 39.5266 19.1151C39.7227 19.1489 39.9099 19.2219 40.0769 19.3299C40.2439 19.4378 40.3873 19.5785 40.4983 19.7433C40.6093 19.9081 40.6857 20.0936 40.7229 20.2888C40.7601 20.4839 40.7573 20.6845 40.7146 20.8785C40.672 21.0725 40.5903 21.2558 40.4747 21.4175Z" fill="#65BFD4"/>
<path d="M40.3685 29.0915C39.6427 29.4559 36.8779 29.2046 36.8779 29.2046C36.8779 29.2046 38.3192 26.8357 39.0435 26.4713C39.2169 26.3744 39.4081 26.3136 39.6056 26.2925C39.8031 26.2714 40.0028 26.2904 40.1928 26.3484C40.3828 26.4064 40.559 26.5021 40.7109 26.6299C40.8628 26.7577 40.9872 26.9148 41.0767 27.0918C41.1662 27.2689 41.2188 27.4621 41.2315 27.66C41.2442 27.8579 41.2166 28.0563 41.1504 28.2433C41.0843 28.4302 40.9809 28.6019 40.8465 28.7479C40.7121 28.8939 40.5495 29.0113 40.3685 29.093V29.0915Z" fill="#65BFD4"/>
<path d="M38.979 34.8786C38.3253 35.3606 35.5576 35.5781 35.5576 35.5781C35.5576 35.5781 36.5764 33.0005 37.23 32.5185C37.3843 32.3925 37.5627 32.2992 37.7542 32.2441C37.9458 32.189 38.1465 32.1733 38.3444 32.1979C38.5422 32.2226 38.7329 32.2871 38.905 32.3875C39.0771 32.4879 39.2269 32.6222 39.3455 32.7822C39.464 32.9422 39.5488 33.1245 39.5947 33.3182C39.6405 33.5118 39.6465 33.7128 39.6122 33.9088C39.5779 34.1048 39.5041 34.2919 39.3953 34.4586C39.2864 34.6253 39.1448 34.7682 38.979 34.8786Z" fill="#65BFD4"/>
<path d="M34.4318 23.4307C35.0207 23.995 37.728 24.5814 37.728 24.5814C37.728 24.5814 37.064 21.8906 36.4811 21.3263C36.3449 21.1812 36.1806 21.0652 35.9983 20.9853C35.8159 20.9055 35.6192 20.8634 35.42 20.8616C35.2209 20.8598 35.0234 20.8983 34.8396 20.9749C34.6558 21.0515 34.4895 21.1645 34.3508 21.3071C34.212 21.4497 34.1037 21.619 34.0323 21.8046C33.961 21.9902 33.9281 22.1883 33.9356 22.387C33.9432 22.5856 33.9911 22.7807 34.0764 22.9603C34.1616 23.14 34.2826 23.3005 34.4318 23.4322V23.4307Z" fill="#65BFD4"/>
<path d="M32.8901 30.2201C33.6159 30.5846 36.3806 30.3333 36.3806 30.3333C36.3806 30.3333 34.9394 27.9643 34.2151 27.5999C33.8692 27.4439 33.4764 27.4273 33.1185 27.5535C32.7607 27.6797 32.4655 27.939 32.2945 28.2772C32.1236 28.6154 32.0901 29.0065 32.2011 29.3688C32.312 29.7311 32.5589 30.0366 32.8901 30.2216V30.2201Z" fill="#65BFD4"/>
<path d="M32.301 37.0241C32.9547 37.5062 35.7224 37.7237 35.7224 37.7237C35.7224 37.7237 34.7036 35.146 34.05 34.664C33.7355 34.4546 33.3523 34.3739 32.9798 34.4388C32.6074 34.5037 32.2742 34.7091 32.0494 35.0125C31.8245 35.316 31.7252 35.6941 31.7721 36.0686C31.8189 36.4431 32.0083 36.7852 32.301 37.0241Z" fill="#65BFD4"/>
<path d="M157.879 79.5769H145.352C145.642 78.9988 145.793 78.3614 145.794 77.7149V20.7723C145.793 19.6624 145.351 18.5982 144.564 17.8137C143.778 17.0291 142.711 16.5884 141.599 16.5884H44.6309C43.5185 16.5884 42.4517 17.0295 41.6651 17.8147C40.8785 18.5999 40.4367 19.6648 40.4367 20.7752V77.7149C40.4372 78.3614 40.5884 78.9988 40.8783 79.5769H27.9084C27.6144 79.5769 27.3324 79.6935 27.1245 79.901C26.9166 80.1085 26.7998 80.39 26.7998 80.6835V81.5755C26.7998 83.2179 27.4534 84.793 28.6169 85.9544C29.7803 87.1158 31.3582 87.7682 33.0036 87.7682H152.792C154.438 87.7682 156.016 87.1158 157.179 85.9544C158.343 84.793 158.996 83.2179 158.996 81.5755V80.6835C158.996 80.5374 158.967 80.3928 158.911 80.2579C158.855 80.1231 158.772 80.0007 158.668 79.8979C158.564 79.795 158.441 79.7137 158.306 79.6586C158.17 79.6035 158.025 79.5757 157.879 79.5769ZM80.6936 83.1185L79.6189 81.9003H106.282L105.092 83.1185H80.6936Z" fill="url(#paint0_linear)"/>
<path d="M141.171 17.3923H45.0493C43.1581 17.3923 41.625 18.9227 41.625 20.8105V77.8105C41.625 79.6983 43.1581 81.2287 45.0493 81.2287H141.171C143.062 81.2287 144.595 79.6983 144.595 77.8105V20.8105C144.595 18.9227 143.062 17.3923 141.171 17.3923Z" fill="#535461"/>
<path d="M142.211 26.6976H43.793V78.848H142.211V26.6976Z" fill="#F1F1F4"/>
<path d="M93.0019 23.0178C93.4808 23.0178 93.869 22.6302 93.869 22.1522C93.869 21.6742 93.4808 21.2866 93.0019 21.2866C92.523 21.2866 92.1348 21.6742 92.1348 22.1522C92.1348 22.6302 92.523 23.0178 93.0019 23.0178Z" fill="white"/>
<path d="M108.198 78.9553L104.812 82.4175H80.9623L77.9061 78.9553H29.3755C29.0882 78.9553 28.8125 79.0692 28.6093 79.2721C28.4061 79.4749 28.292 79.75 28.292 80.0369V80.9098C28.292 81.7051 28.449 82.4926 28.7542 83.2273C29.0593 83.962 29.5065 84.6295 30.0702 85.1915C30.634 85.7536 31.3032 86.1992 32.0395 86.5029C32.7759 86.8066 33.5651 86.9624 34.3618 86.9614H151.43C153.038 86.9614 154.58 86.3238 155.717 85.1889C156.854 84.054 157.492 82.5148 157.492 80.9098V80.0369C157.492 79.75 157.378 79.4749 157.175 79.2721C156.972 79.0692 156.696 78.9553 156.409 78.9553H108.198Z" fill="#535461"/>
<path d="M76.7108 30.6713H49.8037V50.913H76.7108V30.6713Z" fill="white"/>
<path opacity="0.2" d="M61.4051 32.423H52.4365V37.4827H61.4051V32.423Z" fill="#FFAA81"/>
<path d="M74.0789 32.423H63.5498V33.5913H74.0789V32.423Z" fill="#E6E8EC"/>
<path d="M70.9593 34.3687H63.5498V35.537H70.9593V34.3687Z" fill="#E6E8EC"/>
<path d="M74.0789 36.3144H63.5498V37.4827H74.0789V36.3144Z" fill="#E6E8EC"/>
<path d="M74.0791 38.2615H52.4365V39.4298H74.0791V38.2615Z" fill="#E6E8EC"/>
<path d="M74.0791 40.2073H52.4365V41.3756H74.0791V40.2073Z" fill="#E6E8EC"/>
<path d="M74.0791 42.1544H52.4365V43.3227H74.0791V42.1544Z" fill="#E6E8EC"/>
<path d="M72.3243 44.1002H52.4365V45.2685H72.3243V44.1002Z" fill="#E6E8EC"/>
<path d="M74.0791 46.0458H52.4365V47.2141H74.0791V46.0458Z" fill="#E6E8EC"/>
<path d="M74.0791 47.993H52.4365V49.1613H74.0791V47.993Z" fill="#E6E8EC"/>
<path d="M106.348 30.6713H79.4404V50.913H106.348V30.6713Z" fill="white"/>
<path opacity="0.2" d="M91.0399 32.423H82.0713V37.4827H91.0399V32.423Z" fill="#FFAA81"/>
<path d="M103.716 32.423H93.1865V33.5913H103.716V32.423Z" fill="#E6E8EC"/>
<path d="M100.596 34.3687H93.1865V35.537H100.596V34.3687Z" fill="#E6E8EC"/>
<path d="M103.716 36.3144H93.1865V37.4827H103.716V36.3144Z" fill="#E6E8EC"/>
<path d="M103.714 38.2615H82.0713V39.4298H103.714V38.2615Z" fill="#E6E8EC"/>
<path d="M103.714 40.2073H82.0713V41.3756H103.714V40.2073Z" fill="#E6E8EC"/>
<path d="M103.714 42.1544H82.0713V43.3227H103.714V42.1544Z" fill="#E6E8EC"/>
<path d="M101.959 44.1002H82.0713V45.2685H101.959V44.1002Z" fill="#E6E8EC"/>
<path d="M103.714 46.0458H82.0713V47.2141H103.714V46.0458Z" fill="#E6E8EC"/>
<path d="M103.714 47.993H82.0713V49.1613H103.714V47.993Z" fill="#E6E8EC"/>
<path d="M135.982 30.6713H109.075V50.913H135.982V30.6713Z" fill="white"/>
<path opacity="0.2" d="M120.677 32.423H111.708V37.4827H120.677V32.423Z" fill="#FFAA81"/>
<path d="M133.35 32.423H122.821V33.5913H133.35V32.423Z" fill="#E6E8EC"/>
<path d="M130.231 34.3687H122.821V35.537H130.231V34.3687Z" fill="#E6E8EC"/>
<path d="M133.35 36.3144H122.821V37.4827H133.35V36.3144Z" fill="#E6E8EC"/>
<path d="M133.351 38.2615H111.708V39.4298H133.351V38.2615Z" fill="#E6E8EC"/>
<path d="M133.351 40.2073H111.708V41.3756H133.351V40.2073Z" fill="#E6E8EC"/>
<path d="M133.351 42.1544H111.708V43.3227H133.351V42.1544Z" fill="#E6E8EC"/>
<path d="M131.596 44.1002H111.708V45.2685H131.596V44.1002Z" fill="#E6E8EC"/>
<path d="M133.351 46.0458H111.708V47.2141H133.351V46.0458Z" fill="#E6E8EC"/>
<path d="M133.351 47.993H111.708V49.1613H133.351V47.993Z" fill="#E6E8EC"/>
<path d="M76.7108 53.4421H49.8037V73.6839H76.7108V53.4421Z" fill="white"/>
<path opacity="0.2" d="M61.4051 55.1939H52.4365V60.2536H61.4051V55.1939Z" fill="#65BFD4"/>
<path d="M74.0789 55.1939H63.5498V56.3622H74.0789V55.1939Z" fill="#E6E8EC"/>
<path d="M70.9593 57.1411H63.5498V58.3094H70.9593V57.1411Z" fill="#E6E8EC"/>
<path d="M74.0789 59.0867H63.5498V60.255H74.0789V59.0867Z" fill="#E6E8EC"/>
<path d="M74.0791 61.0325H52.4365V62.2008H74.0791V61.0325Z" fill="#E6E8EC"/>
<path d="M74.0791 62.9796H52.4365V64.1479H74.0791V62.9796Z" fill="#E6E8EC"/>
<path d="M74.0791 64.9254H52.4365V66.0937H74.0791V64.9254Z" fill="#E6E8EC"/>
<path d="M72.3243 66.8725H52.4365V68.0408H72.3243V66.8725Z" fill="#E6E8EC"/>
<path d="M74.0791 68.8182H52.4365V69.9865H74.0791V68.8182Z" fill="#E6E8EC"/>
<path d="M74.0791 70.7639H52.4365V71.9322H74.0791V70.7639Z" fill="#E6E8EC"/>
<path d="M106.348 53.4421H79.4404V73.6839H106.348V53.4421Z" fill="white"/>
<path opacity="0.2" d="M91.0399 55.1939H82.0713V60.2536H91.0399V55.1939Z" fill="#FFAA81"/>
<path d="M103.716 55.1939H93.1865V56.3622H103.716V55.1939Z" fill="#E6E8EC"/>
<path d="M100.596 57.1411H93.1865V58.3094H100.596V57.1411Z" fill="#E6E8EC"/>
<path d="M103.716 59.0867H93.1865V60.255H103.716V59.0867Z" fill="#E6E8EC"/>
<path d="M103.714 61.0325H82.0713V62.2008H103.714V61.0325Z" fill="#E6E8EC"/>
<path d="M103.714 62.9796H82.0713V64.1479H103.714V62.9796Z" fill="#E6E8EC"/>
<path d="M103.714 64.9254H82.0713V66.0937H103.714V64.9254Z" fill="#E6E8EC"/>
<path d="M101.959 66.8725H82.0713V68.0408H101.959V66.8725Z" fill="#E6E8EC"/>
<path d="M103.714 68.8182H82.0713V69.9865H103.714V68.8182Z" fill="#E6E8EC"/>
<path d="M103.714 70.7639H82.0713V71.9322H103.714V70.7639Z" fill="#E6E8EC"/>
<path opacity="0.1" d="M135.982 53.4421H109.075V73.6839H135.982V53.4421Z" fill="black"/>
<path d="M65.0805 37.4827H23.5649C23.065 37.4817 22.5699 37.5791 22.1078 37.7694C21.6457 37.9596 21.2256 38.2389 20.8718 38.5913C20.5179 38.9438 20.2371 39.3624 20.0455 39.8232C19.8538 40.2841 19.7551 40.7781 19.7549 41.2771V98.6988C19.7555 99.1974 19.8544 99.691 20.0462 100.151C20.2379 100.612 20.5186 101.03 20.8723 101.382C21.226 101.734 21.6457 102.013 22.1074 102.203C22.5692 102.394 23.0639 102.491 23.5634 102.49H65.079C65.5785 102.491 66.0733 102.394 66.535 102.203C66.9968 102.013 67.4165 101.734 67.7702 101.382C68.1238 101.03 68.4046 100.612 68.5963 100.151C68.788 99.691 68.887 99.1974 68.8876 98.6988V41.2771C68.8874 40.7784 68.7887 40.2846 68.5973 39.8239C68.4058 39.3632 68.1253 38.9448 67.7717 38.5924C67.4182 38.24 66.9985 37.9606 66.5367 37.7702C66.075 37.5798 65.5801 37.4821 65.0805 37.4827Z" fill="url(#paint1_linear)"/>
<path d="M65.3602 38.2615H23.2852C21.6591 38.2615 20.3408 39.5774 20.3408 41.2007V98.9663C20.3408 100.589 21.6591 101.905 23.2852 101.905H65.3602C66.9864 101.905 68.3046 100.589 68.3046 98.9663V41.2007C68.3046 39.5774 66.9864 38.2615 65.3602 38.2615Z" fill="#535461"/>
<path d="M65.8667 44.2823H22.7773V95.8861H65.8667V44.2823Z" fill="#F1F1F4"/>
<path d="M44.1274 41.765C44.4502 41.765 44.7119 41.5038 44.7119 41.1816C44.7119 40.8593 44.4502 40.5981 44.1274 40.5981C43.8046 40.5981 43.543 40.8593 43.543 41.1816C43.543 41.5038 43.8046 41.765 44.1274 41.765Z" fill="white"/>
<path d="M44.1269 100.543C45.0961 100.543 45.8818 99.7588 45.8818 98.7914C45.8818 97.8239 45.0961 97.0397 44.1269 97.0397C43.1577 97.0397 42.3721 97.8239 42.3721 98.7914C42.3721 99.7588 43.1577 100.543 44.1269 100.543Z" fill="white"/>
<path d="M36.9295 49.5552H24.6396V58.8017H36.9295V49.5552Z" fill="white"/>
<path opacity="0.2" d="M29.9399 50.3561H25.8428V52.6677H29.9399V50.3561Z" fill="#FFAA81"/>
<path d="M35.7286 50.3561H30.9189V50.8895H35.7286V50.3561Z" fill="#E6E8EC"/>
<path d="M34.3035 51.2452H30.9189V51.7786H34.3035V51.2452Z" fill="#E6E8EC"/>
<path d="M35.7286 52.1342H30.9189V52.6677H35.7286V52.1342Z" fill="#E6E8EC"/>
<path d="M35.7285 53.0233H25.8428V53.5568H35.7285V53.0233Z" fill="#E6E8EC"/>
<path d="M35.7285 53.9124H25.8428V54.4459H35.7285V53.9124Z" fill="#E6E8EC"/>
<path d="M35.7285 54.8015H25.8428V55.335H35.7285V54.8015Z" fill="#E6E8EC"/>
<path d="M34.9276 55.6906H25.8428V56.2241H34.9276V55.6906Z" fill="#E6E8EC"/>
<path d="M35.7285 56.5797H25.8428V57.1131H35.7285V56.5797Z" fill="#E6E8EC"/>
<path d="M35.7285 57.4688H25.8428V58.0022H35.7285V57.4688Z" fill="#E6E8EC"/>
<path d="M50.4675 49.5552H38.1777V58.8017H50.4675V49.5552Z" fill="white"/>
<path opacity="0.2" d="M43.477 50.3561H39.3799V52.6677H43.477V50.3561Z" fill="#FFAA81"/>
<path d="M49.2667 50.3561H44.457V50.8895H49.2667V50.3561Z" fill="#E6E8EC"/>
<path d="M47.8416 51.2452H44.457V51.7786H47.8416V51.2452Z" fill="#E6E8EC"/>
<path d="M49.2667 52.1342H44.457V52.6677H49.2667V52.1342Z" fill="#E6E8EC"/>
<path d="M49.2656 53.0233H39.3799V53.5568H49.2656V53.0233Z" fill="#E6E8EC"/>
<path d="M49.2656 53.9124H39.3799V54.4459H49.2656V53.9124Z" fill="#E6E8EC"/>
<path d="M49.2656 54.8015H39.3799V55.335H49.2656V54.8015Z" fill="#E6E8EC"/>
<path d="M48.4647 55.6906H39.3799V56.2241H48.4647V55.6906Z" fill="#E6E8EC"/>
<path d="M49.2656 56.5797H39.3799V57.1131H49.2656V56.5797Z" fill="#E6E8EC"/>
<path d="M49.2656 57.4688H39.3799V58.0022H49.2656V57.4688Z" fill="#E6E8EC"/>
<path d="M64.0047 49.5552H51.7148V58.8017H64.0047V49.5552Z" fill="white"/>
<path opacity="0.2" d="M57.0151 50.3561H52.918V52.6677H57.0151V50.3561Z" fill="#FFAA81"/>
<path d="M62.8038 50.3561H57.9941V50.8895H62.8038V50.3561Z" fill="#E6E8EC"/>
<path d="M61.3787 51.2452H57.9941V51.7786H61.3787V51.2452Z" fill="#E6E8EC"/>
<path d="M62.8038 52.1342H57.9941V52.6677H62.8038V52.1342Z" fill="#E6E8EC"/>
<path d="M62.8037 53.0233H52.918V53.5568H62.8037V53.0233Z" fill="#E6E8EC"/>
<path d="M62.8037 53.9124H52.918V54.4459H62.8037V53.9124Z" fill="#E6E8EC"/>
<path d="M62.8037 54.8015H52.918V55.335H62.8037V54.8015Z" fill="#E6E8EC"/>
<path d="M62.0028 55.6906H52.918V56.2241H62.0028V55.6906Z" fill="#E6E8EC"/>
<path d="M62.8037 56.5797H52.918V57.1131H62.8037V56.5797Z" fill="#E6E8EC"/>
<path d="M62.8037 57.4688H52.918V58.0022H62.8037V57.4688Z" fill="#E6E8EC"/>
<path d="M36.9295 59.9567H24.6396V69.2032H36.9295V59.9567Z" fill="white"/>
<path opacity="0.2" d="M29.9399 60.7576H25.8428V63.0692H29.9399V60.7576Z" fill="#65BFD4"/>
<path d="M35.7286 60.7576H30.9189V61.2911H35.7286V60.7576Z" fill="#E6E8EC"/>
<path d="M34.3035 61.6467H30.9189V62.1802H34.3035V61.6467Z" fill="#E6E8EC"/>
<path d="M35.7286 62.5358H30.9189V63.0693H35.7286V62.5358Z" fill="#E6E8EC"/>
<path d="M35.7285 63.4249H25.8428V63.9584H35.7285V63.4249Z" fill="#E6E8EC"/>
<path d="M35.7285 64.314H25.8428V64.8475H35.7285V64.314Z" fill="#E6E8EC"/>
<path d="M35.7285 65.2031H25.8428V65.7365H35.7285V65.2031Z" fill="#E6E8EC"/>
<path d="M34.9276 66.0922H25.8428V66.6256H34.9276V66.0922Z" fill="#E6E8EC"/>
<path d="M35.7285 66.9812H25.8428V67.5147H35.7285V66.9812Z" fill="#E6E8EC"/>
<path d="M35.7285 67.8704H25.8428V68.4038H35.7285V67.8704Z" fill="#E6E8EC"/>
<path d="M50.4675 59.9567H38.1777V69.2032H50.4675V59.9567Z" fill="white"/>
<path opacity="0.2" d="M43.477 60.7576H39.3799V63.0692H43.477V60.7576Z" fill="#65BFD4"/>
<path d="M49.2667 60.7576H44.457V61.2911H49.2667V60.7576Z" fill="#E6E8EC"/>
<path d="M47.8416 61.6467H44.457V62.1802H47.8416V61.6467Z" fill="#E6E8EC"/>
<path d="M49.2667 62.5358H44.457V63.0693H49.2667V62.5358Z" fill="#E6E8EC"/>
<path d="M49.2656 63.4249H39.3799V63.9584H49.2656V63.4249Z" fill="#E6E8EC"/>
<path d="M49.2656 64.314H39.3799V64.8475H49.2656V64.314Z" fill="#E6E8EC"/>
<path d="M49.2656 65.2031H39.3799V65.7365H49.2656V65.2031Z" fill="#E6E8EC"/>
<path d="M48.4647 66.0922H39.3799V66.6256H48.4647V66.0922Z" fill="#E6E8EC"/>
<path d="M49.2656 66.9812H39.3799V67.5147H49.2656V66.9812Z" fill="#E6E8EC"/>
<path d="M49.2656 67.8704H39.3799V68.4038H49.2656V67.8704Z" fill="#E6E8EC"/>
<path d="M64.0047 59.9567H51.7148V69.2032H64.0047V59.9567Z" fill="white"/>
<path opacity="0.2" d="M57.0151 60.7576H52.918V63.0692H57.0151V60.7576Z" fill="#FFAA81"/>
<path d="M62.8038 60.7576H57.9941V61.2911H62.8038V60.7576Z" fill="#E6E8EC"/>
<path d="M61.3787 61.6467H57.9941V62.1802H61.3787V61.6467Z" fill="#E6E8EC"/>
<path d="M62.8038 62.5358H57.9941V63.0693H62.8038V62.5358Z" fill="#E6E8EC"/>
<path d="M62.8037 63.4249H52.918V63.9584H62.8037V63.4249Z" fill="#E6E8EC"/>
<path d="M62.8037 64.314H52.918V64.8475H62.8037V64.314Z" fill="#E6E8EC"/>
<path d="M62.8037 65.2031H52.918V65.7365H62.8037V65.2031Z" fill="#E6E8EC"/>
<path d="M62.0028 66.0922H52.918V66.6256H62.0028V66.0922Z" fill="#E6E8EC"/>
<path d="M62.8037 66.9812H52.918V67.5147H62.8037V66.9812Z" fill="#E6E8EC"/>
<path d="M62.8037 67.8704H52.918V68.4038H62.8037V67.8704Z" fill="#E6E8EC"/>
<path d="M36.9295 70.7698H24.6396V80.0163H36.9295V70.7698Z" fill="white"/>
<path opacity="0.2" d="M29.9399 71.5707H25.8428V73.8823H29.9399V71.5707Z" fill="#65BFD4"/>
<path d="M35.7286 71.5707H30.9189V72.1041H35.7286V71.5707Z" fill="#E6E8EC"/>
<path d="M34.3035 72.4598H30.9189V72.9932H34.3035V72.4598Z" fill="#E6E8EC"/>
<path d="M35.7286 73.3489H30.9189V73.8823H35.7286V73.3489Z" fill="#E6E8EC"/>
<path d="M35.7285 74.2379H25.8428V74.7714H35.7285V74.2379Z" fill="#E6E8EC"/>
<path d="M35.7285 75.1271H25.8428V75.6605H35.7285V75.1271Z" fill="#E6E8EC"/>
<path d="M35.7285 76.0161H25.8428V76.5496H35.7285V76.0161Z" fill="#E6E8EC"/>
<path d="M34.9276 76.9052H25.8428V77.4387H34.9276V76.9052Z" fill="#E6E8EC"/>
<path d="M35.7285 77.7943H25.8428V78.3278H35.7285V77.7943Z" fill="#E6E8EC"/>
<path d="M35.7285 78.6833H25.8428V79.2168H35.7285V78.6833Z" fill="#E6E8EC"/>
<path d="M50.4675 70.7698H38.1777V80.0163H50.4675V70.7698Z" fill="white"/>
<path opacity="0.2" d="M43.477 71.5707H39.3799V73.8823H43.477V71.5707Z" fill="#65BFD4"/>
<path d="M49.2667 71.5707H44.457V72.1041H49.2667V71.5707Z" fill="#E6E8EC"/>
<path d="M47.8416 72.4598H44.457V72.9932H47.8416V72.4598Z" fill="#E6E8EC"/>
<path d="M49.2667 73.3489H44.457V73.8823H49.2667V73.3489Z" fill="#E6E8EC"/>
<path d="M49.2656 74.2379H39.3799V74.7714H49.2656V74.2379Z" fill="#E6E8EC"/>
<path d="M49.2656 75.1271H39.3799V75.6605H49.2656V75.1271Z" fill="#E6E8EC"/>
<path d="M49.2656 76.0161H39.3799V76.5496H49.2656V76.0161Z" fill="#E6E8EC"/>
<path d="M48.4647 76.9052H39.3799V77.4387H48.4647V76.9052Z" fill="#E6E8EC"/>
<path d="M49.2656 77.7943H39.3799V78.3278H49.2656V77.7943Z" fill="#E6E8EC"/>
<path d="M49.2656 78.6833H39.3799V79.2168H49.2656V78.6833Z" fill="#E6E8EC"/>
<path d="M64.0047 70.7698H51.7148V80.0163H64.0047V70.7698Z" fill="white"/>
<path opacity="0.2" d="M57.0151 71.5707H52.918V73.8823H57.0151V71.5707Z" fill="#FFAA81"/>
<path d="M62.8038 71.5707H57.9941V72.1041H62.8038V71.5707Z" fill="#E6E8EC"/>
<path d="M61.3787 72.4598H57.9941V72.9932H61.3787V72.4598Z" fill="#E6E8EC"/>
<path d="M62.8038 73.3489H57.9941V73.8823H62.8038V73.3489Z" fill="#E6E8EC"/>
<path d="M62.8037 74.2379H52.918V74.7714H62.8037V74.2379Z" fill="#E6E8EC"/>
<path d="M62.8037 75.1271H52.918V75.6605H62.8037V75.1271Z" fill="#E6E8EC"/>
<path d="M62.8037 76.0161H52.918V76.5496H62.8037V76.0161Z" fill="#E6E8EC"/>
<path d="M62.0028 76.9052H52.918V77.4387H62.0028V76.9052Z" fill="#E6E8EC"/>
<path d="M62.8037 77.7943H52.918V78.3278H62.8037V77.7943Z" fill="#E6E8EC"/>
<path d="M62.8037 78.6833H52.918V79.2168H62.8037V78.6833Z" fill="#E6E8EC"/>
<path d="M36.9295 81.1713H24.6396V90.4178H36.9295V81.1713Z" fill="white"/>
<path opacity="0.2" d="M29.9399 81.9722H25.8428V84.2839H29.9399V81.9722Z" fill="#65BFD4"/>
<path d="M35.7286 81.9722H30.9189V82.5057H35.7286V81.9722Z" fill="#E6E8EC"/>
<path d="M34.3035 82.8613H30.9189V83.3948H34.3035V82.8613Z" fill="#E6E8EC"/>
<path d="M35.7286 83.7504H30.9189V84.2839H35.7286V83.7504Z" fill="#E6E8EC"/>
<path d="M35.7285 84.6395H25.8428V85.173H35.7285V84.6395Z" fill="#E6E8EC"/>
<path d="M35.7285 85.5286H25.8428V86.0621H35.7285V85.5286Z" fill="#E6E8EC"/>
<path d="M35.7285 86.4177H25.8428V86.9511H35.7285V86.4177Z" fill="#E6E8EC"/>
<path d="M34.9276 87.3068H25.8428V87.8402H34.9276V87.3068Z" fill="#E6E8EC"/>
<path d="M35.7285 88.1959H25.8428V88.7293H35.7285V88.1959Z" fill="#E6E8EC"/>
<path d="M35.7285 89.085H25.8428V89.6184H35.7285V89.085Z" fill="#E6E8EC"/>
<path d="M50.4675 81.1713H38.1777V90.4178H50.4675V81.1713Z" fill="white"/>
<path opacity="0.2" d="M43.477 81.9722H39.3799V84.2839H43.477V81.9722Z" fill="#65BFD4"/>
<path d="M49.2667 81.9722H44.457V82.5057H49.2667V81.9722Z" fill="#E6E8EC"/>
<path d="M47.8416 82.8613H44.457V83.3948H47.8416V82.8613Z" fill="#E6E8EC"/>
<path d="M49.2667 83.7504H44.457V84.2839H49.2667V83.7504Z" fill="#E6E8EC"/>
<path d="M49.2656 84.6395H39.3799V85.173H49.2656V84.6395Z" fill="#E6E8EC"/>
<path d="M49.2656 85.5286H39.3799V86.0621H49.2656V85.5286Z" fill="#E6E8EC"/>
<path d="M49.2656 86.4177H39.3799V86.9511H49.2656V86.4177Z" fill="#E6E8EC"/>
<path d="M48.4647 87.3068H39.3799V87.8402H48.4647V87.3068Z" fill="#E6E8EC"/>
<path d="M49.2656 88.1959H39.3799V88.7293H49.2656V88.1959Z" fill="#E6E8EC"/>
<path d="M49.2656 89.085H39.3799V89.6184H49.2656V89.085Z" fill="#E6E8EC"/>
<path opacity="0.1" d="M64.0047 81.1713H51.7148V90.4178H64.0047V81.1713Z" fill="black"/>
<path d="M33.4367 56.9456H12.1194C11.8426 56.945 11.5683 56.9988 11.3123 57.1041C11.0563 57.2093 10.8236 57.3638 10.6274 57.5588C10.4313 57.7538 10.2755 57.9855 10.169 58.2406C10.0625 58.4957 10.0074 58.7692 10.0068 59.0456V105.644C10.0074 105.92 10.0625 106.194 10.169 106.449C10.2755 106.704 10.4313 106.936 10.6274 107.131C10.8236 107.326 11.0563 107.48 11.3123 107.585C11.5683 107.691 11.8426 107.745 12.1194 107.744H33.4367C33.7135 107.745 33.9878 107.691 34.2438 107.585C34.4998 107.48 34.7325 107.326 34.9287 107.131C35.1248 106.936 35.2806 106.704 35.3871 106.449C35.4936 106.194 35.5487 105.92 35.5492 105.644V59.047C35.5489 58.7706 35.4939 58.4969 35.3875 58.2416C35.2811 57.9863 35.1254 57.7545 34.9292 57.5593C34.733 57.3642 34.5002 57.2095 34.2441 57.1042C33.988 56.9989 33.7136 56.945 33.4367 56.9456Z" fill="url(#paint2_linear)"/>
<path d="M33.735 57.3365H11.8216C10.9272 57.3365 10.2021 58.0602 10.2021 58.953V105.935C10.2021 106.828 10.9272 107.551 11.8216 107.551H33.735C34.6294 107.551 35.3544 106.828 35.3544 105.935V58.953C35.3544 58.0602 34.6294 57.3365 33.735 57.3365Z" fill="#535461"/>
<path d="M33.5015 62.0068H12.0547V102.878H33.5015V62.0068Z" fill="#F1F1F4"/>
<path d="M20.2422 59.8656C20.3495 59.8656 20.4365 59.7788 20.4365 59.6716C20.4365 59.5645 20.3495 59.4777 20.2422 59.4777C20.1349 59.4777 20.0479 59.5645 20.0479 59.6716C20.0479 59.7788 20.1349 59.8656 20.2422 59.8656Z" fill="white"/>
<path d="M25.3615 59.4762H21.366C21.2847 59.4762 21.2188 59.542 21.2188 59.6232V59.7187C21.2188 59.7998 21.2847 59.8656 21.366 59.8656H25.3615C25.4428 59.8656 25.5087 59.7998 25.5087 59.7187V59.6232C25.5087 59.542 25.4428 59.4762 25.3615 59.4762Z" fill="white"/>
<path d="M22.6801 106.188C23.4339 106.188 24.0449 105.578 24.0449 104.825C24.0449 104.073 23.4339 103.463 22.6801 103.463C21.9264 103.463 21.3154 104.073 21.3154 104.825C21.3154 105.578 21.9264 106.188 22.6801 106.188Z" fill="white"/>
<path opacity="0.1" d="M30.0895 64.4536H15.4648V75.4563H30.0895V64.4536Z" fill="black"/>
<path d="M30.0895 76.8317H15.4648V87.8344H30.0895V76.8317Z" fill="white"/>
<path opacity="0.2" d="M21.7709 77.784H16.8965V80.535H21.7709V77.784Z" fill="#FFAA81"/>
<path d="M28.6589 77.784H22.9365V78.4189H28.6589V77.784Z" fill="#E6E8EC"/>
<path d="M26.9644 78.8421H22.9365V79.477H26.9644V78.8421Z" fill="#E6E8EC"/>
<path d="M28.6589 79.8987H22.9365V80.5335H28.6589V79.8987Z" fill="#E6E8EC"/>
<path d="M28.6607 80.9568H16.8965V81.5916H28.6607V80.9568Z" fill="#E6E8EC"/>
<path d="M28.6607 82.0149H16.8965V82.6497H28.6607V82.0149Z" fill="#E6E8EC"/>
<path d="M28.6607 83.0729H16.8965V83.7078H28.6607V83.0729Z" fill="#E6E8EC"/>
<path d="M27.7067 84.131H16.8965V84.7659H27.7067V84.131Z" fill="#E6E8EC"/>
<path d="M28.6607 85.1891H16.8965V85.824H28.6607V85.1891Z" fill="#E6E8EC"/>
<path d="M28.6607 86.2472H16.8965V86.882H28.6607V86.2472Z" fill="#E6E8EC"/>
<path d="M30.0895 89.2349H15.4648V100.238H30.0895V89.2349Z" fill="white"/>
<path opacity="0.2" d="M21.7709 90.1871H16.8965V92.9381H21.7709V90.1871Z" fill="#FFAA81"/>
<path d="M28.6589 90.1871H22.9365V90.822H28.6589V90.1871Z" fill="#E6E8EC"/>
<path d="M26.9644 91.2452H22.9365V91.8801H26.9644V91.2452Z" fill="#E6E8EC"/>
<path d="M28.6589 92.3033H22.9365V92.9381H28.6589V92.3033Z" fill="#E6E8EC"/>
<path d="M28.6607 93.3614H16.8965V93.9962H28.6607V93.3614Z" fill="#E6E8EC"/>
<path d="M28.6607 94.4194H16.8965V95.0543H28.6607V94.4194Z" fill="#E6E8EC"/>
<path d="M28.6607 95.4775H16.8965V96.1124H28.6607V95.4775Z" fill="#E6E8EC"/>
<path d="M27.7067 96.5356H16.8965V97.1705H27.7067V96.5356Z" fill="#E6E8EC"/>
<path d="M28.6607 97.5922H16.8965V98.2271H28.6607V97.5922Z" fill="#E6E8EC"/>
<path d="M28.6607 98.6503H16.8965V99.2852H28.6607V98.6503Z" fill="#E6E8EC"/>
<path d="M80.0369 94.4327C79.0476 93.235 77.8492 91.858 78.0171 90.2635C78.1525 88.9718 77.8271 87.7785 77.8919 86.4838C77.9832 84.6439 77.6107 83.2023 76.2828 82.0222C75.507 81.333 74.21 80.7907 73.8243 80.9289C73.0587 81.2022 72.224 81.0978 71.4364 81.2815C70.8387 81.4285 70.4397 81.6357 70.1939 81.9046C69.6977 82.3455 69.6889 82.9715 69.9156 83.6402C69.7177 84.0014 69.5982 84.4001 69.5649 84.8104C69.5317 85.2208 69.5854 85.6335 69.7227 86.0217C69.8599 86.4099 70.0775 86.7649 70.3614 87.0636C70.6453 87.3622 70.989 87.5978 71.3701 87.755C70.8181 87.9842 70.3396 88.5147 70.1556 89.5905C70.0247 90.3296 69.8276 91.0555 69.5667 91.7595C69.4498 91.8151 69.3298 91.8641 69.2075 91.9065C69.234 91.9168 69.262 91.9241 69.2899 91.9344C69.2325 91.9565 69.1736 91.9785 69.1162 91.9991C69.2221 92.0401 69.3315 92.0716 69.4431 92.0931C69.0414 93.1337 68.5017 94.1158 67.8384 95.0131C67.8384 95.0131 66.1719 95.3805 65.5241 94.7383C65.5241 94.7383 65.6301 94.8618 65.7729 95.0469C65.1384 94.7839 64.099 94.3562 63.2098 94.0035C62.565 93.7478 62.3986 94.0036 62.4075 94.3592C62.249 94.3776 62.0958 94.4275 61.957 94.5061C61.7664 94.384 61.5666 94.2769 61.3593 94.1858C60.9883 94.0947 59.7855 93.451 58.5813 95.6553C57.8805 96.9383 56.0786 99.2778 54.7021 101.01C52.0153 102.243 48.5189 103.803 47.2204 104.198H46.3901C46.2812 104.02 46.2046 103.904 46.2046 103.904L46.1398 103.947L46.1119 103.904C46.1119 103.904 44.4763 105.034 42.8156 105.043C42.5794 105.039 42.3443 105.009 42.1149 104.952C41.3508 104.759 40.8135 104.674 40.4292 104.681C39.9743 104.674 39.7167 104.781 39.5562 104.984C39.5353 105.011 39.5162 105.039 39.4988 105.068C39.481 105.098 39.4648 105.129 39.4502 105.16C39.4355 105.193 39.4223 105.227 39.409 105.262C39.4039 105.293 39.4059 105.324 39.4148 105.354C39.4237 105.385 39.4394 105.412 39.4605 105.435C39.4827 105.467 39.5067 105.498 39.5327 105.526L39.5783 105.576C39.9072 105.882 40.2635 106.157 40.6427 106.398C40.7796 106.49 40.9239 106.584 41.0755 106.681L41.3626 106.864L41.6188 107.024L41.7218 107.087L41.8366 107.158L42.0413 107.283L42.1635 107.356L42.3931 107.493L42.5786 107.603C43.0644 107.897 43.5503 108.167 43.986 108.413L44.2923 108.585L44.3217 108.601L44.5175 108.709L44.8576 108.898L45.0916 109.025L45.2006 109.086L45.3184 109.149L45.3419 109.162L45.5451 109.272C45.5869 109.279 45.6298 109.277 45.6707 109.266C45.7116 109.255 45.7496 109.235 45.7821 109.208C45.841 108.958 45.9853 108.423 46.1384 108.382C46.2915 108.341 46.9598 107.171 47.1498 106.392H48.9561C49.3112 106.362 49.6638 106.309 50.0117 106.232C49.545 106.564 49.0827 106.773 48.7235 106.683C47.9639 106.495 47.244 106.956 47.1718 107.418L47.163 107.446C47.163 107.454 47.163 107.465 47.163 107.474C47.163 107.482 47.163 107.496 47.163 107.507C47.163 107.519 47.163 107.526 47.163 107.535C47.163 107.544 47.163 107.557 47.163 107.569C47.163 107.581 47.163 107.588 47.163 107.597C47.163 107.606 47.163 107.621 47.163 107.631C47.163 107.641 47.163 107.648 47.163 107.657C47.163 107.666 47.163 107.682 47.1718 107.694C47.1807 107.706 47.1718 107.71 47.1718 107.718C47.1773 107.734 47.1837 107.749 47.191 107.765V107.776C47.201 107.796 47.2123 107.814 47.2248 107.832L47.2396 107.851L47.269 107.888L47.2896 107.909L47.3235 107.941L47.3485 107.961L47.3883 107.991L47.4177 108.01L47.4663 108.038L47.4987 108.056L47.559 108.083L47.5899 108.097C47.6223 108.11 47.6562 108.123 47.693 108.135C47.7298 108.147 47.8196 108.173 47.8976 108.192L47.9757 108.211L48.089 108.238L48.1494 108.251L48.3967 108.301L48.5174 108.323L48.6161 108.341L48.8428 108.38L49.2844 108.452L49.6746 108.511L50.1825 108.583L50.2943 108.598L50.4769 108.623L50.7389 108.658L50.9186 108.682L51.3823 108.74L51.5295 108.758L51.8239 108.793C52.2082 108.839 52.5807 108.883 52.9222 108.921L53.3182 108.965L53.5184 108.987L53.6038 108.996L53.8438 109.022L53.9778 109.037L54.1412 109.055L54.3723 109.078H54.3973L54.5445 109.093C54.563 109.095 54.5816 109.093 54.5992 109.087C54.6168 109.081 54.633 109.072 54.6469 109.06C54.6607 109.048 54.6718 109.033 54.6796 109.016C54.6873 108.999 54.6914 108.981 54.6918 108.962C54.6918 108.962 54.6918 108.952 54.6918 108.948C54.7058 108.927 54.7134 108.902 54.7138 108.877C54.7176 108.657 54.7452 108.438 54.7963 108.225C54.8066 108.188 54.8184 108.15 54.8301 108.113L54.8449 108.07C54.8611 108.025 54.8773 107.979 54.8964 107.932C54.9095 107.899 54.9208 107.865 54.9303 107.831L54.9391 107.798C54.9391 107.781 54.9479 107.762 54.9523 107.742C55.1393 107.108 54.9141 105.925 54.8493 105.46C54.829 105.311 54.795 105.163 54.7477 105.019C54.7595 105.021 54.7713 105.021 54.783 105.019C54.879 104.984 54.9693 104.934 55.051 104.872C56.4157 104.386 57.5684 103.831 57.932 103.274C58.5235 103.116 59.1523 103.182 59.6987 103.457C60.4053 103.808 65.7538 105.55 68.2447 106.355C68.6864 106.74 69.0426 106.965 69.2355 106.943C69.2355 106.943 72.4051 107.454 73.68 106.455C73.7934 106.533 73.864 106.576 73.864 106.576C73.864 106.576 75.716 105.657 75.9943 104.464C76.0841 104.077 76.1651 103.506 76.2475 102.874C76.6775 102.442 76.9193 101.858 76.9203 101.248C76.9777 99.2425 77.7565 96.9515 78.3336 94.9103C79.0343 94.9646 79.3052 94.8339 79.953 94.5164L79.925 94.4797L80.0369 94.4327ZM69.4195 97.4365L69.0662 97.3174C69.1858 97.1578 69.2889 96.9864 69.3739 96.806L69.4195 97.4365ZM67.4262 98.28L69.5726 99.5658L69.5917 99.8274C69.5655 100.026 69.5715 100.228 69.6094 100.426C68.6643 99.5864 67.5572 98.568 67.4276 98.28H67.4262ZM66.5502 96.4078C66.3161 96.3108 66.1218 96.2241 65.9893 96.152L66.4869 96.1829C66.5164 96.2554 66.5381 96.3307 66.5517 96.4078H66.5502ZM60.8087 98.5019C60.8087 98.5019 61.1797 97.676 62.0129 99.053C62.1425 99.2675 62.381 99.607 62.696 100.03L60.2728 99.7055C60.5245 99.3412 60.7053 98.9329 60.8057 98.5019H60.8087Z" fill="url(#paint3_linear)"/>
<path d="M66.1398 95.1821C66.1398 95.1821 64.4409 94.4679 63.1012 93.933C61.7615 93.3981 62.5653 95.1821 62.5653 95.1821C62.5653 95.1821 64.8001 95.8067 64.8001 95.8963C64.8001 95.986 66.6771 96.0742 66.6771 96.0742L66.1398 95.1821Z" fill="#F7C4A7"/>
<path opacity="0.05" d="M66.1398 95.1821C66.1398 95.1821 64.4409 94.4679 63.1012 93.933C61.7615 93.3981 62.5653 95.1821 62.5653 95.1821C62.5653 95.1821 64.8001 95.8067 64.8001 95.8963C64.8001 95.986 66.6771 96.0742 66.6771 96.0742L66.1398 95.1821Z" fill="black"/>
<path d="M73.3751 88.1341C73.3751 88.1341 70.3365 86.5279 69.7991 89.6507C69.4646 91.5518 68.7019 93.3522 67.5688 94.9162C67.5688 94.9162 65.9597 95.2733 65.334 94.6487C65.334 94.6487 66.8533 96.4327 66.1378 96.612C66.1378 96.612 67.7469 97.7715 68.4624 97.4144C69.1779 97.0573 69.7137 94.6487 69.9817 94.0241C70.2496 93.3996 71.233 87.9548 73.3751 88.1341Z" fill="#575988"/>
<path opacity="0.1" d="M73.3751 88.1341C73.3751 88.1341 70.3365 86.5279 69.7991 89.6507C69.4646 91.5518 68.7019 93.3522 67.5688 94.9162C67.5688 94.9162 65.9597 95.2733 65.334 94.6487C65.334 94.6487 66.8533 96.4327 66.1378 96.612C66.1378 96.612 67.7469 97.7715 68.4624 97.4144C69.1779 97.0573 69.7137 94.6487 69.9817 94.0241C70.2496 93.3996 71.233 87.9548 73.3751 88.1341Z" fill="black"/>
<path d="M71.6807 87.0628C71.6807 87.0628 73.5577 89.204 73.6475 90.988C73.7373 92.7721 75.7925 89.1143 75.9721 89.0247C76.1517 88.935 74.1834 85.9033 74.0038 84.9231C73.8242 83.9429 71.6807 87.0628 71.6807 87.0628Z" fill="#F7C4A7"/>
<path d="M72.9766 87.9784L71.793 89.0482L72.3509 91.3011L73.8702 89.8741L73.6921 88.4472L72.9766 87.9784Z" fill="#F7C4A7"/>
<path d="M48.2622 103.838H46.207L47.0108 105.8L48.9777 105.265L48.2622 103.838Z" fill="#F7C4A7"/>
<path opacity="0.1" d="M46.6811 103.554C46.6811 103.554 44.5553 105.034 42.7342 104.573C40.9131 104.111 40.4214 104.279 40.2094 104.88C40.0136 105.426 45.2899 108.32 46.1305 108.777C46.1438 108.786 46.159 108.791 46.1749 108.793C46.1907 108.794 46.2067 108.792 46.2213 108.785C46.2359 108.779 46.2487 108.769 46.2586 108.757C46.2684 108.744 46.275 108.73 46.2778 108.714C46.3352 108.471 46.4736 107.951 46.6208 107.912C46.8136 107.86 47.6955 106.219 47.6513 105.57C47.6071 104.922 46.6811 103.554 46.6811 103.554Z" fill="black"/>
<path d="M46.5933 103.554C46.5933 103.554 44.4674 105.034 42.6463 104.573C40.8252 104.111 40.3335 104.279 40.1215 104.88C39.9257 105.426 45.202 108.32 46.0427 108.777C46.0559 108.786 46.0711 108.791 46.087 108.793C46.1028 108.794 46.1188 108.792 46.1334 108.785C46.148 108.779 46.1608 108.769 46.1707 108.757C46.1806 108.744 46.1871 108.73 46.1899 108.714C46.2473 108.471 46.3857 107.951 46.5329 107.912C46.7258 107.86 47.6076 106.219 47.5634 105.57C47.5193 104.922 46.5933 103.554 46.5933 103.554Z" fill="#F3B5B7"/>
<path d="M64.1726 100.001L58.1838 99.1985C58.1838 99.1985 48.4409 103.838 47.2793 103.928L47.5472 105.985H49.3345C50.05 105.985 57.0207 104.468 58.0042 102.952C58.5731 102.8 59.1779 102.864 59.7031 103.13C60.5967 103.57 69.1781 106.342 69.1781 106.342L64.1726 100.001Z" fill="#575988"/>
<path opacity="0.1" d="M64.1726 100.001L58.1838 99.1985C58.1838 99.1985 48.4409 103.838 47.2793 103.928L47.5472 105.985H49.3345C50.05 105.985 57.0207 104.468 58.0042 102.952C58.5731 102.8 59.1779 102.864 59.7031 103.13C60.5967 103.57 69.1781 106.342 69.1781 106.342L64.1726 100.001Z" fill="black"/>
<path d="M53.5362 102.767L52.5527 104.016L53.5362 104.551L54.9671 103.481L53.5362 102.767Z" fill="#F7C4A7"/>
<path d="M70.6079 101.338C70.6079 101.338 67.3926 98.5901 67.1674 98.0904C66.9421 97.5908 61.6702 94.202 61.3125 94.1123C60.9548 94.0227 59.7932 93.3981 58.6317 95.5393C57.4701 97.6804 53.1846 102.855 53.1846 102.855C53.1846 102.855 54.5257 104.728 54.9718 104.639C55.4179 104.549 60.4189 100.356 60.781 98.3035C60.781 98.3035 61.1388 97.5011 61.9426 98.8384C62.7464 100.176 67.9314 106.601 68.9149 106.511C68.9149 106.511 72.7587 107.136 73.5626 105.619C74.3664 104.102 70.6079 101.338 70.6079 101.338Z" fill="#575988"/>
<path d="M69.7049 86.9335H56.3213V97.0015H69.7049V86.9335Z" fill="url(#paint4_linear)"/>
<path d="M69.157 87.3435H56.8672V96.59H69.157V87.3435Z" fill="white"/>
<path opacity="0.2" d="M62.1674 88.1444H58.0703V90.456H62.1674V88.1444Z" fill="#65BFD4"/>
<path d="M67.9561 88.1444H63.1465V88.6779H67.9561V88.1444Z" fill="#E6E8EC"/>
<path d="M66.531 89.0335H63.1465V89.5669H66.531V89.0335Z" fill="#E6E8EC"/>
<path d="M67.9561 89.9226H63.1465V90.4561H67.9561V89.9226Z" fill="#E6E8EC"/>
<path d="M67.956 90.8117H58.0703V91.3452H67.956V90.8117Z" fill="#E6E8EC"/>
<path d="M67.956 91.7008H58.0703V92.2343H67.956V91.7008Z" fill="#E6E8EC"/>
<path d="M67.956 92.5898H58.0703V93.1233H67.956V92.5898Z" fill="#E6E8EC"/>
<path d="M67.1552 93.4789H58.0703V94.0124H67.1552V93.4789Z" fill="#E6E8EC"/>
<path d="M67.956 94.368H58.0703V94.9015H67.956V94.368Z" fill="#E6E8EC"/>
<path d="M67.956 95.2571H58.0703V95.7905H67.956V95.2571Z" fill="#E6E8EC"/>
<path d="M72.4401 88.2678C72.4401 88.2678 71.3227 88.7587 71.2329 90.8102C71.1431 92.8617 69.1719 96.3416 69.1719 96.3416L69.35 100.446C69.35 100.446 71.495 102.587 71.6746 103.926C71.8542 105.265 73.375 106.157 73.375 106.157C73.375 106.157 75.1622 105.265 75.436 104.099C75.7098 102.934 75.8777 100.085 76.3296 99.0133C76.7816 97.942 76.5078 91.2511 76.5078 91.2511L75.1666 88.9306L74.4511 88.1282L72.5741 90.2694C72.5741 90.2694 71.5465 88.8909 72.4401 88.2678Z" fill="#FFAA81"/>
<path opacity="0.1" d="M69.8033 99.1074C69.8033 99.1074 69.5354 95.8949 70.3392 95.1822L71.9483 90.6265C71.9483 90.6265 72.5298 88.4413 72.44 88.262C72.3502 88.0827 70.3392 90.002 70.3392 90.002L68.998 94.731L69.3558 99.7275L69.8033 99.1074Z" fill="black"/>
<path d="M69.7135 99.1074C69.7135 99.1074 69.4456 95.8949 70.2494 95.1822L71.8585 90.6266C71.8585 90.6266 72.4841 88.3958 72.3943 88.2179C72.3045 88.0401 70.2494 90.002 70.2494 90.002L68.9082 94.7311L69.266 99.7276L69.7135 99.1074Z" fill="#575988"/>
<path d="M70.3395 97.6804C70.3395 97.6804 65.867 96.2535 65.602 95.8964C65.337 95.5393 62.4736 93.2203 61.4901 94.8251C60.5067 96.4298 65.1544 96.8825 65.1544 96.8825L69.8919 99.7378L70.3395 97.6804Z" fill="#F7C4A7"/>
<path opacity="0.1" d="M53.7293 104.007L52.4043 103.769C52.4043 103.769 50.2373 106.539 49.1096 106.258C47.9819 105.978 46.9425 107.19 48.135 107.581C49.2126 107.932 53.8633 108.424 54.7525 108.515C54.7707 108.518 54.7892 108.517 54.8068 108.511C54.8244 108.506 54.8407 108.497 54.8546 108.485C54.8685 108.473 54.8798 108.459 54.8875 108.442C54.8953 108.425 54.8994 108.407 54.8997 108.389C54.9039 108.045 54.9707 107.704 55.097 107.384C55.3355 106.796 55.097 105.544 55.0307 105.068C54.9939 104.787 54.9055 104.516 54.7701 104.267L53.7293 104.007Z" fill="black"/>
<path d="M53.7079 104.094L52.3829 103.856C52.3829 103.856 50.2188 106.627 49.0837 106.345C47.9487 106.063 46.9167 107.277 48.1091 107.668C49.1868 108.019 53.8374 108.511 54.7266 108.602C54.7448 108.605 54.7633 108.603 54.7809 108.598C54.7985 108.593 54.8149 108.584 54.8288 108.572C54.8427 108.56 54.8539 108.545 54.8617 108.529C54.8695 108.512 54.8736 108.494 54.8738 108.476C54.878 108.132 54.9449 107.791 55.0711 107.471C55.3096 106.883 55.0711 105.631 55.0049 105.155C54.968 104.874 54.8797 104.602 54.7443 104.354L53.7079 104.094Z" fill="#F3B5B7"/>
<path opacity="0.1" d="M72.3507 88.0901C73.9305 88.0901 75.2111 86.8117 75.2111 85.2347C75.2111 83.6577 73.9305 82.3793 72.3507 82.3793C70.7709 82.3793 69.4902 83.6577 69.4902 85.2347C69.4902 86.8117 70.7709 88.0901 72.3507 88.0901Z" fill="black"/>
<path d="M72.0831 88.0901C73.6629 88.0901 74.9436 86.8117 74.9436 85.2347C74.9436 83.6577 73.6629 82.3793 72.0831 82.3793C70.5033 82.3793 69.2227 83.6577 69.2227 85.2347C69.2227 86.8117 70.5033 88.0901 72.0831 88.0901Z" fill="#F7C4A7"/>
<path d="M74.8978 88.0445C74.8978 88.0445 78.2941 89.204 78.2941 91.6141C78.2941 94.0242 76.4171 97.8597 76.3273 100.983C76.2375 104.105 71.3219 103.659 71.3219 103.659C71.3219 103.659 70.6064 93.1307 71.3219 92.3268C72.0374 91.523 75.2556 88.4016 74.8978 88.0445Z" fill="#575988"/>
<path opacity="0.1" d="M74.2717 93.041C74.2717 93.041 73.0204 98.5724 70.0701 97.5966C70.0701 97.5966 68.5508 99.8274 69.6284 100.809C69.6284 100.809 72.221 101.434 73.9184 99.7378C75.6158 98.0419 76.8642 97.4144 77.1322 95.357C77.4001 93.2996 77.5738 90.4501 76.6905 90.7176C75.8072 90.9851 74.2717 93.041 74.2717 93.041Z" fill="black"/>
<path d="M74.3616 92.9514C74.3616 92.9514 73.1102 98.4828 70.1599 97.507C70.1599 97.507 68.6407 99.7378 69.7183 100.72C69.7183 100.72 72.3108 101.344 74.0082 99.6482C75.7057 97.9523 76.9526 97.3278 77.2264 95.2762C77.5003 93.2247 77.6681 90.3694 76.7848 90.6368C75.9015 90.9043 74.3616 92.9514 74.3616 92.9514Z" fill="#575988"/>
<path d="M55.1482 107.184C55.1482 107.193 55.1482 107.202 55.1394 107.209C55.0755 107.361 55.0262 107.519 54.9922 107.681C55.0128 107.61 55.0378 107.534 55.0673 107.468C55.105 107.377 55.1322 107.281 55.1482 107.184Z" fill="#DDDBE2"/>
<path d="M48.1818 107.407C47.8137 107.287 47.6591 107.089 47.6532 106.88C47.506 107.174 47.5973 107.497 48.117 107.668C49.1946 108.019 53.8467 108.511 54.7345 108.602C54.7528 108.605 54.7714 108.603 54.7891 108.598C54.8068 108.593 54.8232 108.584 54.8372 108.572C54.8511 108.56 54.8623 108.545 54.87 108.528C54.8776 108.511 54.8816 108.493 54.8817 108.474C54.8823 108.442 54.8706 108.41 54.8491 108.386C54.8276 108.361 54.7978 108.346 54.7654 108.342C53.7864 108.236 49.2447 107.753 48.1818 107.407Z" fill="#DDDBE2"/>
<path d="M40.2432 104.723C40.2661 104.657 40.2952 104.593 40.3301 104.533C40.2335 104.63 40.1614 104.749 40.1196 104.88C39.9238 105.426 45.2001 108.319 46.0407 108.777C46.054 108.785 46.0692 108.79 46.085 108.792C46.1007 108.793 46.1165 108.79 46.131 108.784C46.1455 108.778 46.1582 108.768 46.1682 108.756C46.1781 108.744 46.1849 108.729 46.1879 108.714C46.1929 108.693 46.1909 108.672 46.1824 108.652C46.1739 108.633 46.1593 108.617 46.1408 108.607C45.2075 108.098 40.0489 105.263 40.2432 104.723Z" fill="#DDDBE2"/>
<path d="M46.6486 107.754C46.6015 107.768 46.5544 107.829 46.5117 107.917H46.5264C46.5647 107.907 46.6324 107.831 46.7149 107.712C46.6964 107.731 46.6737 107.745 46.6486 107.754Z" fill="#DDDBE2"/>
<path opacity="0.1" d="M71.6853 87.7476C71.4335 88.3016 71.3805 88.9233 71.195 89.5111C71.0144 90.0801 70.7045 90.5998 70.2895 91.0295C69.8745 91.4593 69.3657 91.7876 68.8027 91.9888C69.7317 92.3591 70.827 91.9065 71.5454 91.157C72.2638 90.4075 72.6834 89.4097 73.0868 88.4398C74.1291 89.1393 74.0025 90.747 74.3514 91.9991C74.5018 92.5437 74.7676 93.0498 75.1308 93.483C75.494 93.9163 75.9461 94.2667 76.4566 94.5106C76.9654 94.7385 77.5184 94.851 78.076 94.8398C78.6335 94.8286 79.1816 94.6941 79.6807 94.4459C78.7253 93.282 77.365 91.6861 77.5269 90.1371C77.6579 88.8821 76.7555 87.924 76.8188 86.666C76.9071 84.879 76.2299 83.9752 74.9418 82.829C74.1924 82.1589 75.3716 81.2125 74.4059 81.4902C74.026 81.599 73.6256 81.1963 73.2531 81.3271C72.5171 81.5916 71.7088 81.4917 70.9492 81.6695C66.9993 82.5924 72.0504 86.9379 71.6853 87.7476Z" fill="black"/>
<path d="M71.7751 87.658C71.5234 88.212 71.4704 88.8337 71.2849 89.4215C71.1042 89.9905 70.7943 90.5102 70.3793 90.9399C69.9644 91.3697 69.4556 91.698 68.8926 91.8992C69.8215 92.2695 70.9168 91.8169 71.6353 91.0674C72.3537 90.3179 72.7733 89.3201 73.1766 88.3502C74.2189 89.0497 74.0923 90.6574 74.4412 91.9095C74.5917 92.4541 74.8574 92.9601 75.2206 93.3934C75.5838 93.8267 76.036 94.1771 76.5465 94.4209C77.0552 94.6489 77.6083 94.7614 78.1658 94.7502C78.7233 94.739 79.2714 94.6045 79.7706 94.3563C78.8151 93.1924 77.5446 91.858 77.7095 90.315C77.8405 89.06 77.6447 87.7712 77.7095 86.5132C77.7978 84.7262 76.9219 83.0054 75.6396 81.8591C74.8903 81.189 73.7258 81.1038 73.3474 81.2375C72.6113 81.502 71.8031 81.4021 71.0434 81.5799C67.0891 82.5043 72.1432 86.8483 71.7751 87.658Z" fill="#B96B6B"/>
<path d="M24.1191 114.827C29.2718 113.245 32.3133 113.375 32.3133 113.375L31.8908 110.984C32.0228 110.896 32.1426 110.791 32.2471 110.671C32.2471 110.671 31.7186 107.769 32.2471 107.043C32.7756 106.317 34.2301 99.7217 34.2301 99.7217V97.4776C36.88 96.5548 39.979 91.2114 39.979 91.2114L43.8788 101.235C43.8788 101.235 47.7772 108.953 48.3057 109.217C48.7282 109.427 48.9387 111.153 49.0079 111.84L48.9755 111.85C48.9917 112.016 48.9991 112.119 48.9991 112.119L49.03 112.098V112.119C49.0954 112.073 49.1643 112.033 49.2361 111.998C48.475 112.871 47.3355 114.126 46.3874 114.955C45.8648 115.412 46.8026 115.765 47.2413 115.758C47.4909 115.749 47.7399 115.785 47.9774 115.862C50.1989 116.628 53.8514 113.832 53.8514 113.832L52.9372 111.287C53.1757 111.268 53.3229 111.259 53.3229 111.259C53.3229 111.259 50.3491 100.837 48.9608 99.8466C48.522 99.5272 48.1261 99.1528 47.783 98.7326C47.1228 97.9317 46.7899 96.9113 46.8512 95.8758L47.3384 87.3244C48.1217 87.2098 48.6266 87.1143 48.6266 87.1143C48.6266 87.1143 48.8092 84.7777 48.8033 82.9848C48.8033 82.0516 48.765 81.2331 48.6266 80.9127C48.4632 80.5336 48.4117 79.7753 48.4087 79.014C48.4087 77.9853 48.4941 77.0213 48.4941 77.0213C48.4941 77.0213 49.5511 75.6355 51.0057 72.4657C51.6461 71.071 51.8124 69.9674 51.7977 69.1768C51.8076 68.8084 51.772 68.4402 51.6917 68.0805C51.6505 67.9026 51.5742 67.7347 51.4673 67.5866C51.3604 67.4385 51.225 67.3131 51.069 67.2178C50.2328 66.7064 48.3292 65.4441 47.7683 64.2214C47.0558 62.6695 46.0267 62.4491 45.9855 62.4403L45.9222 62.167C46.3168 61.8412 46.605 61.4052 46.7496 60.9149C46.9645 60.2536 47.0087 59.5482 47.1912 58.8766C47.2796 58.5533 47.4018 58.2403 47.4857 57.917C47.5695 57.5916 47.6096 57.2565 47.6049 56.9206C47.6208 56.4313 47.5199 55.9452 47.3105 55.5025C46.9689 54.8015 46.2888 54.2504 45.5144 54.1593C45.0875 54.1093 44.6149 54.1828 44.2645 53.9345C44.0231 53.7625 43.8965 53.4701 43.6757 53.2658C43.2561 52.869 42.5848 52.8896 42.0386 53.0748C41.3031 53.3265 40.6731 53.8163 40.2484 54.4664C39.9937 54.8573 39.8156 55.3056 39.4888 55.6421C39.2135 55.9228 38.8528 56.1021 38.5495 56.3519C38.325 56.5268 38.1424 56.7494 38.0151 57.0036C37.8878 57.2579 37.8189 57.5373 37.8134 57.8215C37.8134 57.8215 37.8134 57.8361 37.8134 57.8435C37.8134 57.8802 37.8134 57.917 37.8134 57.9537C37.8281 58.521 38.2241 59.0853 38.7806 59.1999C38.9264 59.2267 39.0754 59.2306 39.2223 59.2117C39.0968 59.6746 39.0663 60.158 39.1325 60.633C39.1987 61.108 39.3603 61.5647 39.6076 61.9759C39.8549 62.387 40.1828 62.744 40.5717 63.0256C40.9606 63.3072 41.4024 63.5075 41.8708 63.6145C41.8619 63.6615 41.8516 63.7085 41.8413 63.7614H41.8722C41.8085 63.9901 41.7288 64.214 41.6337 64.4316H41.591L41.6985 64.2405L40.1822 64.1362C39.7406 64.103 39.2981 64.1856 38.8984 64.3757C38.3758 64.6285 37.8046 65.1105 37.7339 66.0216C37.6014 67.7293 34.3626 70.301 34.3626 70.301C33.2393 72.0821 25.9034 72.4113 25.9034 72.4113C25.9034 72.4113 25.9358 72.4524 25.9505 72.4745L25.8033 72.4466L25.2483 72.3451C25.2483 72.3451 23.5303 67.2663 21.8785 68.1892C20.2267 69.1121 24.7198 74.1263 24.7198 74.1263L26.0183 74.213L26.1493 74.2218C26.1016 74.5505 26.0333 74.8759 25.9447 75.1961C25.927 75.2608 25.9137 75.3019 25.9108 75.3122C25.9108 75.3122 29.3263 74.9184 32.2279 74.9815H32.49L32.6755 74.9727C32.8227 76.5643 35.0958 79.7988 35.0958 79.7988L36.4987 80.0927L36.6047 80.1147C36.1526 81.0481 35.5784 81.9173 34.897 82.6997L34.4347 85.2729L34.4715 85.2641L34.4347 85.4713C34.514 85.452 34.5873 85.4137 34.6482 85.3596C33.7428 87.7579 32.2412 91.4906 31.1974 92.7927C29.6119 94.7722 29.8091 97.9361 29.8091 97.9361C29.8091 97.9361 28.2236 106.248 28.2898 107.765C28.2975 108.497 28.0991 109.216 27.7172 109.841C27.4061 110.198 27.1328 110.585 26.9016 110.998C25.712 113.043 23.7953 112.908 23.7953 112.908C22.1435 113.969 24.1191 114.827 24.1191 114.827ZM34.3258 74.5921L34.4966 74.5245L34.5363 74.5084L34.6997 74.4378L34.7277 74.4246L34.8749 74.357L34.9073 74.3423L35.0634 74.2644L35.1002 74.2453L35.2474 74.1674H35.2592L35.4064 74.0822L35.4417 74.0616L35.5889 73.9764L35.6125 73.9617L35.7406 73.8838L35.77 73.8662L35.9069 73.7794L35.9378 73.7589L36.0645 73.6751L36.0762 73.6678L36.2058 73.5781L36.2352 73.5575L36.3589 73.4694L36.378 73.4561L36.487 73.3768L36.5105 73.3592L36.6239 73.2724L36.6474 73.2548L36.7505 73.174H36.7593L36.8638 73.0902L36.8859 73.0726L36.9846 72.9918L36.9934 72.9844L37.0817 72.9095L37.0965 72.8962L37.1833 72.8213L37.1966 72.8095L37.2761 72.7375L37.3526 72.6685L37.3629 72.6582L37.5101 72.5112L37.7251 72.4936C37.9076 72.7302 37.9798 73.149 37.9871 73.6296C37.9665 74.8625 37.5926 76.385 37.5926 76.385C37.5607 77.1406 37.429 77.8887 37.201 78.6099C37.0398 78.6011 36.8816 78.5628 36.7343 78.4968C36.7343 78.4968 36.7255 78.5438 36.7122 78.6231L36.5856 78.5908L35.9423 78.4306C35.9423 78.4306 35.4079 75.7149 34.3258 74.5921Z" fill="url(#paint5_linear)"/>
<path d="M52.2463 109.728L53.4726 113.139C53.4726 113.139 50.1145 115.711 47.9327 115.179C47.6041 115.097 47.2693 115.043 46.9317 115.017C46.4797 114.983 45.7024 114.655 46.1823 114.237C47.7311 112.885 49.7951 110.373 49.7951 110.373L52.2463 109.728Z" fill="#4F4D59"/>
<path d="M31.8599 109.406L32.44 112.691C32.44 112.691 29.472 112.561 24.4401 114.107C24.4401 114.107 22.5042 113.27 24.1177 112.239C24.1177 112.239 25.9889 112.369 27.1504 110.372C28.312 108.374 29.0216 108.633 29.0216 108.633L31.8599 109.406Z" fill="#4F4D59"/>
<path d="M47.2147 85.5771L46.6464 95.5701C46.5855 96.6352 46.9395 97.6825 47.6342 98.4931C47.9483 98.8652 48.3062 99.1983 48.7001 99.485C50.0545 100.451 52.9577 110.626 52.9577 110.626C52.9577 110.626 49.6673 110.818 48.7649 111.463C48.7649 111.463 48.572 108.887 48.0553 108.63C47.5385 108.373 43.7329 100.841 43.7329 100.841L39.9244 91.0512C39.9244 91.0512 36.8917 96.2681 34.311 97.169V99.3586C34.311 99.3586 32.8918 105.798 32.375 106.507C31.8583 107.215 32.375 110.048 32.375 110.048C32.375 110.048 30.8911 111.916 27.4727 109.919C27.4727 109.919 28.5694 108.695 28.5032 107.213C28.4369 105.732 29.9901 97.6201 29.9901 97.6201C29.9901 97.6201 29.7972 94.5341 31.3445 92.5972C32.8918 90.6603 35.4666 83.2596 35.4666 83.2596L37.2421 79.446L47.2147 85.5771Z" fill="#787C9C"/>
<g opacity="0.1">
<path opacity="0.1" d="M52.3432 110.629C52.3432 110.629 49.44 100.454 48.0856 99.488C47.6692 99.1841 47.2928 98.8291 46.9653 98.4314C46.3025 97.6318 45.9694 96.6104 46.0334 95.5746L46.6016 85.5815L37.0869 79.7268L37.2165 79.449L47.1817 85.58L46.6134 95.5731C46.5494 96.6089 46.8826 97.6303 47.5453 98.4299C47.8729 98.8276 48.2493 99.1826 48.6656 99.4865C50.0201 100.452 52.9232 110.627 52.9232 110.627C52.9232 110.627 49.6329 110.82 48.7304 111.465C48.7304 111.465 48.7231 111.365 48.7069 111.202C49.9759 110.768 52.3432 110.629 52.3432 110.629Z" fill="black"/>
<path opacity="0.1" d="M31.7635 110.053C31.7635 110.053 31.2468 107.219 31.7635 106.511C32.2802 105.803 33.6994 99.3631 33.6994 99.3631V97.1735C36.2802 96.2711 39.3129 91.0557 39.3129 91.0557L39.5381 91.6361C38.6636 93.0205 36.3302 96.4578 34.2809 97.1735V99.3631C34.2809 99.3631 32.8618 105.803 32.345 106.511C31.8283 107.219 32.345 110.053 32.345 110.053C32.345 110.053 31.6251 110.956 30.0352 110.835C31.2203 110.733 31.7635 110.053 31.7635 110.053Z" fill="black"/>
</g>
<path d="M25.0217 74.3717L26.2893 74.4555L26.9577 74.4995V72.883L26.0743 72.7243L25.5311 72.6259C25.5311 72.6259 23.8543 67.6675 22.2408 68.5684C20.6272 69.4692 25.0217 74.3717 25.0217 74.3717Z" fill="#714B4F"/>
<path d="M45.3428 61.1059C45.3428 61.1059 46.1819 64.3257 46.4396 66.3228C46.6972 68.32 40.4404 66.7093 40.4404 66.7093C40.4404 66.7093 42.8268 63.8114 41.471 62.2654L45.3428 61.1059Z" fill="#714B4F"/>
<path d="M38.5701 74.501L38.4406 75.7251L40.4398 75.5958L42.439 73.8573L44.4383 68.2539L45.7308 66.2597L46.6981 65.0355L46.3109 63.5542C46.3109 63.5542 46.1342 63.7012 45.8354 63.9363C44.8534 64.6872 42.548 66.2464 40.8638 65.8159C40.7859 65.7965 40.7092 65.7724 40.6341 65.7438L38.1182 70.0585L38.5701 74.501Z" fill="#E6E6F0"/>
<path opacity="0.1" d="M45.7951 63.1736C45.7951 63.1736 46.8256 63.3662 47.5367 64.9121C48.0828 66.101 49.9245 67.3266 50.7475 67.8307C50.9044 67.9265 51.0405 68.0527 51.1477 68.2019C51.2549 68.351 51.3311 68.5201 51.3717 68.6992C51.5381 69.434 51.6014 70.8007 50.6974 72.7699C49.2783 75.856 48.2463 77.2138 48.2463 77.2138C48.2463 77.2138 47.9886 80.2999 48.3758 81.2067C48.763 82.1134 48.3758 87.0673 48.3758 87.0673C48.3758 87.0673 41.6038 88.3546 39.344 87.0673C37.0841 85.7799 37.408 80.8084 37.408 80.8084C37.408 80.8084 35.2792 85.32 34.5093 85.4493L34.951 82.9378C34.951 82.9378 37.4669 80.2323 37.6009 76.7553C37.6009 76.7553 38.3753 73.6002 37.7304 72.7625C37.7304 72.7625 26.8274 73.6649 26.1826 72.8919C26.1826 72.8919 33.3433 72.57 34.4401 70.8345C34.4401 70.8345 37.6009 68.323 37.7304 66.6492C37.7493 66.3352 37.8481 66.0312 38.0173 65.7658C38.1865 65.5005 38.4207 65.2825 38.6977 65.1326C39.1365 64.8835 39.6401 64.7714 40.1433 64.8107L41.6008 64.9107C41.6008 64.9107 39.0863 69.3458 39.2203 69.9336C39.3543 70.5215 39.0907 75.2138 39.0907 75.2138C39.0907 75.2138 41.9939 68.9667 43.2835 68.2583C44.5732 67.55 46.0527 64.6432 46.0527 64.6432L45.7951 63.1736Z" fill="black"/>
<path opacity="0.1" d="M38.5701 74.501L38.4406 75.7251L40.4398 75.5958L42.439 73.8573L44.4383 68.2539L45.7308 66.2597L46.6981 65.0355L46.3109 63.5542C46.3109 63.5542 46.1342 63.7012 45.8354 63.9363L45.9237 64.4448C45.9237 64.4448 44.4397 67.353 43.1501 68.0614C41.8605 68.7697 38.9573 75.0168 38.9573 75.0168C38.9573 75.0168 39.2149 70.3142 39.0869 69.7366C38.9985 69.3428 40.1292 67.1723 40.8638 65.8159C40.7859 65.7965 40.7092 65.7724 40.6341 65.7438L38.1182 70.0585L38.5701 74.501Z" fill="black"/>
<path opacity="0.1" d="M26.2892 74.4569L26.9575 74.501V72.8845L26.0742 72.7258C26.3849 73.1372 26.3745 73.8515 26.2892 74.4569Z" fill="black"/>
<path d="M45.7951 62.9738C45.7951 62.9738 46.8256 63.1663 47.5367 64.7122C48.0828 65.9011 49.9245 67.1267 50.7475 67.6308C50.9044 67.7266 51.0405 67.8528 51.1477 68.002C51.2549 68.1511 51.3311 68.3203 51.3717 68.4993C51.5381 69.2341 51.6014 70.6008 50.6974 72.57C49.2783 75.6561 48.2463 77.014 48.2463 77.014C48.2463 77.014 47.9886 80.1 48.3758 81.0068C48.763 81.9135 48.3758 86.8674 48.3758 86.8674C48.3758 86.8674 41.6038 88.1547 39.344 86.8674C37.0841 85.58 37.408 80.6203 37.408 80.6203C37.408 80.6203 35.2792 85.1274 34.5093 85.2553L34.951 82.7438C34.951 82.7438 37.4669 80.0383 37.6009 76.5613C37.6009 76.5613 38.3753 73.4062 37.7304 72.5685C37.7304 72.5685 35.2145 75.274 32.3761 75.2137C29.5377 75.1535 26.1826 75.5356 26.1826 75.5356C26.1826 75.5356 26.8274 73.4782 26.1826 72.7023C26.1826 72.7023 33.3433 72.3804 34.4401 70.6449C34.4401 70.6449 37.6009 68.1334 37.7304 66.4596C37.7485 66.1444 37.847 65.8391 38.0165 65.5726C38.1861 65.3062 38.4211 65.0874 38.6991 64.9371C39.138 64.688 39.6415 64.5759 40.1448 64.6153L41.6023 64.7152C41.6023 64.7152 39.0863 69.1562 39.2203 69.7352C39.3543 70.3142 39.0907 75.0154 39.0907 75.0154C39.0907 75.0154 41.9939 68.7682 43.2835 68.0599C44.5732 67.3516 46.0571 64.4433 46.0571 64.4433L45.7995 62.9738" fill="#FFAA81"/>
<path opacity="0.1" d="M47.2143 69.7352C47.2143 69.7352 45.6656 74.9522 44.7631 75.5959C43.8607 76.2395 38.3768 79.524 36.7633 78.751C36.7633 78.751 36.3761 80.6835 36.9561 81.1332C36.9561 81.1332 42.9715 80.898 43.0201 80.876C43.0201 80.876 46.9552 80.3602 47.6 78.4292C48.2449 76.4982 49.0192 73.2122 49.0192 73.2122L47.2143 69.7352Z" fill="black"/>
<path d="M38.9567 75.6282C39.0811 75.6282 39.1819 75.4841 39.1819 75.3063C39.1819 75.1286 39.0811 74.9845 38.9567 74.9845C38.8323 74.9845 38.7314 75.1286 38.7314 75.3063C38.7314 75.4841 38.8323 75.6282 38.9567 75.6282Z" fill="#BA7855"/>
<path d="M38.3122 77.8824C38.4366 77.8824 38.5374 77.7383 38.5374 77.5606C38.5374 77.3829 38.4366 77.2388 38.3122 77.2388C38.1878 77.2388 38.0869 77.3829 38.0869 77.5606C38.0869 77.7383 38.1878 77.8824 38.3122 77.8824Z" fill="#BA7855"/>
<g opacity="0.1">
<path opacity="0.1" d="M47.9234 86.8012C47.9234 86.8012 48.3105 81.8429 47.9234 80.9406C47.5362 80.0383 47.7938 76.9478 47.7938 76.9478C47.7938 76.9478 48.8243 75.5958 50.245 72.5038C51.1489 70.5346 51.0841 69.1679 50.9193 68.4331C50.8784 68.254 50.802 68.0848 50.6946 67.9356C50.5871 67.7864 50.4507 67.6603 50.2936 67.5646C49.4706 67.0606 47.6289 65.835 47.0842 64.6461C46.6838 63.7746 46.1818 63.3323 45.8181 63.1133L45.7931 62.9664C45.7931 62.9664 46.8236 63.1589 47.5347 64.7049C48.0809 65.8937 49.9226 67.1194 50.7441 67.6234C50.9012 67.7191 51.0376 67.8452 51.1451 67.9944C51.2525 68.1436 51.3289 68.3128 51.3697 68.4919C51.5361 69.2267 51.5994 70.5934 50.6955 72.5626C49.2763 75.6487 48.2443 77.0066 48.2443 77.0066C48.2443 77.0066 47.9867 80.0926 48.3739 80.9994C48.761 81.9061 48.3739 86.86 48.3739 86.86C48.3739 86.86 43.5348 87.7799 40.6729 87.2876C43.5642 87.63 47.9234 86.8012 47.9234 86.8012Z" fill="black"/>
<path opacity="0.1" d="M39.2207 69.7352C39.309 70.132 39.2207 72.4656 39.1485 73.8941C38.8364 74.5304 38.6406 74.9507 38.6406 74.9507C38.6406 74.9507 38.8983 70.2481 38.7702 69.6705C38.648 69.1194 40.9137 65.0781 41.1389 64.674L41.6086 64.7063C41.6086 64.7063 39.0867 69.1562 39.2207 69.7352Z" fill="black"/>
<path opacity="0.1" d="M31.9241 75.1447C34.7625 75.2093 37.2785 72.4995 37.2785 72.4995C37.3546 72.6047 37.41 72.7234 37.4419 72.8492C36.7058 73.5414 34.6447 75.2564 32.3761 75.2005C29.5377 75.1359 26.1826 75.5223 26.1826 75.5223C26.1826 75.5223 26.1959 75.4797 26.2165 75.4062C28.1127 75.2134 30.0182 75.1261 31.9241 75.1447Z" fill="black"/>
<path opacity="0.1" d="M36.9561 80.5541C36.9561 80.5541 36.9296 80.9567 36.9443 81.5607C36.273 82.8833 35.0511 85.1641 34.5049 85.2552L34.6006 84.7262C35.5398 83.549 36.9561 80.5541 36.9561 80.5541Z" fill="black"/>
</g>
<path d="M37.7024 64.3022H22.2812V75.903H37.7024V64.3022Z" fill="url(#paint6_linear)"/>
<path d="M37.3034 64.6006H22.6787V75.6032H37.3034V64.6006Z" fill="white"/>
<path opacity="0.2" d="M28.9848 65.5528H24.1104V68.3038H28.9848V65.5528Z" fill="#FFAA81"/>
<path d="M35.8728 65.5528H30.1504V66.1877H35.8728V65.5528Z" fill="#E6E8EC"/>
<path d="M34.1783 66.6109H30.1504V67.2457H34.1783V66.6109Z" fill="#E6E8EC"/>
<path d="M35.8728 67.669H30.1504V68.3039H35.8728V67.669Z" fill="#E6E8EC"/>
<path d="M35.8746 68.7271H24.1104V69.3619H35.8746V68.7271Z" fill="#E6E8EC"/>
<path d="M35.8746 69.7852H24.1104V70.42H35.8746V69.7852Z" fill="#E6E8EC"/>
<path d="M35.8746 70.8418H24.1104V71.4766H35.8746V70.8418Z" fill="#E6E8EC"/>
<path d="M34.9206 71.8998H24.1104V72.5347H34.9206V71.8998Z" fill="#E6E8EC"/>
<path d="M35.8746 72.958H24.1104V73.5928H35.8746V72.958Z" fill="#E6E8EC"/>
<path d="M35.8746 74.0161H24.1104V74.6509H35.8746V74.0161Z" fill="#E6E8EC"/>
<path d="M35.1502 79.9105L36.5208 80.2044L37.6014 80.4263L37.0214 78.8098L36.618 78.7084L35.9894 78.5526C35.9894 78.5526 35.0869 74.0484 33.2805 74.3717C31.4742 74.695 35.1502 79.9105 35.1502 79.9105Z" fill="#714B4F"/>
<path opacity="0.1" d="M36.5202 80.1985L37.6008 80.4263L37.0208 78.8098L36.6174 78.7084C36.5271 79.1996 36.4945 79.6997 36.5202 80.1985Z" fill="black"/>
<path d="M47.2143 69.6074C47.2143 69.6074 45.6656 74.8243 44.7631 75.468C43.8607 76.1116 38.3768 79.3961 36.7633 78.6231C36.7633 78.6231 36.3761 80.5556 36.9561 81.0053C36.9561 81.0053 42.9715 80.7701 43.0201 80.7481C43.0201 80.7481 46.9552 80.2323 47.6 78.3013C48.2449 76.3703 49.0192 73.0843 49.0192 73.0843L47.2143 69.6074Z" fill="#67647E"/>
<path opacity="0.1" d="M45.2781 61.2352C45.2781 61.2352 45.4091 61.7393 45.5843 62.4726C45.2264 63.1474 44.6559 63.6857 43.9608 64.0044C43.2658 64.3232 42.485 64.4046 41.739 64.2361C41.8935 63.5748 41.8597 62.9135 41.4062 62.3888L45.2781 61.2352Z" fill="black"/>
<path d="M42.5701 64.1979C44.4938 64.1979 46.0533 62.6412 46.0533 60.7209C46.0533 58.8006 44.4938 57.2439 42.5701 57.2439C40.6464 57.2439 39.0869 58.8006 39.0869 60.7209C39.0869 62.6412 40.6464 64.1979 42.5701 64.1979Z" fill="#714B4F"/>
<path opacity="0.1" d="M39.5442 59.7627C39.2913 59.8328 39.0264 59.8489 38.7669 59.8098C38.2237 59.6981 37.8365 59.147 37.8232 58.593C37.8287 58.3154 37.896 58.0426 38.0202 57.7942C38.1445 57.5459 38.3226 57.3283 38.5417 57.1572C38.8361 56.9118 39.1894 56.7369 39.4588 56.4636C39.7783 56.1388 39.952 55.7009 40.1949 55.3188C40.61 54.6842 41.2256 54.2062 41.9439 53.9609C42.4783 53.7801 43.1319 53.7596 43.5427 54.1475C43.7532 54.3459 43.8769 54.6325 44.1124 54.8C44.454 55.0425 44.9162 54.9705 45.3328 55.019C45.7105 55.0769 46.068 55.2269 46.3738 55.4555C46.6796 55.6841 46.9243 55.9844 47.0862 56.3298C47.4026 57.0296 47.463 57.818 47.257 58.5577C47.176 58.8737 47.0582 59.1808 46.9714 59.4953C46.7903 60.1507 46.7476 60.8385 46.5386 61.4851C46.3295 62.1317 45.8982 62.7636 45.246 62.9546C45.2976 62.2297 45.1543 61.5042 44.8308 60.8532C44.7773 60.7113 44.6722 60.5948 44.5364 60.5269C44.42 60.4971 44.298 60.4971 44.1816 60.5269C43.3648 60.6478 42.5314 60.4794 41.8261 60.0508C41.5788 59.9038 41.1931 59.388 40.9281 59.3366C40.5939 59.2763 39.8975 59.6834 39.5442 59.7627Z" fill="black"/>
<path d="M39.5442 59.6334C39.2913 59.7035 39.0264 59.7195 38.7669 59.6804C38.2237 59.5687 37.8365 59.0177 37.8232 58.4636C37.8287 58.1861 37.896 57.9132 38.0202 57.6649C38.1445 57.4165 38.3226 57.1989 38.5417 57.0279C38.8361 56.7824 39.1894 56.6076 39.4588 56.3342C39.7783 56.0095 39.952 55.5715 40.1949 55.1894C40.61 54.5549 41.2256 54.0769 41.9439 53.8316C42.4783 53.6508 43.1319 53.6302 43.5427 54.0182C43.7532 54.2166 43.8769 54.5032 44.1124 54.6707C44.454 54.9132 44.9162 54.8412 45.3328 54.8897C45.7105 54.9476 46.068 55.0975 46.3738 55.3261C46.6796 55.5548 46.9243 55.8551 47.0862 56.2005C47.4026 56.9003 47.463 57.6887 47.257 58.4284C47.176 58.7443 47.0582 59.0515 46.9714 59.3659C46.7903 60.0214 46.7476 60.7091 46.5386 61.3557C46.3295 62.0023 45.8982 62.6342 45.246 62.8253C45.2976 62.1004 45.1543 61.3749 44.8308 60.7238C44.7773 60.582 44.6722 60.4655 44.5364 60.3976C44.42 60.3678 44.298 60.3678 44.1816 60.3976C43.3648 60.5185 42.5314 60.35 41.8261 59.9214C41.5788 59.7745 41.1931 59.2587 40.9281 59.2072C40.5939 59.147 39.8975 59.5555 39.5442 59.6334Z" fill="#503F43"/>
<path d="M12.6861 111.729C12.956 111.51 13.1526 111.214 13.25 110.88C13.3236 110.542 13.1793 110.138 12.8554 110.014C12.4933 109.876 12.1061 110.126 11.8131 110.38C11.5202 110.635 11.183 110.923 10.7988 110.868C10.9963 110.69 11.144 110.463 11.2276 110.21C11.3112 109.958 11.3278 109.688 11.2758 109.427C11.2592 109.318 11.2134 109.217 11.1433 109.133C10.9416 108.918 10.578 109.011 10.3365 109.18C9.57099 109.718 9.35753 110.755 9.35311 111.69C9.27656 111.353 9.34133 111.002 9.33839 110.661C9.33544 110.32 9.24122 109.926 8.94973 109.747C8.76898 109.65 8.56598 109.602 8.36086 109.607C8.01637 109.594 7.6336 109.629 7.39805 109.881C7.10361 110.192 7.18164 110.717 7.43633 111.056C7.69101 111.396 8.07673 111.615 8.433 111.853C8.71853 112.022 8.96209 112.254 9.14553 112.53C9.16711 112.569 9.18486 112.609 9.19853 112.651H11.3523C11.8366 112.405 12.2853 112.095 12.6861 111.729Z" fill="#65BFD4"/>
<path d="M140.619 91.3025C140.889 91.0829 141.085 90.7867 141.183 90.4531C141.256 90.1151 141.112 89.711 140.788 89.5875C140.426 89.4494 140.039 89.6992 139.746 89.9534C139.453 90.2077 139.116 90.4957 138.731 90.4413C138.929 90.2626 139.077 90.0359 139.16 89.7833C139.244 89.5306 139.26 89.2607 139.208 88.9997C139.192 88.8915 139.146 88.7899 139.076 88.7058C138.874 88.4912 138.511 88.5838 138.269 88.7528C137.504 89.2907 137.29 90.3282 137.286 91.2628C137.209 90.9263 137.274 90.5751 137.271 90.2341C137.268 89.8932 137.174 89.4994 136.882 89.3201C136.702 89.2231 136.499 89.175 136.293 89.1805C135.949 89.1672 135.566 89.2025 135.331 89.4538C135.036 89.7653 135.114 90.29 135.369 90.6294C135.624 90.9689 136.009 91.1879 136.366 91.4259C136.651 91.5954 136.895 91.827 137.078 92.1034C137.1 92.1417 137.117 92.1821 137.131 92.2239H139.288C139.771 91.9781 140.219 91.6682 140.619 91.3025Z" fill="#65BFD4"/>
<path d="M159.754 47.1274C159.449 46.2369 159.009 45.1082 158.662 44.8422C158.64 44.8252 158.617 44.8109 158.592 44.7996H158.55V43.6989L157.728 43.8297C157.598 43.4321 157.499 43.0247 157.434 42.6114C157.513 42.6905 157.614 42.7445 157.724 42.7664C157.833 42.7884 157.947 42.7774 158.051 42.7349C158.037 42.7128 158.026 42.6893 158.014 42.6658L158.051 42.6497C157.921 42.422 157.853 42.1649 157.852 41.9031C157.859 41.664 157.897 41.4269 157.965 41.1977C158.113 40.6907 158.361 40.2175 158.5 39.7076C158.588 39.3795 158.63 39.0406 158.623 38.7009C158.628 38.1251 158.497 37.5563 158.241 37.0403C158.176 36.8913 158.075 36.761 157.946 36.6612C157.831 36.5972 157.712 36.5393 157.59 36.4878C157.386 36.3505 157.21 36.1754 157.072 35.972C156.488 35.2625 155.707 34.7418 154.827 34.4759C154.597 34.3904 154.348 34.3705 154.108 34.4186C153.556 34.5656 153.356 35.2489 152.908 35.6075C152.514 35.9235 151.972 35.9558 151.476 36.0616C150.98 36.1674 150.481 36.3776 150.142 36.7596C149.909 37.0259 149.782 37.3684 149.784 37.7222C149.771 37.8875 149.8 38.0534 149.869 38.2042C149.938 38.355 150.045 38.4855 150.179 38.5834C150.332 38.6834 150.505 38.7484 150.686 38.7738C150.867 38.7992 151.051 38.7844 151.226 38.7303C151.089 39.2007 151.052 39.6942 151.115 40.1797C151.179 40.6653 151.342 41.1325 151.596 41.552C151.849 41.9715 152.186 42.3342 152.586 42.6174C152.986 42.9006 153.441 43.0982 153.921 43.1978L154.017 43.3697C154.313 43.9196 154.537 44.5048 154.685 45.1112C153.929 45.5388 153.103 45.94 152.604 45.9782C152.584 46.1729 152.547 46.3656 152.495 46.5543C152.378 47.0274 152.154 47.4673 151.84 47.8402C151.161 48.6014 148.109 54.3562 148.109 54.3562C148.109 54.3562 148.013 54.5855 147.856 54.9764C145.961 55.2085 142.868 55.5436 142.005 55.3717L138.619 52.1563C138.619 52.1563 137.524 52.991 137.62 54.005L137.009 53.426C137.009 53.426 133.788 55.8801 138.874 57.4878L146.613 58.3843C145.877 60.6048 145.188 63.1897 145.402 64.5961H145.465C145.613 64.596 145.761 64.5847 145.907 64.5623L145.893 64.8121L145.148 78.1352C145.148 78.1352 144.979 80.5894 147.268 81.6886C147.268 81.6886 150.066 89.8961 148.964 90.8278C148.964 90.8278 149.095 90.8969 149.316 90.9924L147.015 93.0278C147.015 93.0278 145.319 93.451 144.387 93.3658C144.224 93.3433 144.057 93.3819 143.92 93.474C143.783 93.5662 143.685 93.7055 143.644 93.8654C143.644 93.8831 143.644 93.9007 143.635 93.9183V93.9404C143.635 93.958 143.635 93.9756 143.635 93.9947C143.635 94.0139 143.635 94.008 143.635 94.0153C143.635 94.0227 143.635 94.0462 143.635 94.0623C143.635 94.0785 143.635 94.0756 143.635 94.0815C143.635 94.0873 143.635 94.1182 143.645 94.1358V94.1564C143.65 94.176 143.657 94.1956 143.665 94.2152L143.672 94.2328C143.679 94.2519 143.688 94.271 143.698 94.2901V94.3034C143.709 94.3225 143.72 94.3401 143.732 94.3592L143.743 94.3754C143.756 94.395 143.772 94.4146 143.788 94.4341L143.801 94.4488C143.819 94.4694 143.838 94.4885 143.857 94.5076L143.866 94.515L143.93 94.5694L143.943 94.5796C143.966 94.5987 143.993 94.6164 144.019 94.634L144.037 94.6458C144.065 94.6634 144.094 94.681 144.125 94.6972H144.139L144.234 94.7442H144.248L144.359 94.7883L144.383 94.7971L144.505 94.8368H144.526L144.66 94.8721H144.67L144.817 94.9015H144.847L145.006 94.925H145.037L145.216 94.9426C145.565 94.9691 146.035 94.9794 146.578 94.9764C146.578 94.9764 146.578 94.9896 146.578 94.997C146.578 95.0043 146.578 95.0279 146.578 95.044V95.0631C146.578 95.0808 146.578 95.0999 146.588 95.1175V95.1381C146.593 95.1577 146.6 95.1773 146.607 95.1968L146.615 95.2145C146.622 95.2336 146.631 95.2527 146.641 95.2718V95.285C146.652 95.3041 146.663 95.3218 146.675 95.3409L146.685 95.357C146.699 95.3766 146.714 95.3962 146.731 95.4158L146.744 95.4305C146.762 95.4511 146.781 95.4702 146.8 95.4893L146.809 95.4966L146.872 95.551L146.886 95.5613C146.909 95.5804 146.936 95.598 146.962 95.6157L146.981 95.6274C147.009 95.6451 147.039 95.6627 147.07 95.6789H147.083L147.179 95.7259H147.192L147.304 95.77L147.327 95.7788L147.45 95.8185H147.47L147.604 95.8537H147.614L147.762 95.8831H147.791L147.95 95.9067H147.981L148.161 95.9243C150.369 96.0933 157.4 95.5863 157.4 95.5863V95.5672V95.5422C157.469 95.2145 157.808 93.3099 156.607 91.9021C156.642 91.8653 156.677 91.8257 156.71 91.7845C156.71 91.7845 155.778 90.1768 156.286 89.6684C156.793 89.1599 153.743 80.3601 153.743 80.3601C153.743 80.3601 152.133 77.8222 153.064 74.9448C153.996 72.0674 152.979 68.9372 152.979 68.9372C152.979 68.9372 155.202 68.2774 155.248 65.5455C155.248 65.4632 155.248 65.3779 155.248 65.2912C155.296 65.2982 155.346 65.3011 155.395 65.3C155.426 65.3023 155.458 65.3023 155.489 65.3C155.489 65.3 155.065 63.7776 155.574 62.6769C156.084 61.5762 157.185 62.5916 158.202 58.108C158.938 54.8632 159.586 51.1305 159.888 49.3141C160.019 48.585 159.973 47.8351 159.754 47.1274ZM140.408 56.6458L139.635 55.911C139.891 56.0168 140.175 56.1211 140.493 56.2211L143.408 56.5591C142.107 56.6796 140.898 56.7442 140.408 56.6472V56.6458Z" fill="url(#paint7_linear)"/>
<path d="M147.787 56.2152C147.787 56.2152 141.791 57.047 140.541 56.803L137.209 53.6434C137.209 53.6434 134.044 56.055 139.042 57.6333L148.37 58.7134L147.787 56.2152Z" fill="#FDC2CC"/>
<path opacity="0.05" d="M147.787 56.2152C147.787 56.2152 141.791 57.047 140.541 56.803L137.209 53.6434C137.209 53.6434 134.044 56.055 139.042 57.6333L148.37 58.7134L147.787 56.2152Z" fill="black"/>
<path d="M149.952 89.9681L147.037 92.5458C147.037 92.5458 145.372 92.9616 144.455 92.8779C143.538 92.7941 143.122 94.2916 145.288 94.4577C147.454 94.6237 154.366 94.1255 154.366 94.1255C154.366 94.1255 155.032 91.4656 153.033 89.9681H149.952Z" fill="#47465A"/>
<path opacity="0.05" d="M149.952 89.9681L147.037 92.5458C147.037 92.5458 145.372 92.9616 144.455 92.8779C143.538 92.7941 143.122 94.2916 145.288 94.4577C147.454 94.6237 154.366 94.1255 154.366 94.1255C154.366 94.1255 155.032 91.4656 153.033 89.9681H149.952Z" fill="black"/>
<path opacity="0.3" d="M154.47 92.9734C154.465 93.2764 154.43 93.5781 154.366 93.8742C154.366 93.8742 147.446 94.3724 145.288 94.2063C144.247 94.127 143.804 93.739 143.725 93.3672C143.63 93.7934 144.007 94.3577 145.288 94.4562C147.454 94.6222 154.366 94.124 154.366 94.124C154.447 93.7461 154.482 93.3597 154.47 92.9734Z" fill="white"/>
<path d="M153.366 42.8305C153.366 42.8305 155.199 45.4081 154.532 47.1539C153.865 48.8998 158.026 45.3243 158.026 45.3243C158.026 45.3243 156.693 42.9965 157.359 40.5027L153.366 42.8305Z" fill="#FDC2CC"/>
<path d="M152.873 90.9645L149.958 93.5421C149.958 93.5421 148.293 93.958 147.376 93.8742C146.458 93.7905 146.043 95.2879 148.209 95.454C150.375 95.6201 157.286 95.1219 157.286 95.1219C157.286 95.1219 157.953 92.462 155.954 90.9645H152.873Z" fill="#47465A"/>
<path d="M153.701 90.3826C153.267 90.9175 152.654 91.1173 152.014 91.1541C150.558 91.2232 148.955 90.3826 148.955 90.3826C150.037 89.4685 147.29 81.4035 147.29 81.4035C145.041 80.3234 145.208 77.9119 145.208 77.9119L145.944 64.8225L146.128 61.5351L148.46 60.1213L150.299 61.5292L152.042 62.865C152.155 63.2898 152.228 63.7242 152.26 64.1626C152.461 67.2179 150.043 67.9365 150.043 67.9365C150.043 67.9365 151.042 71.0123 150.126 73.8382C149.211 76.6642 150.793 79.1581 150.793 79.1581C150.793 79.1581 153.792 87.8035 153.296 88.3031C152.8 88.8028 153.701 90.3826 153.701 90.3826Z" fill="#565171"/>
<path opacity="0.05" d="M153.701 90.3826C153.267 90.9175 152.654 91.1173 152.014 91.1541C150.558 91.2232 148.955 90.3826 148.955 90.3826C150.037 89.4685 147.29 81.4035 147.29 81.4035C145.041 80.3234 145.208 77.9119 145.208 77.9119L145.944 64.8225L146.128 61.5351L148.46 60.1213L150.299 61.5292L152.042 62.865C152.155 63.2898 152.228 63.7242 152.26 64.1626C152.461 67.2179 150.043 67.9365 150.043 67.9365C150.043 67.9365 151.042 71.0123 150.126 73.8382C149.211 76.6642 150.793 79.1581 150.793 79.1581C150.793 79.1581 153.792 87.8035 153.296 88.3031C152.8 88.8028 153.701 90.3826 153.701 90.3826Z" fill="black"/>
<path d="M156.615 91.3804C155.199 93.1263 151.869 91.3804 151.869 91.3804C151.937 91.3189 151.988 91.241 152.016 91.1541C152.627 89.4964 149.955 81.5711 149.955 81.5711C147.707 80.4909 147.453 77.9133 147.453 77.9133L146.864 64.5917L146.787 62.8664L150.291 61.5306L151.367 61.1206L154.949 63.8643C155.104 64.4307 155.181 65.0156 155.179 65.6028C155.133 68.2877 152.95 68.9358 152.95 68.9358C152.95 68.9358 153.949 72.0115 153.034 74.8375C152.118 77.6635 153.7 80.1573 153.7 80.1573C153.7 80.1573 156.699 88.8028 156.203 89.3024C155.707 89.8021 156.615 91.3804 156.615 91.3804Z" fill="#565171"/>
<path opacity="0.1" d="M155.179 65.6013C154.459 65.4984 153.002 64.6329 152.252 64.1626C151.967 63.9833 151.784 63.8687 151.784 63.8687C151.784 63.8687 151.035 61.7907 149.035 63.3705C148.385 63.8975 147.651 64.3118 146.864 64.5961C146.563 64.7025 146.252 64.7802 145.937 64.8283L146.121 61.5409L148.452 60.1272L150.291 61.535L151.367 61.125L154.949 63.8687C155.104 64.4333 155.181 65.0161 155.179 65.6013Z" fill="black"/>
<path d="M159.686 49.6536C159.392 51.4376 158.753 55.1042 158.03 58.2932C157.031 62.7018 155.949 61.7011 155.448 62.7827C154.947 63.8643 155.364 65.3603 155.364 65.3603C154.531 65.444 151.782 63.6144 151.782 63.6144C151.782 63.6144 151.033 61.5365 149.034 63.1163C147.034 64.696 145.452 64.6123 145.452 64.6123C145.035 61.8686 148.116 54.5531 148.116 54.5531C148.116 54.5531 151.115 48.8997 151.781 48.1517C152.089 47.7852 152.31 47.3528 152.424 46.8879C152.475 46.7026 152.511 46.5133 152.53 46.3221C153.612 46.2383 156.278 44.4116 156.278 44.4116L158.36 44.0795V45.1597C158.384 45.1705 158.407 45.1843 158.428 45.2008C158.771 45.4624 159.202 46.5719 159.501 47.4463C159.744 48.1556 159.807 48.9138 159.686 49.6536Z" fill="#FFAA81"/>
<path opacity="0.1" d="M158.025 46.2398C158.025 46.2398 155.86 44.494 152.612 50.1474C149.365 55.8008 148.615 54.8852 148.615 54.8852C148.615 54.8852 149.282 57.3835 148.948 57.8787C148.948 57.8787 151.196 57.7127 152.029 57.8787C152.862 58.0448 158.025 51.564 158.025 51.564C158.025 51.564 160.696 47.9019 158.025 46.2398Z" fill="black"/>
<path opacity="0.1" d="M157.948 45.9062C157.948 45.9062 155.783 44.1604 152.535 49.8138C149.287 55.4672 148.538 54.5517 148.538 54.5517C148.538 54.5517 151.12 57.3777 151.952 57.5452C152.784 57.7127 157.948 51.2261 157.948 51.2261C157.948 51.2261 160.613 47.5698 157.948 45.9062Z" fill="black"/>
<path opacity="0.1" d="M148.876 57.3379C148.91 56.7222 148.677 55.6391 148.543 55.0777C149.049 55.0116 149.369 54.9675 149.369 54.9675L149.958 57.4658L148.876 57.3379Z" fill="black"/>
<path opacity="0.1" d="M157.447 40.6702L153.45 42.998C153.618 43.2434 153.774 43.4975 153.915 43.7592C154.146 43.8061 154.381 43.8297 154.616 43.8297C155.683 43.8297 156.181 42.7114 156.824 41.959C156.779 41.355 157.269 41.3388 157.447 40.6702Z" fill="black"/>
<path d="M154.534 43.6622C156.466 43.6622 158.032 42.0989 158.032 40.1705C158.032 38.2421 156.466 36.6788 154.534 36.6788C152.602 36.6788 151.036 38.2421 151.036 40.1705C151.036 42.0989 152.602 43.6622 154.534 43.6622Z" fill="#FDC2CC"/>
<path d="M149.128 44.1501H120.958V65.3412H149.128V44.1501Z" fill="url(#paint8_linear)"/>
<path d="M148.496 44.6248H121.589V64.8665H148.496V44.6248Z" fill="white"/>
<path opacity="0.2" d="M133.19 46.3765H124.222V51.4362H133.19V46.3765Z" fill="#FFAA81"/>
<path d="M145.864 46.3765H135.335V47.5448H145.864V46.3765Z" fill="#E6E8EC"/>
<path d="M142.744 48.3237H135.335V49.492H142.744V48.3237Z" fill="#E6E8EC"/>
<path d="M145.864 50.2693H135.335V51.4376H145.864V50.2693Z" fill="#E6E8EC"/>
<path d="M145.864 52.215H124.222V53.3833H145.864V52.215Z" fill="#E6E8EC"/>
<path d="M145.864 54.1622H124.222V55.3305H145.864V54.1622Z" fill="#E6E8EC"/>
<path d="M145.864 56.1079H124.222V57.2762H145.864V56.1079Z" fill="#E6E8EC"/>
<path d="M144.109 58.0551H124.222V59.2234H144.109V58.0551Z" fill="#E6E8EC"/>
<path d="M145.864 60.0008H124.222V61.1691H145.864V60.0008Z" fill="#E6E8EC"/>
<path d="M145.864 61.9465H124.222V63.1148H145.864V61.9465Z" fill="#E6E8EC"/>
<path opacity="0.1" d="M150.109 37.346C150.462 36.9847 150.92 36.7444 151.419 36.6597C151.905 36.5554 152.438 36.523 152.826 36.2188C153.268 35.8676 153.462 35.2004 154.004 35.052C154.24 35.0047 154.484 35.0241 154.709 35.1078C155.575 35.3685 156.343 35.88 156.917 36.5774C157.053 36.7773 157.225 36.9494 157.425 37.0844C157.545 37.135 157.662 37.1919 157.776 37.2549C157.9 37.3531 157.999 37.4809 158.061 37.6267C158.452 38.4138 158.542 39.316 158.314 40.1646C158.179 40.6657 157.935 41.1301 157.79 41.6342C157.646 42.1382 157.609 42.6981 157.874 43.1434C157.618 43.2742 157.294 43.1096 157.138 42.8715C156.982 42.6335 156.929 42.3396 156.844 42.0647C156.677 41.5242 156.365 41.0397 155.941 40.6643C155.679 40.4321 155.205 40.2763 155.027 40.5761C154.956 40.6922 154.961 40.8391 154.9 40.9596C154.781 41.1948 154.437 41.2418 154.209 41.1066C153.989 40.955 153.834 40.7262 153.776 40.4659C153.433 39.3079 152.848 38.5789 151.607 39.0742C151.145 39.2594 150.6 39.3843 150.156 39.0668C149.576 38.648 149.689 37.8192 150.109 37.346Z" fill="black"/>
<path d="M150.109 37.2623C150.462 36.901 150.92 36.6607 151.419 36.576C151.905 36.4717 152.438 36.4394 152.826 36.1352C153.268 35.7839 153.462 35.1167 154.004 34.9683C154.24 34.921 154.484 34.9404 154.709 35.0242C155.575 35.2848 156.343 35.7963 156.917 36.4937C157.053 36.6936 157.225 36.8657 157.425 37.0007C157.545 37.0513 157.662 37.1082 157.776 37.1712C157.9 37.2694 157.999 37.3972 158.061 37.543C158.452 38.3301 158.542 39.2323 158.314 40.0809C158.179 40.582 157.935 41.0464 157.79 41.5505C157.646 42.0545 157.609 42.6145 157.874 43.0597C157.618 43.1905 157.294 43.0259 157.138 42.7879C156.982 42.5498 156.929 42.2559 156.844 41.9811C156.677 41.4405 156.365 40.956 155.941 40.5806C155.679 40.3484 155.205 40.1926 155.027 40.4924C154.956 40.6085 154.961 40.7555 154.9 40.876C154.781 41.1111 154.437 41.1581 154.209 41.0229C153.989 40.8713 153.834 40.6425 153.776 40.3822C153.433 39.2242 152.848 38.4953 151.607 38.9905C151.145 39.1757 150.6 39.3006 150.156 38.9832C149.576 38.5643 149.689 37.737 150.109 37.2623Z" fill="#B96B6B"/>
<path opacity="0.05" d="M158.432 45.2009H156.739C156.739 45.2009 153.407 46.8629 153.325 46.7806C153.269 46.7248 152.754 46.8203 152.427 46.8894C152.478 46.7041 152.513 46.5148 152.533 46.3236C153.615 46.2398 156.281 44.4132 156.281 44.4132L158.363 44.0811V45.1612C158.387 45.1715 158.41 45.1848 158.432 45.2009Z" fill="black"/>
<path opacity="0.3" d="M157.385 93.9713C157.38 94.2742 157.345 94.576 157.281 94.8721C157.281 94.8721 150.361 95.3703 148.203 95.2042C147.162 95.1249 146.719 94.7369 146.64 94.3651C146.545 94.7913 146.922 95.3556 148.203 95.454C150.369 95.6201 157.281 95.1219 157.281 95.1219C157.362 94.744 157.397 94.3576 157.385 93.9713Z" fill="white"/>
<g opacity="0.05">
<path opacity="0.05" d="M148.245 63.0266C147.121 63.9084 146.128 64.2772 145.476 64.4242C145.476 64.4859 145.487 64.5476 145.496 64.6064C145.496 64.6064 147.079 64.6902 149.078 63.1104C149.388 62.8455 149.754 62.6545 150.148 62.552C149.713 62.3506 149.09 62.3639 148.245 63.0266Z" fill="black"/>
<path opacity="0.05" d="M159.548 47.4492C159.253 46.5675 158.812 45.4653 158.475 45.2037C158.454 45.1873 158.431 45.1735 158.407 45.1626C158.407 45.1626 157.718 45.1861 157.74 45.2037C158.083 45.4653 158.416 46.4911 158.715 47.3655C158.955 48.0743 159.018 48.8313 158.896 49.5698C158.601 51.3539 157.962 55.0204 157.239 58.2094C156.24 62.6181 155.158 61.6173 154.657 62.6989C154.248 63.5806 154.453 64.7475 154.541 65.1399C154.897 65.2868 155.206 65.3794 155.407 65.3588C155.407 65.3588 154.99 63.8628 155.491 62.7812C155.991 61.6996 157.073 62.6974 158.073 58.2917C158.796 55.1042 159.432 51.4362 159.729 49.6521C159.851 48.9141 159.788 48.1576 159.548 47.4492Z" fill="black"/>
</g>
<path d="M149.953 57.4629L148.876 57.338L140.632 56.3813C135.636 54.8015 138.799 52.3914 138.799 52.3914L142.131 55.551C143.092 55.7435 146.861 55.2953 148.55 55.0793C149.056 55.0131 149.375 54.969 149.375 54.969L149.953 57.4629Z" fill="#FDC2CC"/>
<path d="M158.025 46.0738C158.025 46.0738 155.86 44.3279 152.612 49.9814C149.365 55.6348 148.615 54.7192 148.615 54.7192C148.615 54.7192 149.282 57.2175 148.948 57.7127C148.948 57.7127 151.196 57.5467 152.029 57.7127C152.862 57.8788 158.025 51.3936 158.025 51.3936C158.025 51.3936 160.696 47.7359 158.025 46.0738Z" fill="#FFAA81"/>
</g>
<defs>
<linearGradient id="paint0_linear" x1="92.8936" y1="87.7682" x2="92.8936" y2="16.5855" gradientUnits="userSpaceOnUse">
<stop stop-color="#808080" stop-opacity="0.25"/>
<stop offset="0.54" stop-color="#808080" stop-opacity="0.12"/>
<stop offset="1" stop-color="#808080" stop-opacity="0.1"/>
</linearGradient>
<linearGradient id="paint1_linear" x1="17592.6" y1="48957.7" x2="17592.6" y2="20201.6" gradientUnits="userSpaceOnUse">
<stop stop-color="#808080" stop-opacity="0.25"/>
<stop offset="0.54" stop-color="#808080" stop-opacity="0.12"/>
<stop offset="1" stop-color="#808080" stop-opacity="0.1"/>
</linearGradient>
<linearGradient id="paint2_linear" x1="5407.37" y1="40100.8" x2="5407.37" y2="22541.3" gradientUnits="userSpaceOnUse">
<stop stop-color="#808080" stop-opacity="0.25"/>
<stop offset="0.54" stop-color="#808080" stop-opacity="0.12"/>
<stop offset="1" stop-color="#808080" stop-opacity="0.1"/>
</linearGradient>
<linearGradient id="paint3_linear" x1="18820.5" y1="22742.9" x2="18820.5" y2="17263.2" gradientUnits="userSpaceOnUse">
<stop stop-color="#808080" stop-opacity="0.25"/>
<stop offset="0.54" stop-color="#808080" stop-opacity="0.12"/>
<stop offset="1" stop-color="#808080" stop-opacity="0.1"/>
</linearGradient>
<linearGradient id="paint4_linear" x1="5176.5" y1="6387.58" x2="6393.21" y2="6387.58" gradientUnits="userSpaceOnUse">
<stop stop-color="#808080" stop-opacity="0.25"/>
<stop offset="0.54" stop-color="#808080" stop-opacity="0.12"/>
<stop offset="1" stop-color="#808080" stop-opacity="0.1"/>
</linearGradient>
<linearGradient id="paint5_linear" x1="-16519.4" y1="53294.6" x2="-16519.4" y2="26249.1" gradientUnits="userSpaceOnUse">
<stop stop-color="#808080" stop-opacity="0.25"/>
<stop offset="0.54" stop-color="#808080" stop-opacity="0.12"/>
<stop offset="1" stop-color="#808080" stop-opacity="0.1"/>
</linearGradient>
<linearGradient id="paint6_linear" x1="3163.88" y1="6056.08" x2="3163.88" y2="5140.32" gradientUnits="userSpaceOnUse">
<stop stop-color="#808080" stop-opacity="0.25"/>
<stop offset="0.54" stop-color="#808080" stop-opacity="0.12"/>
<stop offset="1" stop-color="#808080" stop-opacity="0.1"/>
</linearGradient>
<linearGradient id="paint7_linear" x1="25578.1" y1="43658.7" x2="25578.1" y2="17836.1" gradientUnits="userSpaceOnUse">
<stop stop-color="#808080" stop-opacity="0.25"/>
<stop offset="0.54" stop-color="#808080" stop-opacity="0.12"/>
<stop offset="1" stop-color="#808080" stop-opacity="0.1"/>
</linearGradient>
<linearGradient id="paint8_linear" x1="25961.5" y1="9466.36" x2="25961.5" y2="6410.6" gradientUnits="userSpaceOnUse">
<stop stop-color="#808080" stop-opacity="0.25"/>
<stop offset="0.54" stop-color="#808080" stop-opacity="0.12"/>
<stop offset="1" stop-color="#808080" stop-opacity="0.1"/>
</linearGradient>
<clipPath id="clip0">
<rect width="160" height="116" fill="white"/>
</clipPath>
</defs>
</svg>
